<svg width="19" height="19" viewBox="0 0 19 19" fill="none" xmlns="http://www.w3.org/2000/svg">
  <path
    d="M9.5 0C7.62108 0 5.78435 0.557165 4.22209 1.60104C2.65982 2.64491 1.44218 4.12861 0.723149 5.86451C0.00411622 7.6004 -0.184015 9.51054 0.182544 11.3534C0.549104 13.1962 1.45389 14.8889 2.78249 16.2175C4.11109 17.5461 5.80383 18.4509 7.64665 18.8175C9.48946 19.184 11.3996 18.9959 13.1355 18.2769C14.8714 17.5578 16.3551 16.3402 17.399 14.7779C18.4428 13.2156 19 11.3789 19 9.5C19 6.98044 17.9991 4.56408 16.2175 2.78249C14.4359 1.00089 12.0196 0 9.5 0ZM9.5 17.4167C7.93423 17.4167 6.40363 16.9524 5.10174 16.0825C3.79985 15.2126 2.78515 13.9762 2.18596 12.5296C1.58676 11.083 1.42999 9.49122 1.73545 7.95553C2.04092 6.41985 2.79491 5.00924 3.90208 3.90207C5.00924 2.79491 6.41986 2.04092 7.95554 1.73545C9.49122 1.42998 11.083 1.58676 12.5296 2.18595C13.9762 2.78515 15.2126 3.79985 16.0825 5.10174C16.9524 6.40362 17.4167 7.93423 17.4167 9.5C17.4167 10.5396 17.2119 11.5691 16.814 12.5296C16.4162 13.4901 15.8331 14.3628 15.0979 15.0979C14.3628 15.8331 13.4901 16.4162 12.5296 16.814C11.5691 17.2119 10.5396 17.4167 9.5 17.4167Z"
    fill="#F7F5F4" />
  <path
    d="M9.50036 11.1384C9.22741 11.1384 8.96563 11.03 8.77263 10.837C8.57962 10.644 8.47119 10.3822 8.47119 10.1092V5.35924C8.47119 5.08629 8.57962 4.82452 8.77263 4.63151C8.96563 4.43851 9.22741 4.33008 9.50036 4.33008C9.77331 4.33008 10.0351 4.43851 10.2281 4.63151C10.4211 4.82452 10.5295 5.08629 10.5295 5.35924V10.1092C10.5295 10.3822 10.4211 10.644 10.2281 10.837C10.0351 11.03 9.77331 11.1384 9.50036 11.1384Z"
    fill="#F7F5F4" />
  <path
    d="M9.46045 14.6621C10.1163 14.6621 10.6479 14.1304 10.6479 13.4746C10.6479 12.8188 10.1163 12.2871 9.46045 12.2871C8.80461 12.2871 8.27295 12.8188 8.27295 13.4746C8.27295 14.1304 8.80461 14.6621 9.46045 14.6621Z"
    fill="#F7F5F4" />
</svg>
