<svg width="159" height="44" viewBox="0 0 159 44" fill="none" xmlns="http://www.w3.org/2000/svg">
  <path
    d="M117.791 12.8612L115.234 34.9967H108.042C107.386 31.5969 106.807 27.7321 106.306 23.4026C106.078 25.2529 105.545 29.1176 104.706 34.9967H97.5557L94.9854 12.8612H100.577L101.165 20.5861L101.767 28.0375C101.976 24.1819 102.505 19.1231 103.353 12.8612H109.341C109.423 13.5084 109.633 15.9421 109.97 20.1622L110.599 28.5707C110.918 23.2203 111.451 17.9838 112.199 12.8612H117.791ZM124.695 12.8612V34.9967H118.939V12.8612H124.695ZM139.202 19.5607H133.856V17.92C133.856 17.1543 133.787 16.6667 133.651 16.457C133.514 16.2474 133.286 16.1426 132.967 16.1426C132.621 16.1426 132.356 16.2839 132.174 16.5664C132.001 16.849 131.914 17.2774 131.914 17.8516C131.914 18.5899 132.015 19.1459 132.215 19.5196C132.406 19.8934 132.949 20.3445 133.842 20.8732C136.403 22.3954 138.017 23.6441 138.682 24.6194C139.347 25.5947 139.68 27.167 139.68 29.3364C139.68 30.9132 139.493 32.0754 139.12 32.8228C138.755 33.5702 138.044 34.1992 136.987 34.7096C135.929 35.2109 134.699 35.4616 133.295 35.4616C131.755 35.4616 130.438 35.1699 129.344 34.5865C128.259 34.0032 127.548 33.2603 127.211 32.3579C126.874 31.4556 126.705 30.1749 126.705 28.516V27.0668H132.051V29.7602C132.051 30.5897 132.124 31.1229 132.27 31.3599C132.425 31.5969 132.694 31.7153 133.076 31.7153C133.459 31.7153 133.742 31.565 133.924 31.2642C134.116 30.9634 134.211 30.5167 134.211 29.9243C134.211 28.6208 134.033 27.7686 133.678 27.3676C133.313 26.9665 132.416 26.2966 130.985 25.3577C129.554 24.4098 128.606 23.7216 128.141 23.2932C127.676 22.8648 127.288 22.2723 126.979 21.5158C126.678 20.7593 126.527 19.7931 126.527 18.6173C126.527 16.9219 126.742 15.6823 127.17 14.8984C127.608 14.1145 128.309 13.5038 129.276 13.0663C130.242 12.6197 131.408 12.3964 132.776 12.3964C134.27 12.3964 135.542 12.6379 136.59 13.121C137.648 13.6041 138.345 14.2148 138.682 14.9531C139.028 15.6823 139.202 16.9265 139.202 18.6856V19.5607ZM141.499 12.8612H151.097V17.2911H147.255V21.4885H150.85V25.6995H147.255V30.5669H151.479V34.9967H141.499V12.8612Z"
    fill="white" />
  <path
    d="M51.4275 12.8612V30.5669H54.9276V34.9967H45.6714V12.8612H51.4275ZM56.3358 12.8612H65.9338V17.2911H62.0919V21.4885H65.6877V25.6995H62.0919V30.5669H66.3166V34.9967H56.3358V12.8612ZM79.6471 12.8612L77.6373 22.6506L80.6726 34.9967H75.3404C74.7023 32.7909 74.119 30.1066 73.5903 26.9437C73.4445 28.3383 73.2439 29.8195 72.9887 31.3872L72.4418 34.9967H66.8362L68.9144 22.6506L66.8362 12.8612H72.4008C72.5011 13.4719 72.7016 14.4882 73.0024 15.9101C73.2394 16.9948 73.4353 17.9883 73.5903 18.8907L74.8208 12.8612H79.6471ZM92.1436 12.8612L95.4387 34.9967H89.5459L89.2588 31.0181H87.1943L86.8524 34.9967H80.8913L83.8172 12.8612H92.1436ZM89.0947 27.0941C88.803 24.5875 88.5114 21.493 88.2197 17.8106C87.6363 22.0399 87.2717 25.1344 87.1259 27.0941H89.0947Z"
    fill="white" />
  <path
    d="M19.7062 0.0948922C19.8492 0.0342435 20.0107 0.0342438 20.1538 0.0948924L38.6149 7.92205C39.081 8.11966 39.081 8.78021 38.6149 8.97782L20.1538 16.805C20.0107 16.8656 19.8492 16.8656 19.7062 16.805L1.24506 8.97782C0.778988 8.78021 0.778987 8.11966 1.24506 7.92205L19.7062 0.0948922Z"
    fill="white" />
  <path
    d="M4.72217 12.2955C4.72217 11.983 5.0403 11.7713 5.32856 11.8919L9.73669 13.7364V34.329L12.342 35.4393V40.7894L9.83474 39.7187L5.52228 37.89C5.03722 37.6843 4.72217 37.2085 4.72217 36.6816V12.2955Z"
    fill="white" />
  <path
    d="M13.1459 15.2061L18.1694 17.3299V37.9461L19.9316 38.694V17.9729L21.5897 17.3789L28.1535 14.5678V35.1602L30.13 34.329V13.7563L34.5275 11.8929C34.816 11.7706 35.1358 11.9824 35.1358 12.2957V36.6812C35.1358 37.2083 34.8205 37.6842 34.3351 37.8898L24.8192 41.9203V20.4828L23.35 21.1001V42.5543L20.1021 43.9279C19.9931 43.974 19.8701 43.974 19.7611 43.9278L13.1459 41.1256V15.2061Z"
    fill="white" />
  <path
    d="M1.06096 15.6103C1.56269 15.899 2.17863 15.9053 2.68617 15.627L2.71658 15.6103L3.15205 24.7125C2.37643 24.239 1.40111 24.239 0.625488 24.7125L1.06096 15.6103Z"
    fill="white" />
  <ellipse cx="1.88859" cy="14.6242" rx="0.891524" ry="0.884605" fill="white" />
  <path
    d="M1.44287 10.249L2.3344 10.6177V12.9371C2.3344 13.1832 2.13482 13.3828 1.88863 13.3828C1.64245 13.3828 1.44287 13.1832 1.44287 12.9371L1.44287 10.249Z"
    fill="white" />
</svg>