<svg width="160" height="45" viewBox="0 0 160 45" fill="none"
  xmlns="http://www.w3.org/2000/svg">
  <path d="M118.236 12.949L115.679 35.0845H108.487C107.831 31.6846 107.252 27.8199 106.751 23.4903C106.523 25.3407 105.99 29.2054 105.151 35.0845H98.0006L95.4302 12.949H101.022L101.61 20.6739L102.212 28.1253C102.421 24.2697 102.95 19.2109 103.798 12.949H109.786C109.868 13.5961 110.078 16.0298 110.415 20.25L111.044 28.6585C111.363 23.308 111.896 18.0716 112.644 12.949H118.236ZM125.14 12.949V35.0845H119.384V12.949H125.14ZM139.646 19.6484H134.301V18.0077C134.301 17.2421 134.232 16.7545 134.095 16.5448C133.959 16.3352 133.731 16.2303 133.412 16.2303C133.066 16.2303 132.801 16.3716 132.619 16.6542C132.446 16.9368 132.359 17.3651 132.359 17.9394C132.359 18.6777 132.459 19.2337 132.66 19.6074C132.851 19.9811 133.394 20.4323 134.287 20.961C136.848 22.4832 138.462 23.7319 139.127 24.7072C139.792 25.6825 140.125 27.2548 140.125 29.4241C140.125 31.001 139.938 32.1632 139.564 32.9106C139.2 33.658 138.489 34.2869 137.432 34.7974C136.374 35.2987 135.144 35.5493 133.74 35.5493C132.2 35.5493 130.882 35.2577 129.789 34.6743C128.704 34.091 127.993 33.3481 127.656 32.4457C127.319 31.5433 127.15 30.2627 127.15 28.6038V27.1545H132.496V29.848C132.496 30.6774 132.569 31.2106 132.715 31.4476C132.87 31.6846 133.138 31.8031 133.521 31.8031C133.904 31.8031 134.187 31.6527 134.369 31.3519C134.56 31.0511 134.656 30.6045 134.656 30.012C134.656 28.7086 134.478 27.8564 134.123 27.4553C133.758 27.0543 132.86 26.3843 131.429 25.4455C129.998 24.4975 129.05 23.8094 128.586 23.381C128.121 22.9526 127.733 22.3601 127.423 21.6036C127.123 20.847 126.972 19.8809 126.972 18.705C126.972 17.0097 127.186 15.77 127.615 14.9862C128.052 14.2023 128.754 13.5916 129.72 13.1541C130.687 12.7074 131.853 12.4841 133.22 12.4841C134.715 12.4841 135.987 12.7257 137.035 13.2088C138.092 13.6919 138.79 14.3026 139.127 15.0409C139.473 15.77 139.646 17.0142 139.646 18.7734V19.6484ZM141.943 12.949H151.541V17.3788H147.699V21.5762H151.295V25.7873H147.699V30.6546H151.924V35.0845H141.943V12.949Z" fill="#9647CE"/>
  <path d="M51.6361 12.949V30.6546H55.1362V35.0845H45.88V12.949H51.6361ZM56.5444 12.949H66.1424V17.3788H62.3005V21.5762H65.8963V25.7873H62.3005V30.6546H66.5252V35.0845H56.5444V12.949ZM79.8557 12.949L77.8459 22.7384L80.8812 35.0845H75.549C74.9109 32.8787 74.3276 30.1943 73.7989 27.0315C73.6531 28.4261 73.4525 29.9072 73.1973 31.475L72.6504 35.0845H67.0448L69.123 22.7384L67.0448 12.949H72.6094C72.7097 13.5597 72.9102 14.576 73.211 15.9979C73.448 17.0826 73.644 18.0761 73.7989 18.9785L75.0294 12.949H79.8557ZM92.3522 12.949L95.6473 35.0845H89.7545L89.4674 31.1058H87.4029L87.0611 35.0845H81.0999L84.0258 12.949H92.3522ZM89.3033 27.1819C89.0116 24.6753 88.72 21.5808 88.4283 17.8984C87.8449 22.1277 87.4803 25.2222 87.3345 27.1819H89.3033Z" fill="#183965"/>
  <path d="M19.798 0.096267C19.9419 0.0347777 20.1047 0.0347783 20.2486 0.0962677L38.8127 8.02867C39.2768 8.22698 39.2768 8.88486 38.8127 9.08317L20.2486 17.0156C20.1047 17.0771 19.9419 17.0771 19.798 17.0156L1.23392 9.08317C0.769821 8.88486 0.769823 8.22698 1.23392 8.02867L19.798 0.096267Z" fill="#183965"/>
  <path d="M4.74438 12.4436C4.74438 12.1305 5.06349 11.9188 5.3519 12.0404L9.78239 13.9088V34.7596L12.3999 35.8839V41.3011L9.8809 40.217L5.54111 38.3622C5.05786 38.1557 4.74438 37.6808 4.74438 37.1553V12.4436Z" fill="#9647CE"/>
  <path d="M13.2076 15.3969L18.2546 17.5473V38.4221L20.025 39.1794V18.1984L21.6909 17.597L28.2855 14.7506V35.6013L30.2712 34.7596V13.9289L34.6911 12.0414C34.9797 11.9181 35.3004 12.1299 35.3004 12.4437V37.1549C35.3004 37.6806 34.9867 38.1556 34.5032 38.362L24.9355 42.4461V20.7398L23.4594 21.3648V43.0881L20.1967 44.4788C20.0871 44.5255 19.963 44.5255 19.8534 44.4787L13.2076 41.6414V15.3969Z" fill="#9647CE"/>
  <path d="M1.06581 15.8062C1.56938 16.0982 2.18926 16.1046 2.69875 15.823L2.72918 15.8062L3.16669 25.0225C2.38833 24.5436 1.40666 24.5436 0.628296 25.0225L1.06581 15.8062Z" fill="#183965"/>
  <circle cx="1.89747" cy="14.8077" r="0.8957" fill="#183965"/>
  <path d="M1.44965 10.3776L2.34535 10.7509V13.1029C2.34535 13.3502 2.14484 13.5507 1.8975 13.5507C1.65016 13.5507 1.44965 13.3502 1.44965 13.1029L1.44965 10.3776Z" fill="#183965"/>
</svg>
