<svg width="17" height="12" viewBox="0 0 17 12" fill="none"
  xmlns="http://www.w3.org/2000/svg">
  <path d="M16.1991 4.8H0.839141C0.176741 4.8 0.119141 5.3364 0.119141 6C0.119141 6.6636 0.176741 7.2 0.839141 7.2H16.1991C16.8615 7.2 16.9191 6.6636 16.9191 6C16.9191 5.3364 16.8615 4.8 16.1991 4.8ZM16.1991 9.6H0.839141C0.176741 9.6 0.119141 10.1364 0.119141 10.8C0.119141 11.4636 0.176741 12 0.839141 12H16.1991C16.8615 12 16.9191 11.4636 16.9191 10.8C16.9191 10.1364 16.8615 9.6 16.1991 9.6ZM0.839141 2.4H16.1991C16.8615 2.4 16.9191 1.8636 16.9191 1.2C16.9191 0.5364 16.8615 0 16.1991 0H0.839141C0.176741 0 0.119141 0.5364 0.119141 1.2C0.119141 1.8636 0.176741 2.4 0.839141 2.4Z" fill="#484095"/>
</svg>
