<svg width="19" height="19" viewBox="0 0 19 19" fill="none" xmlns="http://www.w3.org/2000/svg">
    <path
        d="M5.74345 3.37073C4.19822 6.46179 2.65209 9.55196 1.10745 12.6421C0.967031 12.9233 1.17395 13.4161 1.4738 13.5149C4.7602 14.5784 8.04958 15.6412 11.339 16.7061C11.6424 16.8043 11.8264 16.4401 11.6658 16.0565C10.7954 13.9799 9.92256 11.8973 9.05153 9.82271C8.1802 7.74459 7.30887 5.66646 6.43695 3.58834C6.27575 3.20567 5.88714 3.08068 5.74494 3.37014"
        fill="#5FA6C9" />
    <path
        d="M5.78663 3.25436C4.478 5.8725 3.16789 8.48827 1.86164 11.1049C1.74319 11.3427 1.91775 11.7598 2.17128 11.843C4.95389 12.7452 7.73799 13.645 10.5224 14.5454C10.7795 14.6282 10.9362 14.3198 10.8003 13.995C10.0625 12.2369 9.32449 10.4761 8.58794 8.71864C7.84931 6.95966 7.11128 5.19949 6.37385 3.4408C6.23758 3.11572 5.90805 3.01181 5.78752 3.25436"
        fill="#66B1DE" />
    <path
        d="M0.0115156 10.4916C0.465437 11.574 0.918469 12.6552 1.37328 13.7376C1.66184 14.4272 1.9507 15.1145 2.23897 15.803C2.25767 15.8469 2.2927 15.8754 2.31675 15.865C2.91644 15.6133 3.51612 15.3624 4.11581 15.1101L5.14567 14.6784C5.16972 14.6686 5.17417 14.6241 5.15636 14.5789C4.70155 13.4965 4.24852 12.4156 3.794 11.3332C3.50573 10.6448 3.21717 9.9563 2.92831 9.26815C2.92092 9.24864 2.9089 9.23122 2.89328 9.21738V9.21679L2.89209 9.2156C2.87962 9.20551 2.86597 9.20105 2.8535 9.2061L1.05444 9.96076C0.71125 10.1041 0.368062 10.2487 0.024578 10.393C0.000234299 10.4025 -0.00421882 10.4467 0.0144843 10.4916"
        fill="#2B7F99" />
    <path
        d="M17.3939 11.0942C17.3158 10.9063 17.2374 10.7186 17.159 10.5328C17.1469 10.5034 17.148 10.4791 17.1421 10.4515C17.1344 10.4218 17.1243 10.3927 17.1237 10.3585C17.1227 10.3057 17.1323 10.2532 17.1519 10.2042C17.1543 10.1938 17.1531 10.1846 17.1567 10.1739C17.9086 8.26675 17.4663 6.36675 15.8887 5.04002C15.0408 4.32752 14.6605 4.57511 14.2532 3.60344C14.087 3.20682 14.4851 2.8663 14.8618 2.98921C18.3097 4.1206 19.8674 7.83717 18.2589 11.0909C18.0829 11.4469 17.5604 11.4914 17.3939 11.0951"
        fill="#5FA6C9" />
    <path
        d="M14.7129 11.3792L14.5226 10.925C14.5125 10.9015 14.5148 10.8811 14.5095 10.8585C14.5036 10.8341 14.4941 10.8122 14.4947 10.7846C14.4939 10.7418 14.5015 10.6992 14.5169 10.6593C14.5169 10.651 14.5184 10.6427 14.5214 10.6349C15.1297 9.0912 14.7719 7.55487 13.4945 6.48137C12.8093 5.90513 12.5014 6.10612 12.1719 5.3194C12.0377 4.99848 12.3601 4.72268 12.6647 4.82391C15.4536 5.73799 16.7141 8.74415 15.4111 11.3759C15.2704 11.6636 14.8476 11.7004 14.7129 11.3801"
        fill="#5FA6C9" />
    <path
        d="M12.3116 11.5193C12.2647 11.4047 12.2154 11.289 12.1682 11.175C12.1608 11.1568 12.1623 11.1417 12.1584 11.1254C12.1548 11.1067 12.1474 11.0892 12.1474 11.0687C12.1467 11.0363 12.1525 11.0041 12.1643 10.974C12.1661 10.9677 12.1649 10.9618 12.1679 10.9553C12.6272 9.78765 12.3573 8.6239 11.3904 7.81255C10.872 7.37584 10.639 7.52784 10.389 6.93291C10.2872 6.68976 10.5312 6.48106 10.7616 6.55766C12.8733 7.24967 13.8271 9.52492 12.8427 11.5167C12.7358 11.7337 12.4146 11.761 12.3131 11.5193"
        fill="#5FA6C9" />
    <path
        d="M7.46643 10.4322C9.0746 14.2681 10.9532 17.1374 11.6613 16.8405C12.3696 16.5436 11.6399 13.1922 10.0302 9.35629C8.42118 5.51948 6.54374 2.65048 5.8354 2.94735C5.12735 3.24423 5.85737 6.59535 7.46673 10.4316"
        fill="#2B7F99" />
    <path
        d="M7.86716 10.3164C9.24941 13.6088 10.7718 16.1117 11.2685 15.9027C11.7648 15.6949 11.047 12.8562 9.66622 9.56236C8.28457 6.26705 6.76279 3.76677 6.26582 3.97458C5.76914 4.18358 6.48699 7.02141 7.86716 10.3164Z"
        fill="#5FA6C9" />
    <path
        d="M10.2545 9.31773C10.5781 10.0875 10.3617 10.9125 9.7712 11.1604C9.18071 11.4083 8.43823 10.985 8.11493 10.2146C7.79222 9.44569 8.01072 8.62156 8.6024 8.37367C9.19318 8.12608 9.93299 8.54794 10.2545 9.31773Z"
        fill="#72C1E8" />
</svg>