<svg width="18" height="14" viewBox="0 0 18 14" fill="none" xmlns="http://www.w3.org/2000/svg">
  <path
    d="M0 2.5C0 1.90326 0.237053 1.33097 0.65901 0.90901C1.08097 0.487053 1.65326 0.25 2.25 0.25H15.75C16.3467 0.25 16.919 0.487053 17.341 0.90901C17.7629 1.33097 18 1.90326 18 2.5V11.5C18 12.0967 17.7629 12.669 17.341 13.091C16.919 13.5129 16.3467 13.75 15.75 13.75H2.25C1.65326 13.75 1.08097 13.5129 0.65901 13.091C0.237053 12.669 0 12.0967 0 11.5V2.5ZM2.25 1.375C1.95163 1.375 1.66548 1.49353 1.4545 1.7045C1.24353 1.91548 1.125 2.20163 1.125 2.5V3.625H16.875V2.5C16.875 2.20163 16.7565 1.91548 16.5455 1.7045C16.3345 1.49353 16.0484 1.375 15.75 1.375H2.25ZM16.875 5.875H1.125V11.5C1.125 11.7984 1.24353 12.0845 1.4545 12.2955C1.66548 12.5065 1.95163 12.625 2.25 12.625H15.75C16.0484 12.625 16.3345 12.5065 16.5455 12.2955C16.7565 12.0845 16.875 11.7984 16.875 11.5V5.875Z"
    fill="#183965" />
  <path
    d="M2.25 9.25C2.25 8.95163 2.36853 8.66548 2.5795 8.45451C2.79048 8.24353 3.07663 8.125 3.375 8.125H4.5C4.79837 8.125 5.08452 8.24353 5.2955 8.45451C5.50647 8.66548 5.625 8.95163 5.625 9.25V10.375C5.625 10.6734 5.50647 10.9595 5.2955 11.1705C5.08452 11.3815 4.79837 11.5 4.5 11.5H3.375C3.07663 11.5 2.79048 11.3815 2.5795 11.1705C2.36853 10.9595 2.25 10.6734 2.25 10.375V9.25Z"
    fill="#183965" />
</svg>
