<svg width="21" height="20" viewBox="0 0 21 20" fill="none" xmlns="http://www.w3.org/2000/svg">
    <g clip-path="url(#clip0_4746_23489)">
        <path
            d="M18.25 9.0625H16.9219V4.6875C16.9219 3.30664 15.8027 2.1875 14.4219 2.1875H9.57812C8.19727 2.1875 7.07812 3.30664 7.07812 4.6875V9.0625H5.75C5.4043 9.0625 5.125 9.3418 5.125 9.6875V17.1875C5.125 17.5332 5.4043 17.8125 5.75 17.8125H18.25C18.5957 17.8125 18.875 17.5332 18.875 17.1875V9.6875C18.875 9.3418 18.5957 9.0625 18.25 9.0625ZM8.48438 4.6875C8.48438 4.08398 8.97461 3.59375 9.57812 3.59375H14.4219C15.0254 3.59375 15.5156 4.08398 15.5156 4.6875V9.0625H8.48438V4.6875ZM17.4688 16.4062H6.53125V10.4688H17.4688V16.4062ZM11.4531 13.6914V14.7266C11.4531 14.8125 11.5234 14.8828 11.6094 14.8828H12.3906C12.4766 14.8828 12.5469 14.8125 12.5469 14.7266V13.6914C12.7081 13.5757 12.8284 13.4117 12.8906 13.2232C12.9527 13.0347 12.9534 12.8314 12.8926 12.6425C12.8318 12.4535 12.7126 12.2888 12.5522 12.1719C12.3918 12.055 12.1985 11.992 12 11.992C11.8015 11.992 11.6082 12.055 11.4478 12.1719C11.2874 12.2888 11.1682 12.4535 11.1074 12.6425C11.0466 12.8314 11.0473 13.0347 11.1094 13.2232C11.1716 13.4117 11.2919 13.5757 11.4531 13.6914Z"
            fill="white" />
    </g>
    <defs>
        <clipPath id="clip0_4746_23489">
            <rect width="20" height="20" fill="white" transform="translate(0.5)" />
        </clipPath>
    </defs>
</svg>