<svg width="20" height="20" viewBox="0 0 20 20" fill="none" xmlns="http://www.w3.org/2000/svg">
<path d="M17.4917 20H2.50635C1.81692 20 1.2283 19.7556 0.740496 19.2669C0.252691 18.7781 0.00878906 18.1883 0.00878906 17.4976V2.48289C0.00878906 1.79211 0.252691 1.2056 0.740496 0.723363C1.2283 0.241121 1.81692 0 2.50635 0H17.4917C17.8429 0 18.1876 0.0716846 18.5259 0.215054L16.2429 2.48289H3.75513C3.41692 2.48289 3.12424 2.60671 2.87708 2.85435C2.62993 3.10199 2.50635 3.39524 2.50635 3.73412V16.2463C2.50635 16.5982 2.62667 16.8948 2.86733 17.1359C3.10798 17.377 3.40391 17.4976 3.75513 17.4976H16.2429C16.5811 17.4976 16.8738 17.377 17.121 17.1359C17.3681 16.8948 17.4917 16.5982 17.4917 16.2463V8.739L19.9893 6.23656V17.4976C19.9893 18.1883 19.7454 18.7781 19.2576 19.2669C18.7698 19.7556 18.1811 20 17.4917 20ZM10.8966 13.3724C10.6494 13.6201 10.3437 13.7374 9.97952 13.7243C9.60228 13.7374 9.29009 13.6136 9.04293 13.3529L5.37464 9.69697C5.12749 9.4363 5.00391 9.12675 5.00391 8.76833C5.00391 8.40991 5.13074 8.10688 5.3844 7.85924C5.63806 7.6116 5.9405 7.48778 6.29172 7.48778C6.64293 7.48778 6.94863 7.6116 7.20879 7.85924L10.0185 10.6745L19.5405 1.07527C19.8397 1.50538 19.9893 1.97458 19.9893 2.48289V3.81232C19.8852 4.21636 19.7551 4.49006 19.599 4.63343L10.8966 13.3724Z" fill="#33B266"/>
</svg>
