<svg width="17" height="17" viewBox="0 0 17 17" fill="none" xmlns="http://www.w3.org/2000/svg">
<path d="M12.7453 5.70557C12.4837 5.42965 12.0474 5.4175 11.7711 5.67984L7.37127 9.85243L5.2727 7.69779C5.00691 7.42509 4.57112 7.41911 4.29819 7.68494C4.02549 7.95049 4.01975 8.38675 4.28531 8.65945L6.85829 11.3011C6.99312 11.4396 7.17232 11.5095 7.35198 11.5095C7.52245 11.5095 7.69291 11.4465 7.82639 11.3204L12.7196 6.67988C12.9957 6.41797 13.0074 5.98172 12.7453 5.70557Z" fill="#33B266"/>
<path d="M8.5 0C3.81305 0 0 3.81305 0 8.5C0 13.187 3.81305 17 8.5 17C13.187 17 17 13.187 17 8.5C17 3.81305 13.187 0 8.5 0ZM8.5 15.6216C4.57323 15.6216 1.37836 12.427 1.37836 8.5C1.37836 4.57323 4.5732 1.37836 8.5 1.37836C12.427 1.37836 15.6216 4.5732 15.6216 8.5C15.6216 12.427 12.427 15.6216 8.5 15.6216Z" fill="#33B266"/>
</svg>
