<svg width="38" height="38" viewBox="0 0 38 38" fill="none" xmlns="http://www.w3.org/2000/svg">
<path d="M33.2322 37.9629H4.76001C3.4501 37.9629 2.33172 37.4995 1.40489 36.5727C0.478063 35.6459 0.0146484 34.5275 0.0146484 33.2176V4.74537C0.0146484 3.43545 0.478063 2.31707 1.40489 1.39024C2.33172 0.463415 3.4501 0 4.76001 0H33.2322C34.5421 0 35.6605 0.463415 36.5873 1.39024C37.5142 2.31707 37.9776 3.43545 37.9776 4.74537V33.2176C37.9776 34.5275 37.5142 35.6459 36.5873 36.5727C35.6605 37.4995 34.5421 37.9629 33.2322 37.9629ZM15.4371 9.49073H11.8781V5.93171C11.8781 5.61041 11.7607 5.33236 11.5259 5.09756C11.2911 4.86276 11.013 4.74537 10.6917 4.74537C10.3704 4.74537 10.0924 4.86276 9.85758 5.09756C9.62278 5.33236 9.50538 5.61041 9.50538 5.93171V9.49073H5.94636C5.62506 9.49073 5.34701 9.60813 5.11221 9.84293C4.87741 10.0777 4.76001 10.3558 4.76001 10.6771C4.76001 10.9984 4.87741 11.2764 5.11221 11.5112C5.34701 11.746 5.62506 11.8634 5.94636 11.8634H9.50538V15.4224C9.50538 15.7437 9.62278 16.0218 9.85758 16.2566C10.0924 16.4914 10.3704 16.6088 10.6917 16.6088C11.013 16.6088 11.2911 16.4914 11.5259 16.2566C11.7607 16.0218 11.8781 15.7437 11.8781 15.4224V11.8634H15.4371C15.7584 11.8634 16.0364 11.746 16.2712 11.5112C16.506 11.2764 16.6234 10.9984 16.6234 10.6771C16.6234 10.3558 16.506 10.0777 16.2712 9.84293C16.0364 9.60813 15.7584 9.49073 15.4371 9.49073ZM16.3454 21.6322C16.16 21.4468 15.9314 21.3541 15.6595 21.3541C15.3877 21.3541 15.1529 21.4407 14.9551 21.6137L10.6917 25.8771L6.42831 21.6137C6.23058 21.4407 5.99579 21.3541 5.72392 21.3541C5.45205 21.3541 5.22343 21.4468 5.03806 21.6322C4.8527 21.8176 4.76001 22.0462 4.76001 22.3181C4.76001 22.5899 4.84652 22.8247 5.01953 23.0224L9.28294 27.2859L5.0566 31.5122C4.85888 31.7099 4.76001 31.9447 4.76001 32.2166C4.76001 32.4885 4.85888 32.7233 5.0566 32.921C5.25432 33.1187 5.48912 33.2176 5.76099 33.2176C6.03286 33.2176 6.26766 33.1187 6.46538 32.921L10.6917 28.6946L14.9181 32.921C15.1158 33.1187 15.3506 33.2176 15.6225 33.2176C15.8943 33.2176 16.1291 33.1187 16.3268 32.921C16.5246 32.7233 16.6234 32.4885 16.6234 32.2166C16.6234 31.9447 16.5246 31.7099 16.3268 31.5122L12.1005 27.2859L16.3639 23.0224C16.5369 22.8247 16.6234 22.5899 16.6234 22.3181C16.6234 22.0462 16.5307 21.8176 16.3454 21.6322ZM32.0459 9.49073H22.5551C22.2338 9.49073 21.9558 9.60813 21.721 9.84293C21.4862 10.0777 21.3688 10.3558 21.3688 10.6771C21.3688 10.9984 21.4862 11.2764 21.721 11.5112C21.9558 11.746 22.2338 11.8634 22.5551 11.8634H32.0459C32.3672 11.8634 32.6452 11.746 32.88 11.5112C33.1148 11.2764 33.2322 10.9984 33.2322 10.6771C33.2322 10.3558 33.1148 10.0777 32.88 9.84293C32.6452 9.60813 32.3672 9.49073 32.0459 9.49073ZM32.0459 23.7268H22.5551C22.2338 23.7268 21.9558 23.8442 21.721 24.079C21.4862 24.3138 21.3688 24.5919 21.3688 24.9132C21.3688 25.2345 21.4862 25.5125 21.721 25.7473C21.9558 25.9821 22.2338 26.0995 22.5551 26.0995H32.0459C32.3672 26.0995 32.6452 25.9821 32.88 25.7473C33.1148 25.5125 33.2322 25.2345 33.2322 24.9132C33.2322 24.5919 33.1148 24.3138 32.88 24.079C32.6452 23.8442 32.3672 23.7268 32.0459 23.7268ZM32.0459 28.4722H22.5551C22.2338 28.4722 21.9558 28.5896 21.721 28.8244C21.4862 29.0592 21.3688 29.3372 21.3688 29.6585C21.3688 29.9798 21.4862 30.2579 21.721 30.4927C21.9558 30.7275 22.2338 30.8449 22.5551 30.8449H32.0459C32.3672 30.8449 32.6452 30.7275 32.88 30.4927C33.1148 30.2579 33.2322 29.9798 33.2322 29.6585C33.2322 29.3372 33.1148 29.0592 32.88 28.8244C32.6452 28.5896 32.3672 28.4722 32.0459 28.4722Z" fill="#183965"/>
</svg>
