<svg width="18" height="18" viewBox="0 0 18 18" fill="none" xmlns="http://www.w3.org/2000/svg">
    <path
        d="M15 2.25038L14.25 2.25038L14.25 12.0004L15 12.0004C15.3978 12.0004 15.7794 11.8423 16.0607 11.561C16.342 11.2797 16.5 10.8982 16.5 10.5004L16.5 3.75038C16.5 3.35256 16.342 2.97103 16.0607 2.68972C15.7794 2.40842 15.3978 2.25038 15 2.25038ZM3 12.0004L8.25 12.0004L7.4085 14.5264C7.33341 14.7518 7.31296 14.9919 7.34882 15.2268C7.38468 15.4617 7.47583 15.6847 7.61477 15.8774C7.7537 16.0702 7.93644 16.2272 8.14794 16.3355C8.35943 16.4438 8.59363 16.5003 8.83125 16.5004L9 16.5004L12.75 12.4219L12.75 2.25038L4.5 2.25038L1.566 8.69738L1.5 9.00038L1.5 10.5004C1.5 10.8982 1.65803 11.2797 1.93934 11.561C2.22064 11.8423 2.60217 12.0004 3 12.0004V12.0004Z"
        fill="#ED5251" />
</svg>