<svg width="52" height="42" viewBox="0 0 52 42" fill="none" xmlns="http://www.w3.org/2000/svg">
    <g clip-path="url(#clip0_4746_23498)">
        <path
            d="M31.2208 13.0938H52.7384V21.6289H31.5353C31.4392 19.0205 30.5834 15.134 30.547 13.4531C30.5369 12.986 31.2013 13.2696 31.2208 13.0938Z"
            fill="black" />
        <rect x="1.88672" y="22.3477" width="48.0664" height="17.7891" fill="#F79E1B" />
        <circle cx="27.0879" cy="17.1816" r="4.44727" fill="#F79E1B" />
        <rect x="1.88672" y="13.0938" width="21.2031" height="8.53516" fill="black" />
        <path
            d="M46.7547 15.6184C46.7547 14.9086 46.2605 14.5312 45.3531 14.5312H44.9129V16.7684H45.3352C46.2605 16.7684 46.7547 16.373 46.7547 15.6184ZM47.4375 0.875H4.3125C1.93164 0.875 0 2.80664 0 5.1875V36.8125C0 39.1934 1.93164 41.125 4.3125 41.125H47.4375C49.8184 41.125 51.75 39.1934 51.75 36.8125V5.1875C51.75 2.80664 49.8184 0.875 47.4375 0.875ZM43.4754 13.3543C45.5059 13.3543 48.2281 12.9859 48.2281 15.5465C48.2281 16.6785 47.6352 17.4062 46.548 17.6309L48.866 20.7215H47.1051L45.1105 17.7746H44.9129V20.7215H43.4754V13.3543ZM38.4531 13.3633H42.523V14.6211H39.8906V16.2562H42.4332V17.4961H39.8906V19.4906H42.523V20.7305H38.4531V13.3633ZM32.2809 13.3633L34.2484 18.3227L36.243 13.3633H37.8152L34.6258 20.9281H33.8531L30.7086 13.3633H32.2809ZM27.2586 13.0938C29.4777 13.0938 31.2656 14.8906 31.2656 17.1008C31.2656 19.3199 29.4688 21.1078 27.2586 21.1078C25.0395 21.1078 23.2516 19.3109 23.2516 17.1008C23.2516 14.8816 25.0484 13.0938 27.2586 13.0938ZM22.8293 13.6418V15.3488C21.0234 13.543 18.6246 14.9266 18.6246 17.0559C18.6246 19.302 21.0953 20.5148 22.8293 18.7809V20.4879C20.1609 21.7727 17.1422 19.9758 17.1422 17.0559C17.1422 14.2527 20.116 12.2941 22.8293 13.6418ZM14.0965 19.5984C15.1207 19.5984 16.109 18.2238 13.8 17.4062C12.4523 16.9121 11.9852 16.382 11.9852 15.3668C11.9852 13.2824 14.7344 12.5457 16.4504 14.082L15.6957 15.0523C14.7613 14.0102 13.4586 14.4953 13.4586 15.277C13.4586 15.6723 13.7012 15.8969 14.5637 16.2023C16.1988 16.7953 16.684 17.3254 16.684 18.5023C16.684 21.1527 13.198 21.8625 11.5988 19.5176L12.5242 18.6281C12.8566 19.266 13.4137 19.5984 14.0965 19.5984ZM4.97734 20.7305H2.875V13.3633H4.97734C7.32227 13.3633 8.93945 14.8906 8.93945 17.0559C8.93945 18.718 7.75352 20.7305 4.97734 20.7305ZM11.0418 20.7305H9.6043V13.3633H11.0418V20.7305ZM48.875 36.9023C48.875 37.6391 48.2641 38.25 47.5273 38.25H11.5C28.5344 35.0516 45.8832 25.7437 48.875 23.875V36.9023ZM6.65742 15.2141C6.19023 14.7738 5.61523 14.6211 4.68984 14.6211H4.3125V19.4906H4.68984C5.61523 19.4906 6.21719 19.3109 6.65742 18.9156C7.16953 18.4484 7.45703 17.7656 7.45703 17.0559C7.45703 16.3461 7.16953 15.6633 6.65742 15.2141Z"
            fill="white" />
    </g>
    <rect x="0.5" y="0.5" width="50.75" height="41" rx="4.5" stroke="#EFEFEF" />
    <defs>
        <clipPath id="clip0_4746_23498">
            <rect width="51.75" height="42" rx="5" fill="white" />
        </clipPath>
    </defs>
</svg>