<svg width="16" height="17" viewBox="0 0 16 12" fill="none" xmlns="http://www.w3.org/2000/svg">
  <path
    d="M14.75 0.374977H1.25C0.951631 0.374977 0.665483 0.493504 0.454505 0.704482C0.243526 0.91546 0.125 1.20161 0.125 1.49998V10.5C0.125 10.7983 0.243526 11.0845 0.454505 11.2955C0.665483 11.5065 0.951631 11.625 1.25 11.625H14.75C15.0484 11.625 15.3345 11.5065 15.5455 11.2955C15.7565 11.0845 15.875 10.7983 15.875 10.5V1.49998C15.875 1.20161 15.7565 0.91546 15.5455 0.704482C15.3345 0.493504 15.0484 0.374977 14.75 0.374977V0.374977ZM13.5125 1.49998L8 5.31373L2.4875 1.49998H13.5125ZM1.25 10.5V2.01185L7.67938 6.46123C7.77354 6.52655 7.8854 6.56155 8 6.56155C8.1146 6.56155 8.22646 6.52655 8.32062 6.46123L14.75 2.01185V10.5H1.25Z"
    fill="#183965" />
</svg>
