<svg width="20" height="20" viewBox="0 0 20 20" fill="none" xmlns="http://www.w3.org/2000/svg">
<path d="M17.7141 9.13532C18.1091 9.65199 18.1091 10.3495 17.7141 10.8653C16.4699 12.4895 13.4849 15.8337 9.99993 15.8337C6.51493 15.8337 3.52993 12.4895 2.28576 10.8653C2.09358 10.6179 1.98926 10.3136 1.98926 10.0003C1.98926 9.68706 2.09358 9.38271 2.28576 9.13532C3.52993 7.51116 6.51493 4.16699 9.99993 4.16699C13.4849 4.16699 16.4699 7.51116 17.7141 9.13532V9.13532Z" stroke="#4286F4" stroke-width="2" stroke-linecap="round" stroke-linejoin="round"/>
<path d="M10 12.5C11.3807 12.5 12.5 11.3807 12.5 10C12.5 8.61929 11.3807 7.5 10 7.5C8.61929 7.5 7.5 8.61929 7.5 10C7.5 11.3807 8.61929 12.5 10 12.5Z" stroke="#4286F4" stroke-width="2" stroke-linecap="round" stroke-linejoin="round"/>
</svg>
