<svg width="24" height="24" viewBox="0 0 24 24" fill="none" xmlns="http://www.w3.org/2000/svg">
<path d="M5.99998 5.4001C5.99998 4.92271 6.18962 4.46487 6.52718 4.12731C6.86475 3.78974 7.32259 3.6001 7.79998 3.6001H16.2C16.6774 3.6001 17.1352 3.78974 17.4728 4.12731C17.8103 4.46487 18 4.92271 18 5.4001V8.4001H16.8V5.4001C16.8 5.24097 16.7368 5.08836 16.6242 4.97583C16.5117 4.86331 16.3591 4.8001 16.2 4.8001H7.79998C7.64085 4.8001 7.48823 4.86331 7.37571 4.97583C7.26319 5.08836 7.19998 5.24097 7.19998 5.4001V9.6001H13.8C13.533 9.955 13.3486 10.3649 13.26 10.8001H5.99998C5.68172 10.8001 5.37649 10.9265 5.15145 11.1516C4.9264 11.3766 4.79998 11.6818 4.79998 12.0001V18.6001C4.79998 18.7592 4.86319 18.9118 4.97571 19.0244C5.08823 19.1369 5.24085 19.2001 5.39998 19.2001H13.26C13.35 19.6441 13.5372 20.0521 13.8 20.4001H5.39998C4.92259 20.4001 4.46475 20.2105 4.12718 19.8729C3.78962 19.5353 3.59998 19.0775 3.59998 18.6001V12.0001C3.59998 11.3636 3.85283 10.7531 4.30292 10.303C4.75301 9.85295 5.36346 9.6001 5.99998 9.6001V5.4001ZM14.4 11.4001C14.4 10.9227 14.5896 10.4649 14.9272 10.1273C15.2648 9.78974 15.7226 9.6001 16.2 9.6001H18.6C19.0774 9.6001 19.5352 9.78974 19.8728 10.1273C20.2103 10.4649 20.4 10.9227 20.4 11.4001V18.6001C20.4 19.0775 20.2103 19.5353 19.8728 19.8729C19.5352 20.2105 19.0774 20.4001 18.6 20.4001H16.2C15.7226 20.4001 15.2648 20.2105 14.9272 19.8729C14.5896 19.5353 14.4 19.0775 14.4 18.6001V11.4001ZM16.2 10.8001C16.0408 10.8001 15.8882 10.8633 15.7757 10.9758C15.6632 11.0884 15.6 11.241 15.6 11.4001V18.6001C15.6 18.7592 15.6632 18.9118 15.7757 19.0244C15.8882 19.1369 16.0408 19.2001 16.2 19.2001H18.6C18.7591 19.2001 18.9117 19.1369 19.0242 19.0244C19.1368 18.9118 19.2 18.7592 19.2 18.6001V11.4001C19.2 11.241 19.1368 11.0884 19.0242 10.9758C18.9117 10.8633 18.7591 10.8001 18.6 10.8001H16.2ZM6.74998 12.0001C6.94889 12.0001 7.13965 12.0791 7.28031 12.2198C7.42096 12.3604 7.49998 12.5512 7.49998 12.7501C7.49998 12.949 7.42096 13.1398 7.28031 13.2804C7.13965 13.4211 6.94889 13.5001 6.74998 13.5001C6.55106 13.5001 6.3603 13.4211 6.21965 13.2804C6.07899 13.1398 5.99998 12.949 5.99998 12.7501C5.99998 12.5512 6.07899 12.3604 6.21965 12.2198C6.3603 12.0791 6.55106 12.0001 6.74998 12.0001ZM6.74998 14.7001C6.94889 14.7001 7.13965 14.7791 7.28031 14.9198C7.42096 15.0604 7.49998 15.2512 7.49998 15.4501C7.49998 15.649 7.42096 15.8398 7.28031 15.9804C7.13965 16.1211 6.94889 16.2001 6.74998 16.2001C6.55106 16.2001 6.3603 16.1211 6.21965 15.9804C6.07899 15.8398 5.99998 15.649 5.99998 15.4501C5.99998 15.2512 6.07899 15.0604 6.21965 14.9198C6.3603 14.7791 6.55106 14.7001 6.74998 14.7001ZM10.2 15.6001C10.2 15.4012 10.121 15.2104 9.98031 15.0698C9.83965 14.9291 9.64889 14.8501 9.44998 14.8501C9.25106 14.8501 9.0603 14.9291 8.91965 15.0698C8.77899 15.2104 8.69998 15.4012 8.69998 15.6001C8.69998 15.799 8.77899 15.9898 8.91965 16.1304C9.0603 16.2711 9.25106 16.3501 9.44998 16.3501C9.64889 16.3501 9.83965 16.2711 9.98031 16.1304C10.121 15.9898 10.2 15.799 10.2 15.6001ZM9.44998 12.0001C9.64889 12.0001 9.83965 12.0791 9.98031 12.2198C10.121 12.3604 10.2 12.5512 10.2 12.7501C10.2 12.949 10.121 13.1398 9.98031 13.2804C9.83965 13.4211 9.64889 13.5001 9.44998 13.5001C9.25106 13.5001 9.0603 13.4211 8.91965 13.2804C8.77899 13.1398 8.69998 12.949 8.69998 12.7501C8.69998 12.5512 8.77899 12.3604 8.91965 12.2198C9.0603 12.0791 9.25106 12.0001 9.44998 12.0001Z" fill="#1E494E"/>
</svg>
