<svg width="18" height="18" viewBox="0 0 18 18" fill="none" xmlns="http://www.w3.org/2000/svg">
<path d="M9 0C4.02567 0 0 4.02528 0 9C0 13.9744 4.02528 18 9 18C13.9743 18 18 13.9747 18 9C18 4.02564 13.9747 0 9 0ZM9 16.5938C4.80291 16.5938 1.40625 13.1974 1.40625 9C1.40625 4.80287 4.80259 1.40625 9 1.40625C13.1971 1.40625 16.5938 4.80259 16.5938 9C16.5938 13.1971 13.1974 16.5938 9 16.5938Z" fill="#ED5251"/>
<path d="M12.0792 11.0848L9.99436 8.99998L12.0792 6.91514C12.3538 6.64057 12.3538 6.19539 12.0792 5.92078C11.8046 5.64618 11.3594 5.64621 11.0849 5.92078L9 8.00562L6.91514 5.92078C6.6406 5.64618 6.19535 5.64618 5.92078 5.92078C5.64621 6.19539 5.64621 6.64057 5.92082 6.91514L8.00565 8.99998L5.92082 11.0848C5.64621 11.3594 5.64617 11.8046 5.92078 12.0792C6.19545 12.3538 6.64064 12.3537 6.91514 12.0792L9 9.99434L11.0849 12.0792C11.3594 12.3537 11.8046 12.3538 12.0792 12.0792C12.3538 11.8046 12.3538 11.3594 12.0792 11.0848Z" fill="#ED5251"/>
</svg>
