<svg width="17" height="17" viewBox="0 0 17 17" fill="none" xmlns="http://www.w3.org/2000/svg">
  <g clip-path="url(#clip0_1567:18840)">
    <path
      d="M8.5 -2.28882e-05C6.81886 -2.28882e-05 5.17547 0.498493 3.77766 1.43249C2.37984 2.36648 1.29037 3.694 0.647028 5.24717C0.00368293 6.80034 -0.164645 8.5094 0.163329 10.1582C0.491303 11.8071 1.30085 13.3216 2.4896 14.5104C3.67834 15.6991 5.1929 16.5087 6.84174 16.8366C8.49057 17.1646 10.1996 16.9963 11.7528 16.3529C13.306 15.7096 14.6335 14.6201 15.5675 13.2223C16.5015 11.8245 17 10.1811 17 8.49998C17 6.24564 16.1045 4.08363 14.5104 2.48957C12.9163 0.89551 10.7543 -2.28882e-05 8.5 -2.28882e-05V-2.28882e-05ZM8.5 15.5833C7.09905 15.5833 5.72956 15.1679 4.56471 14.3896C3.39987 13.6112 2.49198 12.505 1.95586 11.2106C1.41974 9.91634 1.27946 8.49212 1.55277 7.11809C1.82609 5.74405 2.50071 4.48193 3.49133 3.4913C4.48195 2.50068 5.74408 1.82606 7.11811 1.55275C8.49214 1.27944 9.91637 1.41971 11.2107 1.95583C12.505 2.49195 13.6113 3.39984 14.3896 4.56469C15.1679 5.72954 15.5833 7.09902 15.5833 8.49998C15.5833 9.43017 15.4001 10.3513 15.0441 11.2106C14.6882 12.07 14.1664 12.8509 13.5087 13.5086C12.8509 14.1664 12.0701 14.6882 11.2107 15.0441C10.3513 15.4001 9.4302 15.5833 8.5 15.5833V15.5833Z"
      fill="#ED5251" />
    <path
      d="M8.50006 9.96616C8.25584 9.96616 8.02162 9.86915 7.84893 9.69646C7.67624 9.52377 7.57922 9.28955 7.57922 9.04533V4.79533C7.57922 4.55111 7.67624 4.31689 7.84893 4.1442C8.02162 3.97151 8.25584 3.8745 8.50006 3.8745C8.74428 3.8745 8.97849 3.97151 9.15118 4.1442C9.32387 4.31689 9.42089 4.55111 9.42089 4.79533V9.04533C9.42089 9.28955 9.32387 9.52377 9.15118 9.69646C8.97849 9.86915 8.74428 9.96616 8.50006 9.96616Z"
      fill="#ED5251" />
    <path
      d="M8.4646 13.1183C9.0514 13.1183 9.5271 12.6426 9.5271 12.0558C9.5271 11.469 9.0514 10.9933 8.4646 10.9933C7.8778 10.9933 7.4021 11.469 7.4021 12.0558C7.4021 12.6426 7.8778 13.1183 8.4646 13.1183Z"
      fill="#ED5251" />
  </g>
  <defs>
    <clipPath id="clip0_1567:18840">
      <rect width="17" height="17" fill="white" />
    </clipPath>
  </defs>
</svg>
