<svg width="14" height="14" viewBox="0 0 14 14" fill="none" xmlns="http://www.w3.org/2000/svg">
<path d="M7 0C5.61553 0 4.26216 0.410543 3.11101 1.17971C1.95987 1.94888 1.06266 3.04213 0.532846 4.32122C0.003033 5.6003 -0.13559 7.00776 0.134506 8.36563C0.404603 9.7235 1.07129 10.9708 2.05026 11.9497C3.02922 12.9287 4.2765 13.5954 5.63437 13.8655C6.99224 14.1356 8.3997 13.997 9.67879 13.4672C10.9579 12.9373 12.0511 12.0401 12.8203 10.889C13.5895 9.73785 14 8.38447 14 7C14 5.14348 13.2625 3.36301 11.9497 2.05025C10.637 0.737498 8.85652 0 7 0ZM7 12.8333C5.84628 12.8333 4.71846 12.4912 3.75918 11.8502C2.79989 11.2093 2.05222 10.2982 1.61071 9.23232C1.16919 8.16642 1.05368 6.99353 1.27876 5.86197C1.50384 4.73042 2.05941 3.69102 2.87521 2.87521C3.69102 2.0594 4.73042 1.50383 5.86198 1.27875C6.99353 1.05367 8.16642 1.16919 9.23232 1.6107C10.2982 2.05221 11.2093 2.79989 11.8502 3.75917C12.4912 4.71846 12.8333 5.84627 12.8333 7C12.8333 7.76604 12.6825 8.52459 12.3893 9.23232C12.0961 9.94005 11.6665 10.5831 11.1248 11.1248C10.5831 11.6665 9.94005 12.0961 9.23232 12.3893C8.52459 12.6824 7.76605 12.8333 7 12.8333Z" fill="#484095"/>
<path d="M7.00052 8.20746C6.7994 8.20746 6.60651 8.12757 6.4643 7.98535C6.32208 7.84314 6.24219 7.65025 6.24219 7.44913V3.94913C6.24219 3.74801 6.32208 3.55512 6.4643 3.41291C6.60651 3.27069 6.7994 3.1908 7.00052 3.1908C7.20164 3.1908 7.39453 3.27069 7.53674 3.41291C7.67896 3.55512 7.75885 3.74801 7.75885 3.94913V7.44913C7.75885 7.65025 7.67896 7.84314 7.53674 7.98535C7.39453 8.12757 7.20164 8.20746 7.00052 8.20746Z" fill="#484095"/>
<path d="M6.9707 10.8033C7.45395 10.8033 7.8457 10.4116 7.8457 9.92834C7.8457 9.4451 7.45395 9.05334 6.9707 9.05334C6.48745 9.05334 6.0957 9.4451 6.0957 9.92834C6.0957 10.4116 6.48745 10.8033 6.9707 10.8033Z" fill="#484095"/>
</svg>
