<svg width="18" height="18" viewBox="0 0 18 18" fill="none" xmlns="http://www.w3.org/2000/svg">
    <path
        d="M3 15.75H3.75V6H3C2.60218 6 2.22064 6.15804 1.93934 6.43934C1.65804 6.72064 1.5 7.10218 1.5 7.5V14.25C1.5 14.6478 1.65804 15.0294 1.93934 15.3107C2.22064 15.592 2.60218 15.75 3 15.75ZM15 6H9.75L10.5915 3.474C10.6666 3.24856 10.687 3.00851 10.6512 2.77362C10.6153 2.53872 10.5242 2.31571 10.3852 2.12295C10.2463 1.93018 10.0636 1.77318 9.85206 1.66488C9.64057 1.55657 9.40637 1.50006 9.16875 1.5H9L5.25 5.5785V15.75H13.5L16.434 9.303L16.5 9V7.5C16.5 7.10218 16.342 6.72064 16.0607 6.43934C15.7794 6.15804 15.3978 6 15 6Z"
        fill="#33B266" />
</svg>