<svg width="20" height="20" viewBox="0 0 20 20" fill="none" xmlns="http://www.w3.org/2000/svg">
    <path
        d="M10.1894 1.60159C7.21091 1.59378 4.58982 3.1348 3.09177 5.46292C3.02537 5.56644 3.09958 5.70316 3.22263 5.70316H4.59568C4.68943 5.70316 4.77732 5.66214 4.83591 5.58988C4.97263 5.42386 5.11912 5.26371 5.27341 5.11136C5.91013 4.47659 6.65037 3.97659 7.47459 3.62894C8.32615 3.26956 9.2324 3.08597 10.1679 3.08597C11.1035 3.08597 12.0097 3.26761 12.8613 3.62894C13.6855 3.97659 14.4258 4.47659 15.0625 5.11136C15.6992 5.74613 16.1972 6.48636 16.5468 7.30863C16.9082 8.16019 17.0898 9.06449 17.0898 10C17.0898 10.9356 16.9062 11.8399 16.5468 12.6914C16.1992 13.5137 15.6992 14.2539 15.0625 14.8887C14.4258 15.5235 13.6855 16.0235 12.8613 16.3711C12.0091 16.7311 11.0931 16.9158 10.1679 16.9141C9.2324 16.9141 8.32615 16.7305 7.47459 16.3711C6.65198 16.0238 5.90448 15.5204 5.27341 14.8887C5.11912 14.7344 4.97459 14.5743 4.83591 14.4102C4.77732 14.3379 4.68748 14.2969 4.59568 14.2969H3.22263C3.09958 14.2969 3.02341 14.4336 3.09177 14.5372C4.58787 16.8594 7.19724 18.3985 10.1679 18.3985C14.7812 18.3985 18.5273 14.6856 18.5742 10.086C18.6211 5.41214 14.8691 1.61331 10.1894 1.60159ZM7.71521 12.1875V10.7032H1.5824C1.49646 10.7032 1.42615 10.6329 1.42615 10.5469V9.45316C1.42615 9.36722 1.49646 9.29691 1.5824 9.29691H7.71521V7.81254C7.71521 7.68168 7.86755 7.60746 7.96912 7.68949L10.7406 9.87699C10.7593 9.89161 10.7744 9.91028 10.7848 9.9316C10.7952 9.95292 10.8006 9.97632 10.8006 10C10.8006 10.0238 10.7952 10.0472 10.7848 10.0685C10.7744 10.0898 10.7593 10.1085 10.7406 10.1231L7.96912 12.3106C7.86755 12.3907 7.71521 12.3184 7.71521 12.1875Z"
        fill="#484095" />
</svg>