<svg width="26" height="28" viewBox="0 0 26 28" fill="none" xmlns="http://www.w3.org/2000/svg">
<path d="M12.5186 0.0600074C12.6089 0.0216602 12.7109 0.0216604 12.8012 0.0600077L24.5367 5.04461C24.8302 5.16926 24.8302 5.5852 24.5367 5.70985L12.8012 10.6945C12.7109 10.7328 12.6089 10.7328 12.5186 10.6945L0.78311 5.70985C0.489639 5.5852 0.489641 5.16926 0.783112 5.04461L12.5186 0.0600074Z" fill="#183965"/>
<path d="M3 7.82084C3 7.62381 3.20065 7.49035 3.38236 7.56652L6.18532 8.74148V21.8458L7.84027 22.5524V25.957L6.24761 25.2757L3.5038 24.11C3.19834 23.9803 3 23.6805 3 23.3486V7.82084Z" fill="#9647CE"/>
<path d="M8.35093 9.67672L11.542 11.0282V24.1477L12.6613 24.6236V11.4374L13.7146 11.0595L17.8841 9.27054V22.3748L19.1396 21.8458V8.75414L21.9358 7.5671C22.1177 7.4899 22.3193 7.62337 22.3193 7.82093V23.3484C22.3193 23.6804 22.1208 23.9802 21.8152 24.1099L15.766 26.6767V13.0346L14.8328 13.4275V27.0801L12.769 27.9545C12.7002 27.9837 12.6225 27.9836 12.5537 27.9545L8.35093 26.1709V9.67672Z" fill="#9647CE"/>
<path d="M0.674083 9.93359C0.992718 10.1173 1.38413 10.1213 1.70647 9.9442L1.72576 9.93359L2.00238 15.7259C1.50982 15.4247 0.890023 15.4247 0.397461 15.7259L0.674083 9.93359Z" fill="#183965"/>
<ellipse cx="1.2001" cy="9.3061" rx="0.566314" ry="0.562931" fill="#183965"/>
<path d="M0.916016 6.52148L1.48233 6.75611V8.2326C1.48233 8.38898 1.35556 8.51575 1.19917 8.51575C1.04279 8.51575 0.916016 8.38898 0.916016 8.2326L0.916016 6.52148Z" fill="#183965"/>
</svg>
