<svg width="18" height="18" viewBox="0 0 18 18" fill="none" xmlns="http://www.w3.org/2000/svg">
  <path
    d="M15.2582 12.8671H14.0225C13.9381 12.8671 13.859 12.904 13.8062 12.969C13.6832 13.1185 13.5514 13.2626 13.4125 13.3997C12.8445 13.9682 12.1718 14.4213 11.4314 14.7339C10.6644 15.0579 9.84004 15.224 9.00742 15.2226C8.16543 15.2226 7.3498 15.0573 6.5834 14.7339C5.84306 14.4213 5.1703 13.9682 4.60234 13.3997C4.03337 12.8331 3.57968 12.1615 3.26641 11.4222C2.94121 10.6558 2.77773 9.8419 2.77773 8.99991C2.77773 8.15791 2.94297 7.34405 3.26641 6.57764C3.5793 5.8376 4.0293 5.17139 4.60234 4.6001C5.17539 4.02881 5.8416 3.57881 6.5834 3.26592C7.3498 2.94248 8.16543 2.77725 9.00742 2.77725C9.84941 2.77725 10.665 2.94072 11.4314 3.26592C12.1732 3.57881 12.8395 4.02881 13.4125 4.6001C13.5514 4.73897 13.6814 4.88311 13.8062 5.03076C13.859 5.0958 13.9398 5.13272 14.0225 5.13272H15.2582C15.3689 5.13272 15.4375 5.00967 15.376 4.91651C14.0277 2.82119 11.6687 1.43428 8.98809 1.44131C4.77637 1.45186 1.39961 4.8708 1.4418 9.07725C1.48398 13.2169 4.85547 16.5585 9.00742 16.5585C11.6811 16.5585 14.0295 15.1733 15.376 13.0833C15.4357 12.9901 15.3689 12.8671 15.2582 12.8671ZM16.8209 8.88916L14.3266 6.92041C14.2334 6.84659 14.098 6.91338 14.098 7.03116V8.36709H8.57852C8.50117 8.36709 8.43789 8.43037 8.43789 8.50772V9.49209C8.43789 9.56944 8.50117 9.63272 8.57852 9.63272H14.098V10.9687C14.098 11.0864 14.2352 11.1532 14.3266 11.0794L16.8209 9.11065C16.8377 9.09749 16.8513 9.08069 16.8606 9.0615C16.87 9.04231 16.8749 9.02125 16.8749 8.99991C16.8749 8.97856 16.87 8.9575 16.8606 8.93831C16.8513 8.91912 16.8377 8.90232 16.8209 8.88916Z"
    fill="#183965" />
</svg>
