<svg width="54" height="43" viewBox="0 0 54 43" fill="none" xmlns="http://www.w3.org/2000/svg">
    <rect x="1.25" y="0.5" width="52" height="42" rx="4.5" fill="white" stroke="#EFEFEF" />
    <g clip-path="url(#clip0_4746_23509)">
        <path
            d="M17.5674 33.8755V32.2209C17.5674 31.5865 17.1831 31.1729 16.5245 31.1729C16.1953 31.1729 15.8385 31.2832 15.5915 31.6417C15.3995 31.3383 15.1251 31.1729 14.7135 31.1729C14.439 31.1729 14.1648 31.2556 13.9451 31.5589V31.228H13.3689V33.8755H13.9451V32.4138C13.9451 31.9451 14.1921 31.7244 14.5764 31.7244C14.9604 31.7244 15.1526 31.9726 15.1526 32.4138V33.8755H15.7289V32.4138C15.7289 31.9451 16.0031 31.7244 16.3599 31.7244C16.7441 31.7244 16.9361 31.9726 16.9361 32.4138V33.8755H17.5674ZM26.1013 31.228H25.1684V30.4283H24.5921V31.228H24.0708V31.7519H24.592V32.9655C24.592 33.5723 24.839 33.9307 25.4976 33.9307C25.7446 33.9307 26.0189 33.848 26.2111 33.7377L26.0464 33.2412C25.8818 33.3515 25.6898 33.3792 25.5525 33.3792C25.2781 33.3792 25.1684 33.2137 25.1684 32.9378V31.7519H26.1013V31.228ZM30.9858 31.1728C30.6565 31.1728 30.437 31.3383 30.2998 31.5589V31.228H29.7235V33.8755H30.2998V32.3863C30.2998 31.9451 30.4918 31.6969 30.8485 31.6969C30.9583 31.6969 31.0955 31.7245 31.2053 31.752L31.3699 31.2005C31.2601 31.1729 31.0955 31.1729 30.9858 31.1729V31.1728ZM23.6043 31.4486C23.3298 31.2556 22.9456 31.1729 22.534 31.1729C21.8755 31.1729 21.4365 31.5038 21.4365 32.0278C21.4365 32.4691 21.7658 32.7172 22.342 32.8L22.6164 32.8277C22.9183 32.8827 23.0829 32.9655 23.0829 33.1034C23.0829 33.2964 22.8634 33.4343 22.4791 33.4343C22.095 33.4343 21.7931 33.2964 21.601 33.1586L21.3266 33.5998C21.6285 33.8204 22.0401 33.9307 22.4516 33.9307C23.22 33.9307 23.6591 33.5723 23.6591 33.0758C23.6591 32.6069 23.3024 32.3587 22.7535 32.276L22.4791 32.2484C22.2321 32.2208 22.0401 32.1657 22.0401 32.0003C22.0401 31.8072 22.2321 31.6969 22.534 31.6969C22.8634 31.6969 23.1926 31.8347 23.3573 31.9175L23.6043 31.4486ZM38.9161 31.1729C38.5868 31.1729 38.3673 31.3383 38.23 31.5589V31.228H37.6538V33.8755H38.23V32.3863C38.23 31.9451 38.4221 31.6969 38.7788 31.6969C38.8886 31.6969 39.0259 31.7245 39.1356 31.752L39.3003 31.2005C39.1905 31.1729 39.0259 31.1729 38.9161 31.1729ZM31.562 32.5518C31.562 33.3515 32.1108 33.9307 32.9615 33.9307C33.3456 33.9307 33.62 33.848 33.8944 33.6274L33.62 33.1586C33.4005 33.324 33.181 33.4067 32.934 33.4067C32.4675 33.4067 32.1383 33.0758 32.1383 32.5518C32.1383 32.0554 32.4675 31.7244 32.934 31.6969C33.181 31.6969 33.4005 31.7796 33.62 31.9451L33.8944 31.4763C33.62 31.2556 33.3456 31.1729 32.9615 31.1729C32.1108 31.1729 31.562 31.752 31.562 32.5518ZM36.8855 32.5518V31.228H36.3093V31.5589C36.1171 31.3108 35.8428 31.1729 35.486 31.1729C34.7451 31.1729 34.1689 31.752 34.1689 32.5518C34.1689 33.3515 34.7451 33.9307 35.486 33.9307C35.8701 33.9307 36.1446 33.7929 36.3093 33.5446V33.8755H36.8855V32.5518ZM34.7725 32.5518C34.7725 32.0829 35.0744 31.6969 35.5683 31.6969C36.0348 31.6969 36.3641 32.0554 36.3641 32.5518C36.3641 33.0206 36.0348 33.4067 35.5683 33.4067C35.0744 33.379 34.7725 33.0206 34.7725 32.5518ZM27.885 31.1729C27.1166 31.1729 26.5678 31.7244 26.5678 32.5518C26.5678 33.3792 27.1165 33.9307 27.9124 33.9307C28.2965 33.9307 28.6808 33.8204 28.9826 33.5723L28.7081 33.1586C28.4886 33.324 28.2143 33.4343 27.9399 33.4343C27.5831 33.4343 27.2264 33.2689 27.144 32.7999H29.0924V32.5794C29.1199 31.7244 28.6259 31.1729 27.8849 31.1729H27.885ZM27.885 31.6693C28.2416 31.6693 28.4888 31.89 28.5435 32.3037H27.1715C27.2264 31.9451 27.4734 31.6693 27.885 31.6693ZM42.1815 32.5518V30.1801H41.6053V31.5589C41.4131 31.3108 41.1388 31.1729 40.782 31.1729C40.0411 31.1729 39.4649 31.752 39.4649 32.5518C39.4649 33.3515 40.0411 33.9307 40.782 33.9307C41.1663 33.9307 41.4406 33.7929 41.6053 33.5446V33.8755H42.1815V32.5518ZM40.0686 32.5518C40.0686 32.0829 40.3704 31.6969 40.8644 31.6969C41.3309 31.6969 41.6601 32.0554 41.6601 32.5518C41.6601 33.0206 41.3309 33.4067 40.8644 33.4067C40.3704 33.379 40.0686 33.0206 40.0686 32.5518ZM20.8053 32.5518V31.228H20.229V31.5589C20.0369 31.3108 19.7625 31.1729 19.4058 31.1729C18.6649 31.1729 18.0886 31.752 18.0886 32.5518C18.0886 33.3515 18.6649 33.9307 19.4058 33.9307C19.79 33.9307 20.0644 33.7929 20.229 33.5446V33.8755H20.8053V32.5518ZM18.6649 32.5518C18.6649 32.0829 18.9668 31.6969 19.4606 31.6969C19.9271 31.6969 20.2565 32.0554 20.2565 32.5518C20.2565 33.0206 19.9271 33.4067 19.4606 33.4067C18.9668 33.379 18.6649 33.0206 18.6649 32.5518Z"
            fill="black" />
        <path d="M23.4124 11.1237H32.0561V26.7331H23.4124V11.1237Z" fill="#FF5F00" />
        <path
            d="M23.9611 18.9283C23.9611 15.7568 25.4429 12.9437 27.7204 11.1235C26.0466 9.79975 23.9338 9 21.6287 9C16.1679 9 11.75 13.4401 11.75 18.9283C11.75 24.4163 16.1679 28.8565 21.6286 28.8565C23.9336 28.8565 26.0465 28.0568 27.7204 26.7329C25.4429 24.9403 23.9611 22.0997 23.9611 18.9283Z"
            fill="#EB001B" />
        <path
            d="M43.7182 18.9283C43.7182 24.4163 39.3003 28.8565 33.8396 28.8565C31.5346 28.8565 29.4217 28.0568 27.7478 26.7329C30.0528 24.9128 31.5072 22.0997 31.5072 18.9283C31.5072 15.7568 30.0253 12.9437 27.7478 11.1235C29.4216 9.79975 31.5346 9 33.8396 9C39.3003 9 43.7183 13.4677 43.7183 18.9283H43.7182Z"
            fill="#F79E1B" />
    </g>
    <defs>
        <clipPath id="clip0_4746_23509">
            <rect width="32" height="25" fill="white" transform="translate(11.75 9)" />
        </clipPath>
    </defs>
</svg>