<svg id="Layer_1" enable-background="new 0 0 512 512" height="512" viewBox="0 0 512 512" width="512" xmlns="http://www.w3.org/2000/svg"><path style="fill:#e6e6e6" d="m224 512h-104c-66.168 0-120-53.832-120-120v-272c0-66.168 53.832-120 120-120h272c66.168 0 120 53.832 120 120v100c-1.056 26.536-38.953 26.516-40 0v-100c0-44.112-35.888-80-80-80h-272c-44.112 0-80 35.888-80 80v272c0 44.112 35.888 80 80 80h104c26.536 1.056 26.516 38.953 0 40zm103-402c0-11.046-8.954-20-20-20h-102c-26.536 1.056-26.516 38.953 0 40h102c11.046 0 20-8.954 20-20zm185 267c0-74.439-60.561-135-135-135-179.104 7.417-179.035 262.617 0 270 74.439 0 135-60.561 135-135zm-40 0c0 52.383-42.617 95-95 95-126.036-5.22-125.987-184.805 0-190 52.383 0 95 42.617 95 95zm-59-20h-16v-16c-1.056-26.536-38.953-26.516-40 0v16h-16c-26.536 1.056-26.516 38.953 0 40h16v16c1.056 26.536 38.953 26.516 40 0v-16h16c26.536-1.056 26.516-38.953 0-40z"/></svg>
