<svg width="29" height="29" viewBox="0 0 29 29" fill="none" xmlns="http://www.w3.org/2000/svg">
    <path
        d="M4.43629 3.42233C4.43551 3.42233 4.43463 3.42233 4.43385 3.42233C4.15957 3.42233 3.90159 3.52925 3.7068 3.72356C3.50985 3.92002 3.40137 4.18161 3.40137 4.46009V20.021C3.40137 20.5917 3.86742 21.057 4.44039 21.0585C6.85589 21.0643 10.9028 21.5677 13.6946 24.4893V8.20432C13.6946 8.01089 13.6452 7.82918 13.552 7.67881C11.2606 3.98866 6.85726 3.428 4.43629 3.42233Z"
        fill="#01363E" />
    <path
        d="M25.5988 20.021V4.45996C25.5988 4.18149 25.4904 3.9199 25.2934 3.72344C25.0986 3.52913 24.8404 3.42221 24.5665 3.42221C24.5656 3.42221 24.5647 3.42221 24.5639 3.42221C22.143 3.42797 17.7397 3.98864 15.4482 7.67878C15.355 7.82915 15.3057 8.01087 15.3057 8.2043V24.4892C18.0975 21.5676 22.1444 21.0641 24.5599 21.0584C25.1328 21.0569 25.5988 20.5915 25.5988 20.021Z"
        fill="#01363E" />
    <path
        d="M27.9625 7.01093H27.2101V20.021C27.2101 21.478 26.023 22.666 24.5638 22.6696C22.515 22.6745 19.1367 23.0751 16.7441 25.3396C20.8821 24.3264 25.2442 24.985 27.7302 25.5516C28.0406 25.6223 28.3614 25.5492 28.6101 25.351C28.8579 25.1533 29.0001 24.8577 29.0001 24.5405V8.04848C29.0002 7.47639 28.5346 7.01093 27.9625 7.01093Z"
        fill="#01363E" />
    <path
        d="M1.79 20.021V7.01093H1.03756C0.465564 7.01093 0 7.47639 0 8.04848V24.5402C0 24.8575 0.142169 25.153 0.389988 25.3507C0.63849 25.5488 0.958956 25.6221 1.26985 25.5513C3.75585 24.9846 8.11807 24.3261 12.2558 25.3393C9.86335 23.0749 6.48509 22.6744 4.43623 22.6695C2.97715 22.666 1.79 21.478 1.79 20.021Z"
        fill="#01363E" />
</svg>