<?xml version="1.0"?>
<svg xmlns="http://www.w3.org/2000/svg" viewBox="0 0 512 512" width="512" height="512"><g id="_09-Tracking" data-name="09-Tracking"><g id="Filled"><path style="fill:#e6e6e6" d="M496,324H357.976C394.629,277.322,428,222.151,428,176,428,81.159,350.841,4,256,4S84,81.159,84,176c0,46.151,33.371,101.322,70.024,148H16A12,12,0,0,0,4,336V495.65a12,12,0,0,0,12,12H496a12,12,0,0,0,12-12V336A12,12,0,0,0,496,324ZM256,28c81.607,0,148,66.393,148,148,0,36.363-26.639,87.575-77.036,148.1A922.591,922.591,0,0,1,256,399.6a922.591,922.591,0,0,1-70.964-75.5C134.639,263.575,108,212.363,108,176,108,94.393,174.393,28,256,28ZM28,483.65V428H48a12,12,0,0,0,0-24H28V348H173.723a899.112,899.112,0,0,0,74.25,76.919,12,12,0,0,0,16.054,0A899.112,899.112,0,0,0,338.277,348H484v56H464a12,12,0,0,0,0,24h20v55.65Z"/><path d="M336,404H304a12,12,0,0,0,0,24h32a12,12,0,0,0,0-24Z"/><path d="M416,404H384a12,12,0,0,0,0,24h32a12,12,0,0,0,0-24Z"/><path d="M208,404H176a12,12,0,0,0,0,24h32a12,12,0,0,0,0-24Z"/><path d="M128,404H96a12,12,0,0,0,0,24h32a12,12,0,0,0,0-24Z"/><path d="M380,176A124,124,0,1,0,256,300,124.14,124.14,0,0,0,380,176Zm-224,0A100,100,0,1,1,256,276,100.113,100.113,0,0,1,156,176Z"/><path d="M316,224V128a12,12,0,0,0-12-12H208a12,12,0,0,0-12,12v96a12,12,0,0,0,12,12h96A12,12,0,0,0,316,224Zm-24-12H220v-8h36a12,12,0,0,0,0-24H220V140h24v4a12,12,0,0,0,24,0v-4h24Z"/></g></g></svg>
