<svg width="14" height="17" viewBox="0 0 14 17" fill="none" xmlns="http://www.w3.org/2000/svg">
  <path
    d="M11.5 6H13C13.1989 6 13.3897 6.07902 13.5303 6.21967C13.671 6.36032 13.75 6.55109 13.75 6.75V15.75C13.75 15.9489 13.671 16.1397 13.5303 16.2803C13.3897 16.421 13.1989 16.5 13 16.5H1C0.801088 16.5 0.610322 16.421 0.46967 16.2803C0.329018 16.1397 0.25 15.9489 0.25 15.75V6.75C0.25 6.55109 0.329018 6.36032 0.46967 6.21967C0.610322 6.07902 0.801088 6 1 6H2.5V5.25C2.5 4.05653 2.97411 2.91193 3.81802 2.06802C4.66193 1.22411 5.80653 0.75 7 0.75C8.19347 0.75 9.33807 1.22411 10.182 2.06802C11.0259 2.91193 11.5 4.05653 11.5 5.25V6ZM1.75 7.5V15H12.25V7.5H1.75ZM6.25 10.5H7.75V12H6.25V10.5ZM3.25 10.5H4.75V12H3.25V10.5ZM9.25 10.5H10.75V12H9.25V10.5ZM10 6V5.25C10 4.45435 9.68393 3.69129 9.12132 3.12868C8.55871 2.56607 7.79565 2.25 7 2.25C6.20435 2.25 5.44129 2.56607 4.87868 3.12868C4.31607 3.69129 4 4.45435 4 5.25V6H10Z"
    fill="#183965" />
</svg>
