<svg width="55" height="43" viewBox="0 0 55 43" fill="none" xmlns="http://www.w3.org/2000/svg">
  <path d="M54.25 31H26.75L29.25 14H54.25V31Z" fill="#078BD5" />
  <path d="M3.75 14H31.25L28.75 31H3.75V14Z" fill="#0C043F" />
  <path
    d="M7.74145 19.3555L8.02451 17.556H8.29687C8.55435 17.556 8.7727 17.5651 8.9551 17.5929C9.13941 17.621 9.25426 17.6637 9.32406 17.7088C9.3813 17.7458 9.41904 17.7901 9.44399 17.8697C9.47328 17.9631 9.49065 18.1275 9.44438 18.4035L9.44434 18.4035L9.44331 18.4101C9.3674 18.9037 9.19123 19.0869 9.00996 19.184C8.77974 19.3074 8.43817 19.3491 7.92188 19.3491H7.91251L7.90316 19.3495L7.74145 19.3555ZM34.3925 19.355L34.6689 17.556H34.9219C35.3361 17.556 35.654 17.5744 35.868 17.6665C35.9602 17.7062 36.0117 17.7515 36.0442 17.8009C36.0773 17.851 36.1168 17.9446 36.1188 18.1237C36.1183 18.741 35.9433 18.9869 35.7596 19.1143C35.5312 19.2727 35.1522 19.3491 34.5562 19.3491H34.5467L34.5371 19.3495L34.3925 19.355ZM3.25604 25.089L3.25602 25.089L3.25528 25.094C3.19197 25.5262 3.49838 26.0504 4.05 26.0504H5.83125C6.1424 26.0504 6.38898 25.884 6.5435 25.7139C6.69721 25.5447 6.81248 25.3175 6.84222 25.0726L7.26206 22.5317L7.26324 22.5246L7.26412 22.5181C7.29673 22.5 7.37334 22.4748 7.51609 22.4641C7.65591 22.4537 7.81468 22.4599 7.98198 22.4713C8.01824 22.4737 8.05727 22.4767 8.09753 22.4797C8.2203 22.489 8.3545 22.4991 8.45625 22.4991C9.86506 22.4991 11.0614 22.0785 11.9169 21.2499C11.7916 21.6894 11.725 22.1485 11.725 22.6134C11.725 23.6509 12.0435 24.5564 12.6638 25.2059C13.2866 25.858 14.1679 26.204 15.1969 26.204C15.8404 26.204 16.5668 25.9784 17.1843 25.6067C17.2038 25.6465 17.227 25.6857 17.2543 25.7237C17.4031 25.9305 17.6334 26.0408 17.8875 26.0408H19.5C19.8162 26.0408 20.0591 25.8694 20.2094 25.6996C20.3623 25.5271 20.4688 25.3052 20.5082 25.0797L20.5083 25.0797L20.5097 25.0703L21.4392 19.0714C21.4517 19.1124 21.4667 19.1601 21.4837 19.2133C21.5349 19.3742 21.6077 19.5963 21.6948 19.859C21.8691 20.3849 22.103 21.0799 22.3415 21.786C22.4733 22.1762 22.6062 22.5688 22.7311 22.9381C22.9819 23.6792 23.201 24.3266 23.3161 24.6727C23.1079 24.9723 22.7428 25.5002 22.3962 26.0227C22.1704 26.3631 21.9486 26.707 21.782 26.9869C21.6992 27.126 21.6254 27.2568 21.5708 27.3673C21.5437 27.4221 21.5173 27.4801 21.4965 27.5365C21.4812 27.578 21.4469 27.6747 21.4469 27.7868C21.4469 28.2348 21.8104 28.594 22.2469 28.594H24.0469H24.0611L24.0753 28.5932C24.4096 28.5742 24.7092 28.3891 24.8855 28.1207L30.7916 19.3306L29.8997 25.0803L29.8975 25.0942L29.8961 25.1083C29.8737 25.3374 29.9453 25.5581 30.0728 25.7247C30.2005 25.8915 30.416 26.0408 30.6937 26.0408H32.6156C33.0842 26.0408 33.3804 25.6877 33.4712 25.3718L33.4801 25.3406L33.485 25.3086L33.9069 22.5251L33.9069 22.5252L33.9079 22.5181C33.9405 22.5 34.0171 22.4748 34.1598 22.4641C34.2997 22.4537 34.4584 22.4599 34.6257 22.4713C34.662 22.4737 34.701 22.4767 34.7413 22.4797C34.8641 22.489 34.9983 22.4991 35.1 22.4991C36.4913 22.4991 37.6764 22.0835 38.528 21.2657C38.4057 21.7004 38.3406 22.154 38.3406 22.6134C38.3406 23.6509 38.6591 24.5564 39.2794 25.2059C39.9022 25.858 40.7835 26.204 41.8125 26.204C42.4653 26.204 43.1926 25.9837 43.8043 25.6156C43.8229 25.6524 43.8447 25.6886 43.87 25.7237C44.0188 25.9305 44.249 26.0408 44.5031 26.0408H46.125C46.4412 26.0408 46.6841 25.8694 46.8344 25.6996C46.9873 25.5271 47.0938 25.3052 47.1332 25.0797L47.1333 25.0797L47.1347 25.0703L48.091 18.8987L48.091 18.8983C48.1583 18.4622 47.8387 17.9478 47.2969 17.9478H45.5156C45.2859 17.9478 45.0907 18.0395 44.9486 18.1849C44.9227 18.2115 44.8992 18.2391 44.878 18.2671C44.2821 17.8494 43.5645 17.775 42.8906 17.775C41.6256 17.775 40.5208 18.3201 39.7168 19.1659C39.8405 18.684 39.9031 18.1609 39.9031 17.6031C39.9031 16.4508 39.4585 15.6183 38.7148 15.0947C37.9999 14.5914 37.0686 14.4156 36.15 14.4156H32.4281C31.9442 14.4156 31.481 14.774 31.4169 15.2995L30.9239 18.4779C30.8863 18.387 30.8346 18.3053 30.7752 18.2368C30.6538 18.0966 30.4509 17.9574 30.1875 17.9574H28.3875C28.0448 17.9574 27.7257 18.151 27.548 18.4224C27.5475 18.4231 27.5471 18.4238 27.5466 18.4245L25.6636 21.2617L24.9307 18.7036L24.9264 18.6886L24.9212 18.6739C24.7872 18.2967 24.4137 17.9574 23.9344 17.9574H22.1812C21.9178 17.9574 21.715 18.0966 21.5935 18.2368C21.5265 18.3142 21.4691 18.4084 21.431 18.5137C21.3293 18.2072 21.0566 17.9478 20.6719 17.9478H18.8906C18.661 17.9478 18.4655 18.0394 18.3233 18.1854C18.2966 18.2128 18.2726 18.2413 18.2509 18.2703C17.6512 17.852 16.9444 17.775 16.275 17.775C15.0031 17.775 13.8932 18.326 13.0881 19.1797C13.2143 18.694 13.2781 18.1662 13.2781 17.6031C13.2781 16.4508 12.8335 15.6183 12.0898 15.0947C11.3749 14.5914 10.4436 14.4156 9.525 14.4156H5.775C5.30554 14.4156 4.8421 14.7794 4.79087 15.3063L3.25604 25.089ZM48.9207 15.1036L47.417 24.9869L47.3688 25.0692V25.2049C47.3688 25.6238 47.7041 26.0408 48.1969 26.0408H49.7437C50.0559 26.0408 50.299 25.8639 50.4447 25.6972C50.5912 25.5298 50.7045 25.3022 50.728 25.0534L52.244 15.3576L52.25 15.3192V15.2804V15.2516C52.25 14.8245 51.9249 14.4156 51.45 14.4156H49.7156C49.3405 14.4156 48.9768 14.6998 48.9207 15.1036ZM44.3312 21.7062V21.7112C44.3312 22.6161 43.6453 23.2748 42.7969 23.2748C42.461 23.2748 42.2091 23.1762 42.0477 23.0316C41.8937 22.8937 41.7781 22.6753 41.7781 22.335C41.7781 21.4118 42.4633 20.7234 43.3125 20.7234C43.6452 20.7234 43.8974 20.8269 44.0608 20.9797C44.2189 21.1277 44.3347 21.3596 44.3312 21.7062ZM17.7156 21.7112C17.7156 22.6035 17.0326 23.2748 16.1531 23.2748C15.8153 23.2748 15.5703 23.1776 15.4156 23.0373C15.268 22.9034 15.1531 22.686 15.1531 22.335C15.1531 21.4199 15.8397 20.7234 16.6875 20.7234C17.0199 20.7234 17.2728 20.8268 17.4377 20.9804C17.5979 21.1296 17.7156 21.3633 17.7156 21.7112ZM54.25 4.60714V38.3929C54.25 40.6714 52.4472 42.5 50.25 42.5H5.25C3.05279 42.5 1.25 40.6714 1.25 38.3929V4.60714C1.25 2.3286 3.05279 0.5 5.25 0.5H50.25C52.4472 0.5 54.25 2.3286 54.25 4.60714Z"
    fill="white" stroke="#EFEFEF" />
</svg>