<svg width="24" height="24" viewBox="0 0 24 24" fill="none" xmlns="http://www.w3.org/2000/svg">
<path d="M5.571 7.88709C5.2845 6.00009 6.615 4.30509 8.6475 3.68409C9.00818 3.57381 9.39734 3.6052 9.73569 3.77187C10.074 3.93853 10.3361 4.22792 10.4685 4.58109L11.121 6.32109C11.226 6.60101 11.245 6.90593 11.1755 7.19672C11.1061 7.48751 10.9512 7.7509 10.731 7.95309L8.79 9.73059C8.69432 9.81839 8.62303 9.92948 8.58307 10.053C8.54311 10.1766 8.53585 10.3084 8.562 10.4356L8.58 10.5136L8.6265 10.7086C8.86789 11.6561 9.23569 12.5667 9.72 13.4161C10.2476 14.3186 10.9023 15.1406 11.664 15.8566L11.724 15.9106C11.8209 15.9966 11.9384 16.056 12.0651 16.0831C12.1918 16.1102 12.3234 16.104 12.447 16.0651L14.9565 15.2746C15.2417 15.185 15.5471 15.1828 15.8337 15.268C16.1202 15.3533 16.3747 15.5222 16.5645 15.7531L17.7525 17.1946C18.2475 17.7946 18.1875 18.6766 17.619 19.2061C16.0635 20.6566 13.9245 20.9536 12.4365 19.7581C10.6125 18.2868 9.07493 16.4924 7.9005 14.4646C6.71653 12.4383 5.92569 10.2067 5.5695 7.88709H5.571ZM10.1355 10.5346L11.7435 9.05859C12.1843 8.65439 12.4941 8.12769 12.6334 7.5461C12.7726 6.96451 12.7349 6.35457 12.525 5.79459L11.874 4.05459C11.6075 3.34396 11.0801 2.76168 10.3992 2.4264C9.71835 2.09111 8.93525 2.02806 8.2095 2.25009C5.685 3.02259 3.6585 5.28609 4.0875 8.11359C4.3875 10.0876 5.079 12.5986 6.6045 15.2206C7.87157 17.4071 9.53018 19.3419 11.4975 20.9281C13.7295 22.7206 16.7085 22.1086 18.6435 20.3056C19.7925 19.2346 19.9095 17.4556 18.912 16.2436L17.724 14.8006C17.344 14.3393 16.8348 14.0021 16.2618 13.8321C15.6888 13.6621 15.0781 13.6672 14.508 13.8466L12.4245 14.5021C11.8866 13.9474 11.4154 13.3317 11.0205 12.6676C10.6391 11.9961 10.3418 11.2802 10.1355 10.5361V10.5346Z" fill="#1E494E"/>
</svg>
