<svg width="18" height="18" viewBox="0 0 18 18" fill="none" xmlns="http://www.w3.org/2000/svg">
<g clip-path="url(#clip0)">
<path d="M15.391 2.35797C13.8703 0.837308 11.8484 -8.50512e-05 9.69799 6.47913e-09C9.3456 6.47913e-09 9.06006 0.285624 9.06006 0.637933C9.06006 0.990242 9.34568 1.27587 9.69799 1.27587C11.5077 1.27578 13.2091 1.98048 14.4888 3.26018C15.7686 4.53987 16.4733 6.24137 16.4732 8.05114C16.4732 8.40345 16.7587 8.68907 17.1111 8.68907C17.4634 8.68907 17.749 8.40345 17.749 8.05122C17.7491 5.90054 16.9117 3.87863 15.391 2.35797Z" fill="#183965"/>
<path d="M12.7668 8.05124C12.7668 8.40355 13.0524 8.68917 13.4048 8.68909C13.7571 8.68909 14.0427 8.40346 14.0427 8.05115C14.0425 5.65593 12.0935 3.70701 9.69808 3.70667C9.69799 3.70667 9.69808 3.70667 9.69799 3.70667C9.34568 3.70667 9.06014 3.9922 9.06006 4.34451C9.06006 4.69682 9.3456 4.98244 9.69791 4.98253C11.39 4.98278 12.7666 6.35936 12.7668 8.05124Z" fill="#183965"/>
<path d="M11.3549 11.3038C10.3825 11.2535 9.8871 11.9766 9.64954 12.324C9.45059 12.6148 9.5251 13.0118 9.81591 13.2107C10.1067 13.4097 10.5037 13.3352 10.7026 13.0444C10.9833 12.634 11.1105 12.5694 11.283 12.5776C11.8351 12.6425 14.0096 14.2359 14.2273 14.7342C14.2819 14.8809 14.2799 15.0248 14.2213 15.1997C13.993 15.8773 13.6151 16.3535 13.1282 16.5766C12.6657 16.7887 12.0986 16.7695 11.4887 16.5213C9.21106 15.5929 7.22122 14.2974 5.57451 12.6706C5.57383 12.6699 5.57314 12.6693 5.57255 12.6687C3.94914 11.0236 2.65601 9.03628 1.72922 6.76217C1.48093 6.15171 1.46171 5.58455 1.67376 5.12209C1.89695 4.63522 2.3731 4.25731 3.05008 4.02927C3.22564 3.97041 3.36921 3.96854 3.51458 4.02263C4.01463 4.24115 5.60802 6.41556 5.67232 6.96146C5.68151 7.14042 5.61644 7.2675 5.20638 7.54768C4.91548 7.74638 4.84071 8.14334 5.03949 8.43424C5.23819 8.72513 5.63507 8.79982 5.92605 8.60112C6.2736 8.36381 6.99659 7.86979 6.9464 6.8941C6.89111 5.87494 4.90859 3.17597 3.9613 2.82766C3.54001 2.67064 3.09686 2.66792 2.64367 2.82C1.624 3.16338 0.887571 3.77563 0.513997 4.59048C0.151651 5.38101 0.163134 6.29818 0.547595 7.24334C1.53945 9.67702 2.92717 11.8064 4.67213 13.5727C4.67638 13.577 4.68072 13.5813 4.68514 13.5854C6.45009 15.3271 8.57704 16.7123 11.0075 17.703C11.4942 17.9009 11.9735 18 12.4319 18C12.8634 18 13.2767 17.9122 13.6599 17.7365C14.4749 17.363 15.087 16.6267 15.4307 15.6063C15.5824 15.154 15.5799 14.711 15.4241 14.2917C15.0746 13.3418 12.3756 11.3593 11.3549 11.3038Z" fill="#183965"/>
</g>
<defs>
<clipPath id="clip0">
<rect width="18" height="18" fill="white"/>
</clipPath>
</defs>
</svg>
