<svg width="74" height="20" viewBox="0 0 74 20" fill="none" xmlns="http://www.w3.org/2000/svg">
    <path
        d="M17.4917 20H2.50635C1.81692 20 1.2283 19.7556 0.740496 19.2669C0.252691 18.7781 0.00878906 18.1883 0.00878906 17.4976V2.48289C0.00878906 1.79211 0.252691 1.2056 0.740496 0.723363C1.2283 0.241121 1.81692 0 2.50635 0H17.4917C17.8429 0 18.1876 0.0716846 18.5259 0.215054L16.2429 2.48289H3.75513C3.41692 2.48289 3.12424 2.60671 2.87708 2.85435C2.62993 3.10199 2.50635 3.39524 2.50635 3.73412V16.2463C2.50635 16.5982 2.62668 16.8948 2.86733 17.1359C3.10798 17.377 3.40391 17.4976 3.75513 17.4976H16.2429C16.5811 17.4976 16.8738 17.377 17.121 17.1359C17.3681 16.8948 17.4917 16.5982 17.4917 16.2463V8.739L19.9893 6.23656V17.4976C19.9893 18.1883 19.7454 18.7781 19.2576 19.2669C18.7698 19.7556 18.1811 20 17.4917 20V20ZM10.8966 13.3724C10.6494 13.6201 10.3437 13.7374 9.97952 13.7243C9.60228 13.7374 9.29009 13.6136 9.04293 13.3529L5.37464 9.69697C5.12749 9.4363 5.00391 9.12675 5.00391 8.76833C5.00391 8.40991 5.13074 8.10688 5.3844 7.85924C5.63806 7.6116 5.9405 7.48778 6.29172 7.48778C6.64293 7.48778 6.94863 7.6116 7.20879 7.85924L10.0185 10.6745L19.5405 1.07527C19.8397 1.50538 19.9893 1.97458 19.9893 2.48289V3.81232C19.8852 4.21636 19.7551 4.49006 19.599 4.63343L10.8966 13.3724Z"
        fill="#33B266" />
    <path
        d="M26.4091 16H27.8182V11.4545H30.3636C30.4659 11.4545 30.5625 11.4545 30.6591 11.4489L33.1136 16H34.75L32.1193 11.1932C33.6023 10.6875 34.2955 9.47727 34.2955 7.93182C34.2955 5.875 33.0682 4.36364 30.3409 4.36364H26.4091V16ZM27.8182 10.1818V5.61364H30.2955C32.1818 5.61364 32.9091 6.53409 32.9091 7.93182C32.9091 9.32955 32.1818 10.1818 30.3182 10.1818H27.8182ZM36.4616 16H37.8026V7.27273H36.4616V16ZM37.1435 5.81818C37.6662 5.81818 38.098 5.40909 38.098 4.90909C38.098 4.40909 37.6662 4 37.1435 4C36.6207 4 36.1889 4.40909 36.1889 4.90909C36.1889 5.40909 36.6207 5.81818 37.1435 5.81818ZM43.7812 19.4545C45.8722 19.4545 47.554 18.5 47.554 16.25V7.27273H46.2585V8.65909H46.1222C45.8267 8.20455 45.2812 7.15909 43.5767 7.15909C41.3722 7.15909 39.8494 8.90909 39.8494 11.5909C39.8494 14.3182 41.4403 15.8636 43.554 15.8636C45.2585 15.8636 45.804 14.8636 46.0994 14.3864H46.2131V16.1591C46.2131 17.6136 45.1903 18.2727 43.7812 18.2727C42.196 18.2727 41.6392 17.4375 41.2812 16.9545L40.2131 17.7045C40.7585 18.6193 41.8324 19.4545 43.7812 19.4545ZM43.7358 14.6591C42.054 14.6591 41.1903 13.3864 41.1903 11.5682C41.1903 9.79545 42.0312 8.36364 43.7358 8.36364C45.3722 8.36364 46.2358 9.68182 46.2358 11.5682C46.2358 13.5 45.3494 14.6591 43.7358 14.6591ZM51.3494 10.75C51.3494 9.22727 52.321 8.36364 53.6449 8.36364C54.9062 8.36364 55.6676 9.15909 55.6676 10.5455V16H57.0085V10.4545C57.0085 8.21023 55.8153 7.15909 54.0312 7.15909C52.6562 7.15909 51.8722 7.73295 51.4631 8.63636H51.3494V4.36364H50.0085V16H51.3494V10.75ZM63.2571 7.27273H61.3935V5.18182H60.0526V7.27273H58.7344V8.40909H60.0526V13.8636C60.0526 15.3864 61.2798 16.1136 62.4162 16.1136C62.9162 16.1136 63.2344 16.0227 63.4162 15.9545L63.1435 14.75C63.0298 14.7727 62.848 14.8182 62.5526 14.8182C61.9616 14.8182 61.3935 14.6364 61.3935 13.5V8.40909H63.2571V7.27273Z"
        fill="#33B266" />
</svg>