<svg width="19" height="19" viewBox="0 0 19 19" fill="none" xmlns="http://www.w3.org/2000/svg">
    <path fill-rule="evenodd" clip-rule="evenodd"
        d="M9.50001 0C8.68063 0 7.31144 0.314688 6.02301 0.665C4.70488 1.02125 3.37607 1.44281 2.59469 1.69812C2.268 1.80601 1.97837 2.00386 1.75907 2.26896C1.53977 2.53405 1.3997 2.85563 1.35494 3.19675C0.647194 8.51319 2.28951 12.4533 4.28213 15.0599C5.12713 16.1749 6.13466 17.1568 7.27107 17.9728C7.72944 18.297 8.15457 18.5452 8.51557 18.715C8.84807 18.8718 9.20551 19 9.50001 19C9.79451 19 10.1508 18.8718 10.4844 18.715C10.9196 18.5035 11.336 18.2552 11.7289 17.9728C12.8654 17.1568 13.8729 16.1749 14.7179 15.0599C16.7105 12.4533 18.3528 8.51319 17.6451 3.19675C17.6004 2.85546 17.4604 2.5337 17.2411 2.2684C17.0218 2.00311 16.7321 1.80504 16.4053 1.69694C15.271 1.32503 14.1279 0.980553 12.977 0.663813C11.6886 0.315875 10.3194 0 9.50001 0ZM9.50001 5.9375C9.92066 5.93687 10.328 6.08514 10.6498 6.35605C10.9716 6.62695 11.1872 7.00301 11.2583 7.41761C11.3294 7.83222 11.2515 8.25861 11.0383 8.62128C10.8252 8.98394 10.4906 9.25947 10.0938 9.39906L10.5509 11.7622C10.5676 11.8481 10.565 11.9367 10.5434 12.0215C10.5218 12.1064 10.4817 12.1854 10.426 12.2529C10.3702 12.3204 10.3003 12.3748 10.2211 12.4121C10.1419 12.4494 10.0554 12.4688 9.96788 12.4688H9.03213C8.94469 12.4686 8.85835 12.4491 8.77931 12.4117C8.70026 12.3743 8.63045 12.32 8.57486 12.2525C8.51927 12.185 8.47927 12.106 8.45773 12.0213C8.43619 11.9365 8.43364 11.848 8.45026 11.7622L8.90626 9.39906C8.50943 9.25947 8.17482 8.98394 7.96168 8.62128C7.74854 8.25861 7.67063 7.83222 7.74174 7.41761C7.81286 7.00301 8.02841 6.62695 8.35023 6.35605C8.67204 6.08514 9.07935 5.93687 9.50001 5.9375V5.9375Z"
        fill="#1E494E" />
</svg>