<svg id="Capa_1" enable-background="new 0 0 512 512" height="512" viewBox="0 0 512 512" width="512" xmlns="http://www.w3.org/2000/svg"><g><path style="fill:#0c66a6" d="m275 1h-260c-8.284 0-15 6.716-15 15s6.716 15 15 15h260c13.785 0 25 11.215 25 25v400c0 13.785-11.215 25-25 25h-260c-8.284 0-15 6.716-15 15s6.716 15 15 15h260c30.327 0 55-24.673 55-55v-400c0-30.327-24.673-55-55-55z"/><path d="m15 111h220c8.284 0 15-6.716 15-15s-6.716-15-15-15h-220c-8.284 0-15 6.716-15 15s6.716 15 15 15z"/><path d="m15 191h220c8.284 0 15-6.716 15-15s-6.716-15-15-15h-220c-8.284 0-15 6.716-15 15s6.716 15 15 15z"/><path d="m15 271h220c8.284 0 15-6.716 15-15s-6.716-15-15-15h-220c-8.284 0-15 6.716-15 15s6.716 15 15 15z"/><path d="m15 351h220c8.284 0 15-6.716 15-15s-6.716-15-15-15h-220c-8.284 0-15 6.716-15 15s6.716 15 15 15z"/><path d="m15 431h220c8.284 0 15-6.716 15-15s-6.716-15-15-15h-220c-8.284 0-15 6.716-15 15s6.716 15 15 15z"/><path d="m507.607 245.394-80-80c-5.858-5.858-15.355-5.858-21.213 0-5.858 5.858-5.858 15.355 0 21.213l69.393 69.393-69.394 69.394c-5.858 5.858-5.858 15.355 0 21.213 5.858 5.858 15.355 5.858 21.213 0l80-80c5.858-5.858 5.858-15.356.001-21.213z"/></g></svg>
