<svg width="87" height="36" viewBox="0 0 87 36" fill="none" xmlns="http://www.w3.org/2000/svg">
  <path fill-rule="evenodd" clip-rule="evenodd"
    d="M86.1399 18.9385C86.1399 12.9853 83.1887 8.28784 77.5481 8.28784C71.8837 8.28784 68.4565 12.9853 68.4565 18.892C68.4565 25.8917 72.5025 29.4264 78.3097 29.4264C81.1419 29.4264 83.2839 28.7985 84.9023 27.9148V23.2639C83.2839 24.0545 81.4275 24.5429 79.0713 24.5429C76.7627 24.5429 74.7159 23.7522 74.4541 21.0082H86.0923C86.0923 20.7059 86.1399 19.4966 86.1399 18.9385ZM74.3827 16.7293C74.3827 14.1015 76.0249 13.0085 77.5243 13.0085C78.9761 13.0085 80.5231 14.1015 80.5231 16.7293H74.3827Z"
    fill="#635BFF" />
  <path fill-rule="evenodd" clip-rule="evenodd"
    d="M59.2698 8.28784C56.9374 8.28784 55.438 9.35756 54.605 10.1017L54.2956 8.65992H49.0596V35.7749L55.0096 34.5424L55.0334 27.9613C55.8902 28.566 57.1516 29.4264 59.246 29.4264C63.5062 29.4264 67.3856 26.0777 67.3856 18.706C67.3618 11.9621 63.4348 8.28784 59.2698 8.28784ZM57.8418 24.3103C56.4376 24.3103 55.6046 23.822 55.0334 23.2174L55.0096 14.5899C55.6284 13.9155 56.4852 13.4504 57.8418 13.4504C60.0076 13.4504 61.507 15.8224 61.507 18.8687C61.507 21.9849 60.0314 24.3103 57.8418 24.3103Z"
    fill="#635BFF" />
  <path fill-rule="evenodd" clip-rule="evenodd" d="M40.8723 6.91579L46.8461 5.66004V0.939331L40.8723 2.17183V6.91579Z"
    fill="#635BFF" />
  <path d="M46.8461 8.68317H40.8723V29.031H46.8461V8.68317Z" fill="#635BFF" />
  <path fill-rule="evenodd" clip-rule="evenodd"
    d="M34.4701 10.404L34.0893 8.68312H28.9485V29.031H34.8985V15.241C36.3027 13.4503 38.6827 13.7759 39.4205 14.0317V8.68312C38.6589 8.40407 35.8743 7.89246 34.4701 10.404Z"
    fill="#635BFF" />
  <path fill-rule="evenodd" clip-rule="evenodd"
    d="M22.57 3.6369L16.7628 4.84615L16.739 23.4732C16.739 26.9149 19.3808 29.4496 22.9032 29.4496C24.8548 29.4496 26.2828 29.1008 27.0682 28.6822V23.9615C26.3066 24.2638 22.5462 25.3335 22.5462 21.8918V13.6364H27.0682V8.68318H22.5462L22.57 3.6369Z"
    fill="#635BFF" />
  <path fill-rule="evenodd" clip-rule="evenodd"
    d="M6.48136 14.5899C6.48136 13.6829 7.24296 13.3341 8.50436 13.3341C10.3132 13.3341 12.598 13.869 14.4068 14.8224V9.35756C12.4314 8.59015 10.4798 8.28784 8.50436 8.28784C3.67296 8.28784 0.459961 10.7528 0.459961 14.8689C0.459961 21.2872 9.50396 20.264 9.50396 23.0313C9.50396 24.1011 8.55196 24.4499 7.21916 24.4499C5.24376 24.4499 2.72096 23.6592 0.72176 22.5895V28.1241C2.93516 29.0543 5.17236 29.4496 7.21916 29.4496C12.1696 29.4496 15.573 27.0544 15.573 22.8918C15.5492 15.9619 6.48136 17.1944 6.48136 14.5899Z"
    fill="#635BFF" />
</svg>
