<svg width="29" height="29" viewBox="0 0 29 29" fill="none" xmlns="http://www.w3.org/2000/svg">
    <path
        d="M24.658 19.7522C23.3636 18.3498 21.7928 17.2305 20.0446 16.465C18.2963 15.6995 16.4085 15.3043 14.5 15.3043C12.5915 15.3043 10.7037 15.6995 8.9554 16.465C7.20715 17.2305 5.63635 18.3498 4.34194 19.7522C4.14209 19.9732 4.0303 20.2599 4.02777 20.5578V25.3911C4.03201 25.7088 4.16118 26.012 4.38733 26.2352C4.61348 26.4583 4.91841 26.5834 5.2361 26.5833H23.7639C24.0844 26.5833 24.3917 26.456 24.6183 26.2294C24.8449 26.0028 24.9722 25.6955 24.9722 25.375V20.5417C24.9658 20.2493 24.8543 19.9691 24.658 19.7522Z"
        fill="#183965" />
    <path
        d="M14.5 13.6944C17.6142 13.6944 20.1389 11.1698 20.1389 8.05551C20.1389 4.94124 17.6142 2.41663 14.5 2.41663C11.3857 2.41663 8.86108 4.94124 8.86108 8.05551C8.86108 11.1698 11.3857 13.6944 14.5 13.6944Z"
        fill="#183965" />
</svg>