<svg width="54" height="43" viewBox="0 0 54 43" fill="none" xmlns="http://www.w3.org/2000/svg">
    <rect x="1.25" y="0.5" width="52" height="42" rx="4.5" fill="white" stroke="#EFEFEF" />
    <g clip-path="url(#clip0_4746_23505)">
        <path
            d="M23.659 14.1921L19.2075 24.7129H16.3034L14.1128 16.3163C13.98 15.8004 13.8646 15.6105 13.4604 15.3924C12.7998 15.0368 11.7089 14.7043 10.75 14.4975L10.8147 14.1921H15.4902C16.0852 14.1921 16.621 14.5846 16.7572 15.2642L17.9147 21.3528L20.7723 14.1921H23.659ZM27.5849 14.1921L25.3134 24.7129H22.5658L24.8376 14.1921H27.585H27.5849ZM35.0378 21.2779C35.0492 18.5017 31.1631 18.3476 31.1885 17.1072C31.1978 16.7301 31.5604 16.3287 32.3541 16.2261C32.7472 16.1757 33.8333 16.1355 35.0636 16.6971L35.5449 14.4647C34.8839 14.2279 34.0332 14 32.9751 14C30.2591 14 28.3486 15.4292 28.3333 17.4774C28.3155 18.9924 29.698 19.8367 30.7376 20.3413C31.8085 20.8566 32.1676 21.1878 32.1627 21.6483C32.155 22.3542 31.3074 22.6667 30.5194 22.6783C29.1376 22.7 28.3366 22.3083 27.6977 22.0134L27.199 24.3197C27.8418 24.6116 29.0265 24.8651 30.2535 24.878C33.1409 24.878 35.0293 23.4653 35.0378 21.278V21.2779ZM42.2097 24.7129H44.75L42.5307 14.1921H40.187C39.6584 14.1921 39.2141 14.4961 39.017 14.9633L34.8945 24.7129H37.7796L38.3519 23.1413H41.8767L42.2098 24.7129H42.2097ZM39.1431 20.9854L40.5896 17.0345L41.4207 20.9854H39.1429H39.1431ZM31.1013 27.6088H29.9848V28.6382H31.2335V28.9476H29.6087V26.0921H31.1695V26.4016H29.9848V27.3038H31.1011V27.6091L31.1013 27.6088ZM31.8103 25.9396H32.1865V28.9475H31.8103V25.9396ZM33.1355 27.99C33.144 28.4943 33.4649 28.7018 33.8453 28.7018C34.1149 28.7018 34.2816 28.6553 34.4186 28.5961L34.4869 28.863C34.3544 28.9222 34.1235 28.9942 33.794 28.9942C33.1571 28.9942 32.7766 28.5749 32.7766 27.9562C32.7766 27.3378 33.144 26.8546 33.7471 26.8546C34.4271 26.8546 34.6025 27.4395 34.6025 27.8164C34.6025 27.8926 34.5981 27.9476 34.5894 27.9901H33.1355V27.99ZM34.2388 27.7232C34.2432 27.4903 34.1405 27.1216 33.7171 27.1216C33.3322 27.1216 33.1697 27.4647 33.1397 27.7232H34.2388ZM36.6499 28.8755C36.5516 28.9222 36.3334 28.9943 36.0556 28.9943C35.4312 28.9943 35.0249 28.5749 35.0249 27.9478C35.0249 27.3164 35.461 26.8547 36.1367 26.8547C36.359 26.8547 36.5557 26.9096 36.6584 26.9649L36.5731 27.2487C36.483 27.2021 36.3419 27.1511 36.1367 27.1511C35.6619 27.1511 35.4056 27.5028 35.4056 27.9267C35.4056 28.4011 35.7134 28.6934 36.124 28.6934C36.3378 28.6934 36.4788 28.6426 36.5858 28.5961L36.6499 28.8755ZM37.7055 26.4055V26.897H38.2442V27.1807H37.7055V28.2866C37.7055 28.5411 37.7783 28.6849 37.9877 28.6849C38.0903 28.6849 38.1503 28.6766 38.2059 28.6593L38.2231 28.9436C38.1503 28.9688 38.0349 28.9942 37.8894 28.9942C37.714 28.9942 37.5728 28.9349 37.4832 28.8376C37.3805 28.723 37.3377 28.5411 37.3377 28.2995V27.1807H37.0169V26.897H37.3377V26.5158L37.7056 26.4057L37.7055 26.4055ZM38.7697 27.5368C38.7697 27.2953 38.7652 27.0878 38.7526 26.897H39.082L39.0992 27.3036H39.1117C39.206 27.0284 39.4367 26.8546 39.6889 26.8546C39.7276 26.8546 39.7576 26.8589 39.7918 26.863V27.2149C39.7533 27.2062 39.7149 27.2062 39.6633 27.2062C39.3985 27.2062 39.21 27.4011 39.1589 27.6809C39.15 27.7384 39.1457 27.7965 39.146 27.8546V28.9478H38.7697V27.5368ZM42.1048 27.9053C42.1048 28.6637 41.5701 28.9942 41.0741 28.9942C40.5181 28.9942 40.082 28.5874 40.082 27.9393C40.082 27.2571 40.5396 26.8547 41.1084 26.8547C41.7027 26.8547 42.1048 27.2824 42.1048 27.9054V27.9053ZM40.4668 27.9266C40.4668 28.3757 40.7234 28.7147 41.0911 28.7147C41.4505 28.7147 41.7198 28.3797 41.7198 27.918C41.7198 27.5707 41.5444 27.1341 41.0996 27.1341C40.6594 27.1341 40.4668 27.5411 40.4668 27.9266ZM42.6814 27.452C42.6814 27.2361 42.6769 27.0664 42.6642 26.8971H42.9978L43.0192 27.2361H43.0277C43.1304 27.0453 43.3698 26.8547 43.7119 26.8547C43.9983 26.8547 44.4432 27.0242 44.4432 27.7272V28.9476H44.0669V27.7655C44.0669 27.4353 43.9429 27.1596 43.588 27.1596C43.3442 27.1596 43.1516 27.3334 43.0835 27.5409C43.0662 27.5876 43.0577 27.6511 43.0577 27.7147V28.9476H42.6814V27.452Z"
            fill="#1A1F71" />
    </g>
    <defs>
        <clipPath id="clip0_4746_23505">
            <rect width="34" height="15" fill="white" transform="translate(10.75 14)" />
        </clipPath>
    </defs>
</svg>