<svg width="74" height="20" viewBox="0 0 74 20" fill="none" xmlns="http://www.w3.org/2000/svg">
    <path
        d="M17.4917 20H2.50635C1.81692 20 1.2283 19.7556 0.740496 19.2669C0.252691 18.7781 0.00878906 18.1883 0.00878906 17.4976V2.48289C0.00878906 1.79211 0.252691 1.2056 0.740496 0.723363C1.2283 0.241121 1.81692 0 2.50635 0H17.4917C18.1811 0 18.7698 0.241121 19.2576 0.723363C19.7454 1.2056 19.9893 1.79211 19.9893 2.48289V17.4976C19.9893 18.1883 19.7454 18.7781 19.2576 19.2669C18.7698 19.7556 18.1811 20 17.4917 20ZM17.4917 3.73412C17.4917 3.39524 17.3714 3.10199 17.1307 2.85435C16.8901 2.60671 16.5942 2.48289 16.2429 2.48289H3.75513C3.40391 2.48289 3.10798 2.60671 2.86733 2.85435C2.62667 3.10199 2.50635 3.39524 2.50635 3.73412V16.2463C2.50635 16.5982 2.62667 16.8948 2.86733 17.1359C3.10798 17.377 3.40391 17.4976 3.75513 17.4976H16.2429C16.5942 17.4976 16.8901 17.377 17.1307 17.1359C17.3714 16.8948 17.4917 16.5982 17.4917 16.2463V3.73412ZM11.8332 9.99022L14.6039 12.7664C14.8641 13.027 14.9942 13.3366 14.9942 13.695C14.9942 14.0534 14.8673 14.3565 14.6137 14.6041C14.36 14.8517 14.0543 14.9756 13.6966 14.9756C13.3389 14.9756 13.0299 14.8517 12.7698 14.6041L9.99903 11.828L7.2283 14.6237C6.96814 14.8713 6.66245 14.9951 6.31123 14.9951C5.96001 14.9951 5.65757 14.868 5.40391 14.6139C5.15025 14.3597 5.02342 14.0534 5.02342 13.695C5.02342 13.3366 5.147 13.0336 5.39415 12.7859L8.1844 9.99022L5.37464 7.19453C5.12749 6.93385 5.00391 6.62431 5.00391 6.26588C5.00391 5.90746 5.12749 5.60443 5.37464 5.35679C5.6218 5.10916 5.92424 4.98534 6.28196 4.98534C6.63968 4.98534 6.94863 5.10916 7.20879 5.35679L9.99903 8.17204L12.8088 5.35679C13.0559 5.10916 13.3584 4.98534 13.7161 4.98534C14.0738 4.98534 14.3795 5.11241 14.6332 5.36657C14.8868 5.62072 15.0137 5.92701 15.0137 6.28544C15.0137 6.64386 14.8836 6.94689 14.6234 7.19453L11.8332 9.99022Z"
        fill="#ED5251" />
    <path
        d="M28.5227 16H29.9773L32.5455 6.72727H32.6364L35.2045 16H36.6591L39.8409 4.36364H38.4091L35.9773 13.8409H35.8636L33.3864 4.36364H31.7955L29.3182 13.8409H29.2045L26.7727 4.36364H25.3409L28.5227 16ZM40.8679 16H42.2088V10.4773C42.2088 9.29545 43.1406 8.43182 44.4134 8.43182C44.7713 8.43182 45.1406 8.5 45.2315 8.52273V7.15909C45.0781 7.14773 44.7259 7.13636 44.527 7.13636C43.4815 7.13636 42.5724 7.72727 42.2543 8.59091H42.1634V7.27273H40.8679V16ZM50.1009 16.1818C52.4645 16.1818 54.0554 14.3864 54.0554 11.6818C54.0554 8.95455 52.4645 7.15909 50.1009 7.15909C47.7372 7.15909 46.1463 8.95455 46.1463 11.6818C46.1463 14.3864 47.7372 16.1818 50.1009 16.1818ZM50.1009 14.9773C48.3054 14.9773 47.4872 13.4318 47.4872 11.6818C47.4872 9.93182 48.3054 8.36364 50.1009 8.36364C51.8963 8.36364 52.7145 9.93182 52.7145 11.6818C52.7145 13.4318 51.8963 14.9773 50.1009 14.9773ZM57.4432 10.75C57.4432 9.22727 58.3864 8.36364 59.6705 8.36364C60.9148 8.36364 61.6705 9.17614 61.6705 10.5455V16H63.0114V10.4545C63.0114 8.22727 61.8239 7.15909 60.0568 7.15909C58.7386 7.15909 57.9205 7.75 57.5114 8.63636H57.3977V7.27273H56.1023V16H57.4432V10.75ZM68.9844 19.4545C71.0753 19.4545 72.7571 18.5 72.7571 16.25V7.27273H71.4616V8.65909H71.3253C71.0298 8.20455 70.4844 7.15909 68.7798 7.15909C66.5753 7.15909 65.0526 8.90909 65.0526 11.5909C65.0526 14.3182 66.6435 15.8636 68.7571 15.8636C70.4616 15.8636 71.0071 14.8636 71.3026 14.3864H71.4162V16.1591C71.4162 17.6136 70.3935 18.2727 68.9844 18.2727C67.3991 18.2727 66.8423 17.4375 66.4844 16.9545L65.4162 17.7045C65.9616 18.6193 67.0355 19.4545 68.9844 19.4545ZM68.9389 14.6591C67.2571 14.6591 66.3935 13.3864 66.3935 11.5682C66.3935 9.79545 67.2344 8.36364 68.9389 8.36364C70.5753 8.36364 71.4389 9.68182 71.4389 11.5682C71.4389 13.5 70.5526 14.6591 68.9389 14.6591Z"
        fill="#ED5251" />
</svg>