<svg width="41" height="45" viewBox="0 0 41 45" fill="none"
  xmlns="http://www.w3.org/2000/svg">
  <path d="M19.798 0.096267C19.9419 0.0347777 20.1047 0.0347783 20.2486 0.0962677L38.8127 8.02867C39.2768 8.22698 39.2768 8.88486 38.8127 9.08317L20.2486 17.0156C20.1047 17.0771 19.9419 17.0771 19.798 17.0156L1.23392 9.08317C0.769821 8.88486 0.769823 8.22698 1.23392 8.02867L19.798 0.096267Z" fill="#183965"/>
  <path d="M4.74438 12.4436C4.74438 12.1305 5.06349 11.9188 5.3519 12.0404L9.78239 13.9088V34.7596L12.3999 35.8839V41.3011L9.8809 40.217L5.54111 38.3622C5.05786 38.1557 4.74438 37.6808 4.74438 37.1553V12.4436Z" fill="#9647CE"/>
  <path d="M13.2076 15.3969L18.2546 17.5473V38.4221L20.025 39.1794V18.1984L21.6909 17.597L28.2855 14.7506V35.6013L30.2712 34.7596V13.9289L34.6911 12.0414C34.9797 11.9181 35.3004 12.1299 35.3004 12.4437V37.1549C35.3004 37.6806 34.9867 38.1556 34.5032 38.362L24.9355 42.4461V20.7398L23.4594 21.3648V43.0881L20.1967 44.4788C20.0871 44.5255 19.963 44.5255 19.8534 44.4787L13.2076 41.6414V15.3969Z" fill="#9647CE"/>
  <path d="M1.06581 15.8062C1.56938 16.0982 2.18926 16.1046 2.69875 15.823L2.72918 15.8062L3.16669 25.0225C2.38833 24.5436 1.40666 24.5436 0.628296 25.0225L1.06581 15.8062Z" fill="#183965"/>
  <circle cx="1.89747" cy="14.8077" r="0.8957" fill="#183965"/>
  <path d="M1.44965 10.3776L2.34535 10.7509V13.1029C2.34535 13.3502 2.14484 13.5507 1.8975 13.5507C1.65016 13.5507 1.44965 13.3502 1.44965 13.1029L1.44965 10.3776Z" fill="#183965"/>
</svg>
