<svg width="80" height="77" viewBox="0 0 80 77" fill="none" xmlns="http://www.w3.org/2000/svg">
<circle cx="42.5" cy="39.5" r="37.5" transform="rotate(-180 42.5 39.5)" fill="#9647CE"/>
<circle cx="37.5" cy="37.5001" r="37.5" transform="rotate(-180 37.5 37.5001)" fill="white"/>
<path d="M57.1458 22.0001H27.9243C26.3506 22.0001 25.0701 23.2618 25.0701 24.8125V27.6179C24.2592 27.9051 23.6762 28.6683 23.6762 29.5651V32.3841H18.7143C17.7692 32.3841 17 33.1417 17 34.0733V52.3109C17 53.2422 17.7688 54.0001 18.7143 54.0001H52.2795C52.4764 54.0001 52.6363 53.8426 52.6363 53.6486V52.5756C52.6363 51.7351 51.9424 51.0513 51.0893 51.0513H47.9066L46.4156 47.4916H57.1458C58.7196 47.4916 60 46.2299 60 44.6792V24.8125C60 23.2618 58.7196 22.0001 57.1458 22.0001V22.0001Z" fill="#E6E7E8"/>
<path d="M55.5184 21.0001H26.4816C25.111 21.0001 24 22.1113 24 23.482V26.5765C24.1127 26.5534 24.229 26.5414 24.3485 26.5414H37.3084C38.2656 26.5414 39.042 27.3175 39.042 28.2751V46.0001H55.5184C56.889 46.0001 58 44.889 58 43.5183V23.482C58 22.1113 56.889 21.0001 55.5184 21.0001V21.0001Z" fill="#AAC9FA"/>
<path d="M55.5184 21.0001H26.4816C25.111 21.0001 24 21.9403 24 23.1001V24.0001C24 22.8403 25.111 21.9001 26.4816 21.9001H55.5184C56.889 21.9001 58 22.8403 58 24.0001V23.1001C58 21.9403 56.889 21.0001 55.5184 21.0001Z" fill="white"/>
<path d="M39 50.0001H46L44.2406 46.0001H39V50.0001Z" fill="#183965"/>
<path d="M48.8508 50.0001H38.6851V50.4691C38.6851 51.3148 37.9308 52.0001 37 52.0001H50V51.0446C50.0003 50.4676 49.4855 50.0001 48.8508 50.0001V50.0001Z" fill="#AAC9FA"/>
<path d="M54.2091 23.0001H27.7909C26.802 23.0001 26 23.7876 26 24.7586V26.3602H37.2703C38.2374 26.3602 39.0218 27.1301 39.0218 28.08V42.0001H54.2091C55.198 42.0001 56 41.2127 56 40.2416V24.7586C56 23.7876 55.1984 23.0001 54.2091 23.0001V23.0001Z" fill="#D4FBFF"/>
<path d="M52.305 25.0001H29.6947C29.3109 25.0001 29 25.2939 29 25.6565V25.9848H37.3833C38.3212 25.9848 39.0818 26.7032 39.0818 27.5897V31.0001H52.3053C52.6891 31.0001 53 30.7064 53 30.3437V25.6569C52.9997 25.2939 52.6888 25.0001 52.305 25.0001V25.0001Z" fill="#FFD7E5"/>
<path d="M43.3337 33.0001H39V39.0001H43.3337C43.7018 39.0001 44 38.713 44 38.3585V33.6418C44 33.2873 43.7015 33.0001 43.3337 33.0001V33.0001Z" fill="#FA759E"/>
<path d="M46 38.3585V33.6418C46 33.2873 46.3302 33.0001 46.7379 33.0001H52.2621C52.6698 33.0001 53 33.2873 53 33.6418V38.3585C53 38.713 52.6698 39.0001 52.2621 39.0001H46.7379C46.3306 39.0001 46 38.713 46 38.3585Z" fill="#FA759E"/>
<path d="M41 45.0001C41.5523 45.0001 42 44.5524 42 44.0001C42 43.4478 41.5523 43.0001 41 43.0001C40.4477 43.0001 40 43.4478 40 44.0001C40 44.5524 40.4477 45.0001 41 45.0001Z" fill="#183965"/>
<path d="M38.2056 27.0001H24.794C23.8034 27.0001 23 27.7755 23 28.7323V31.9272H26.8962C27.6669 31.9272 28.2921 32.5304 28.2921 33.275V51.6523C28.2921 52.3965 27.6673 53.0001 26.8962 53.0001H38.206C39.1966 53.0001 40 52.2247 40 51.2679V28.732C39.9996 27.7755 39.1966 27.0001 38.2056 27.0001V27.0001Z" fill="#AAC9FA"/>
<path d="M23 29.0001V31.4609H26.8962C27.667 31.4609 28.2922 32.0638 28.2922 32.8081V49.0001H40V29.0001H23Z" fill="#D4FBFF"/>
<path d="M30.4207 41.0001H29V47.0001H30.4207C30.7405 47.0001 31 46.7023 31 46.3345V41.6653C31 41.2983 30.7405 41.0001 30.4207 41.0001Z" fill="#FA759E"/>
<path d="M38.3065 32.0001H25.3341C25.2125 32.0001 25.0997 32.0324 25 32.0849H27.2228C27.9925 32.0849 28.6168 32.6764 28.6168 33.4065V40.0001H38.3065C38.6893 40.0001 39 39.7059 39 39.3426V32.6573C38.9996 32.2943 38.6893 32.0001 38.3065 32.0001V32.0001Z" fill="#FFD7E5"/>
<path d="M32 46.3346V41.6657C32 41.2983 32.2923 41.0001 32.6532 41.0001H37.3468C37.7074 41.0001 38 41.2979 38 41.6657V46.3346C38 46.702 37.7077 47.0001 37.3468 47.0001H32.6532C32.2926 47.0001 32 46.702 32 46.3346Z" fill="#FA759E"/>
<path d="M33.7207 29.0001H29.2793C29.1258 29.0001 29 28.7881 29 28.5292V28.4711C29 28.2121 29.1258 28.0001 29.2793 28.0001H33.7207C33.8742 28.0001 34 28.2121 34 28.4711V28.5292C34 28.7881 33.8742 29.0001 33.7207 29.0001V29.0001Z" fill="#183965"/>
<path d="M34.5 29.0001C34.7761 29.0001 35 28.7763 35 28.5001C35 28.224 34.7761 28.0001 34.5 28.0001C34.2239 28.0001 34 28.224 34 28.5001C34 28.7763 34.2239 29.0001 34.5 29.0001Z" fill="#183965"/>
<path d="M32.3721 52.0001H29.6279C29.2828 52.0001 29 51.7883 29 51.5292V51.471C29 51.2122 29.2824 51.0001 29.6279 51.0001H32.3721C32.7172 51.0001 33 51.2119 33 51.471V51.5292C33 51.7883 32.7176 52.0001 32.3721 52.0001Z" fill="#183965"/>
<path d="M26.6221 53.0001H17.3779C16.6171 53.0001 16 52.399 16 51.6569V33.3433C16 32.6016 16.6167 32.0001 17.3779 32.0001H26.6221C27.3829 32.0001 28 32.6013 28 33.3433V51.6569C28 52.3986 27.3829 53.0001 26.6221 53.0001Z" fill="#AAC9FA"/>
<path d="M28 34.0001V50.0001H16V34.0001H28Z" fill="#D4FBFF"/>
<path d="M18 39.2746V35.7257C18 35.3248 18.3094 35.0001 18.6915 35.0001H25.3085C25.6906 35.0001 26 35.3248 26 35.7257V39.2746C26 39.6754 25.6906 40.0001 25.3085 40.0001H18.6915C18.3098 40.0001 18 39.6754 18 39.2746V39.2746Z" fill="#FFD7E5"/>
<path d="M18 47.2921V41.7078C18 41.3168 18.3094 41.0001 18.6915 41.0001H25.3085C25.6906 41.0001 26 41.3168 26 41.7078V47.2924C26 47.6834 25.6906 48.0001 25.3085 48.0001H18.6915C18.3098 47.9998 18 47.6831 18 47.2921V47.2921Z" fill="#FA759E"/>
<path d="M23.7854 33.4285H20.2146C20.0967 33.4285 20 33.3413 20 33.2349V33.1937C20 33.0873 20.0967 33.0001 20.2146 33.0001H23.7854C23.9033 33.0001 24 33.0873 24 33.1937V33.2349C24 33.3416 23.9033 33.4285 23.7854 33.4285Z" fill="#183965"/>
<path d="M25.2497 33.4696C25.3876 33.4696 25.4994 33.3645 25.4994 33.2349C25.4994 33.1052 25.3876 33.0001 25.2497 33.0001C25.1118 33.0001 25 33.1052 25 33.2349C25 33.3645 25.1118 33.4696 25.2497 33.4696Z" fill="#183965"/>
<path d="M23.0792 52H20.7612C20.4862 52 20.261 51.7883 20.261 51.5291V51.4292C20.261 51.1704 20.4858 50.9584 20.7612 50.9584H23.0792C23.3542 50.9584 23.5794 51.1701 23.5794 51.4292V51.5291C23.5794 51.7883 23.3542 52 23.0792 52Z" fill="#183965"/>
<path d="M56.1455 21.0001H26.9242C25.3505 21.0001 24.0701 22.2618 24.0701 23.8125V26.6175C23.2591 26.9047 22.6762 27.6679 22.6762 28.5647V31.3838H17.7143C16.7692 31.3838 16 32.1414 16 33.073V51.3109C16 52.2422 16.7692 53.0001 17.7143 53.0001H51.2792C51.4761 53.0001 51.636 52.8426 51.636 52.6486V51.5756C51.636 50.7351 50.9421 50.0513 50.089 50.0513H46.906L45.4154 46.4916H56.1459C57.7196 46.4916 59 45.2299 59 43.6792V23.8125C58.9996 22.2618 57.7192 21.0001 56.1455 21.0001V21.0001ZM24.7775 27.1976H37.8202C38.5855 27.1976 39.208 27.811 39.208 28.5651V28.9409H23.3897V28.5651C23.3897 27.811 24.0123 27.1976 24.7775 27.1976V27.1976ZM37.8202 52.297H28.2075C28.4119 52.019 28.5361 51.6801 28.5361 51.3109V49.5019H39.208V50.9299C39.2077 51.6836 38.5851 52.297 37.8202 52.297V52.297ZM16.7135 34.0696H27.8225V49.4614H16.7135V34.0696ZM23.3897 29.644H39.2077V48.7988H28.5361V33.073C28.5361 32.1417 27.7672 31.3838 26.8218 31.3838H23.3897V29.644ZM17.7143 32.0869H26.8218C27.3734 32.0869 27.8225 32.5291 27.8225 33.073V33.3665H16.7135V33.073C16.7135 32.5295 17.1623 32.0869 17.7143 32.0869V32.0869ZM16.7135 51.3109V50.1645H27.8225V51.3109C27.8225 51.8544 27.3737 52.297 26.8218 52.297H17.7143C17.1623 52.297 16.7135 51.8544 16.7135 51.3109V51.3109ZM50.9224 51.5753V52.2967H39.3935C39.7207 51.9314 39.9212 51.4537 39.9212 50.9292V50.7537H46.6673H50.089C50.5486 50.7541 50.9224 51.1225 50.9224 51.5753V51.5753ZM46.1339 50.051H39.9212V46.4912H44.6434L46.1339 50.051ZM58.2861 43.6788C58.2861 44.8421 57.3261 45.7881 56.1455 45.7881H44.882H39.9212V42.8305H54.692C55.8726 42.8305 56.8326 41.8845 56.8326 40.7213V35.6976C56.8326 35.5036 56.6728 35.3461 56.4759 35.3461C56.2789 35.3461 56.1191 35.5036 56.1191 35.6976V40.7213C56.1191 41.4968 55.4791 42.1274 54.692 42.1274H39.9212V28.5647C39.9212 27.4229 38.9786 26.4941 37.8198 26.4941H26.9506V25.2444C26.9506 24.4688 27.5906 23.8382 28.3777 23.8382H54.692C55.4791 23.8382 56.1191 24.4688 56.1191 25.2444V29.6436C56.1191 29.8377 56.2789 29.9952 56.4759 29.9952C56.6728 29.9952 56.8326 29.8377 56.8326 29.6436V25.2447C56.8326 24.0814 55.8726 23.1354 54.692 23.1354H28.3777C27.1971 23.1354 26.2371 24.0814 26.2371 25.2447V26.4945H24.7836V23.8129C24.7836 22.6496 25.7437 21.7036 26.9242 21.7036H56.1455C57.3261 21.7036 58.2861 22.6496 58.2861 23.8129V43.6788Z" fill="#3A2C60"/>
<path d="M56.4772 30.5415C56.2803 30.5415 56.1205 30.699 56.1205 30.8931V34.3206C56.1205 34.5147 56.2803 34.6722 56.4772 34.6722C56.6742 34.6722 56.834 34.5147 56.834 34.3206V30.8931C56.834 30.699 56.6742 30.5415 56.4772 30.5415Z" fill="#3A2C60"/>
</svg>
