<svg width="105" height="105" viewBox="0 0 101 105" fill="none"
  xmlns="http://www.w3.org/2000/svg">
  <circle cx="51" cy="55" r="50" fill="#9647CE"/>
  <circle cx="50" cy="50" r="50" fill="white"/>
  <g clip-path="url(#clip0)">
    <path d="M23.9999 44.8437H78L79.6312 39.5562C80.2218 37.6156 79.1531 35.5906 77.2125 35C77.1281 34.9718 77.0437 34.9437 76.9593 34.9437L70.6875 33.4812C70.6031 33.4531 70.5468 33.3968 70.5468 33.3406L69.1124 27.0406C68.6624 25.0718 66.6937 23.8343 64.725 24.2843C64.6406 24.3125 64.5562 24.3406 64.4718 24.3406L58.3125 26.2531C58.2281 26.2812 58.1437 26.2531 58.1156 26.1968L53.7281 21.4718C52.3499 19.9812 50.0437 19.8968 48.5531 21.275C48.4968 21.3312 48.4406 21.3875 48.3562 21.4718L43.9687 26.1968C43.9124 26.2531 43.8281 26.2812 43.7718 26.2531L37.6124 24.3406C35.6718 23.75 33.6468 24.8187 33.0562 26.7593C33.0281 26.8437 32.9999 26.9281 32.9999 27.0125L31.5656 33.3125C31.5374 33.3968 31.4812 33.4531 31.4249 33.4531L25.1249 34.8875C23.1562 35.3375 21.9187 37.3062 22.3687 39.275C22.3968 39.3593 22.4249 39.4437 22.4249 39.5281L23.9999 44.8437Z" fill="#8DACDC"/>
    <path d="M78.028 61.1562H23.9999L22.3687 66.4438C21.778 68.3844 22.8468 70.4094 24.7874 71C24.8718 71.0281 24.9562 71.0562 25.0405 71.0562L31.3405 72.4906C31.4249 72.5188 31.4812 72.575 31.4812 72.6313L32.9155 78.9312C33.3655 80.9 35.3343 82.1375 37.303 81.6875C37.3874 81.6594 37.4718 81.6313 37.5562 81.6313L43.7155 79.7188C43.7999 79.6906 43.8843 79.7188 43.9124 79.775L48.2999 84.5C49.678 85.9906 51.9843 86.075 53.4749 84.6969C53.5312 84.6406 53.6155 84.5844 53.6718 84.5L58.0593 79.775C58.1155 79.7188 58.1999 79.6906 58.2562 79.7188L64.4155 81.6313C66.3562 82.2219 68.3812 81.1531 68.9718 79.2125C68.9999 79.1281 69.028 79.0438 69.028 78.9594L70.4624 72.6594C70.4905 72.575 70.5468 72.5187 70.603 72.5187L76.903 71.0844C78.8718 70.6344 80.1093 68.6656 79.6593 66.6969C79.6312 66.6125 79.603 66.5281 79.603 66.4438L78.028 61.1562Z" fill="#8DACDC"/>
    <path d="M27.5719 44.7031C27.6 44.7593 27.6 44.7875 27.6 44.8437H74.4C74.4 44.7875 74.4281 44.7593 74.4281 44.7031L76.3406 38.5437C76.3687 38.4312 76.3125 38.3187 76.2 38.2906C76.2 38.2906 76.2 38.2906 76.1719 38.2906L69.8719 36.8562C68.4937 36.5468 67.425 35.4781 67.1156 34.1L65.6812 27.8C65.6531 27.6875 65.5406 27.6312 65.4281 27.6593C65.4281 27.6593 65.4281 27.6593 65.4 27.6593L59.2406 29.5718C57.8906 29.9656 56.4562 29.6 55.5 28.5593L51.1125 23.8343C51.0281 23.75 50.9156 23.75 50.8312 23.8343L46.4437 28.5593C45.4875 29.5718 44.025 29.9656 42.7031 29.5718L36.5437 27.6593C36.4312 27.6312 36.3187 27.6875 36.2906 27.8C36.2906 27.8 36.2906 27.8 36.2906 27.8281L34.8562 34.1281C34.5469 35.5062 33.4781 36.575 32.1 36.8843L25.8 38.3187C25.6875 38.3468 25.6312 38.4593 25.6594 38.5718C25.6594 38.5718 25.6594 38.5718 25.6594 38.6L27.5719 44.7031Z" fill="#AAC9FA"/>
    <path d="M74.4563 61.2969C74.4282 61.2406 74.4282 61.2125 74.4282 61.1562H27.6282C27.6282 61.2125 27.6001 61.2406 27.6001 61.2969L25.6876 67.4563C25.6595 67.5688 25.7157 67.6813 25.8282 67.7094C25.8282 67.7094 25.8282 67.7094 25.8563 67.7094L32.1563 69.1438C33.5345 69.4531 34.6032 70.5219 34.9126 71.9L36.347 78.2C36.3751 78.3125 36.4876 78.3688 36.6001 78.3406C36.6001 78.3406 36.6001 78.3406 36.6282 78.3406L42.7876 76.4281C44.1376 76.0063 45.572 76.4 46.5282 77.4406L50.9157 82.1656C51.0001 82.25 51.1126 82.25 51.197 82.1656L55.5845 77.4406C56.5407 76.4281 58.0032 76.0344 59.3251 76.4281L65.4845 78.3406C65.597 78.3688 65.7095 78.3125 65.7376 78.2C65.7376 78.2 65.7376 78.2 65.7376 78.1719L67.172 71.8719C67.4813 70.4938 68.5501 69.425 69.9282 69.1156L76.2282 67.6813C76.3407 67.6531 76.397 67.5406 76.3688 67.4281C76.3688 67.4281 76.3688 67.4281 76.3688 67.4L74.4563 61.2969Z" fill="#AAC9FA"/>
    <path d="M17.25 44.8438H84.7782C85.6219 44.8438 86.2969 45.5188 86.2969 46.3625V59.6094C86.2969 60.4531 85.6219 61.1281 84.7782 61.1281H17.25C16.4063 61.1281 15.7313 60.4531 15.7313 59.6094V46.3625C15.7313 45.5188 16.4063 44.8438 17.25 44.8438Z" fill="#FCD770"/>
    <path d="M17.25 44.8437L22.875 41.1594L24 44.8437H17.25Z" fill="#FFCD29"/>
    <path d="M84.7782 44.8437L79.1532 41.1594L78.0282 44.8437H84.7782Z" fill="#FFCD29"/>
    <path d="M25.2376 75.7532H24.7314V75.2469C24.7314 74.8532 24.422 74.5438 24.0283 74.5438C23.6345 74.5438 23.3251 74.8532 23.3251 75.2469V75.7532H22.8189C22.4251 75.7532 22.1158 76.0626 22.1158 76.4563C22.1158 76.8501 22.4251 77.1594 22.8189 77.1594H23.3251V77.6657C23.3251 78.0594 23.6345 78.3688 24.0283 78.3688C24.422 78.3688 24.7314 78.0594 24.7314 77.6657V77.1594H25.2376C25.6314 77.1594 25.9408 76.8501 25.9408 76.4563C25.9408 76.0626 25.6314 75.7532 25.2376 75.7532Z" fill="#60BAE2"/>
    <path d="M77.0438 28.3906C77.0438 28.3344 77.0157 28.3062 77.0157 28.25C76.9875 28.2219 76.9875 28.1656 76.9594 28.1375C76.9313 28.1094 76.9032 28.0531 76.875 28.025C76.5938 27.7719 76.1719 27.7719 75.8907 28.025C75.8625 28.0531 75.8344 28.0812 75.8063 28.1375C75.75 28.2219 75.7219 28.3062 75.6938 28.3906C75.6657 28.475 75.6657 28.5875 75.6938 28.6719C75.6938 28.7281 75.7219 28.7562 75.7219 28.8125C75.75 28.8687 75.75 28.8969 75.7782 28.925C75.8063 28.9531 75.8344 29.0094 75.8625 29.0375C76.1438 29.3187 76.5657 29.3187 76.8469 29.0375C76.875 29.0094 76.9032 28.9812 76.9313 28.925C76.9594 28.8969 76.9875 28.8406 76.9875 28.8125C77.0157 28.7844 77.0157 28.7281 77.0157 28.6719C77.0719 28.5594 77.0719 28.475 77.0438 28.3906Z" fill="#F45D64"/>
    <path d="M29.2595 81.3782C29.2595 81.3219 29.2313 81.2938 29.2313 81.2375C29.2032 81.2094 29.2032 81.1532 29.1751 81.125C29.147 81.0969 29.1188 81.0407 29.0907 81.0125C28.8095 80.7594 28.3876 80.7594 28.1063 81.0125C28.0782 81.0407 28.0501 81.0688 28.022 81.125C27.9657 81.2094 27.9376 81.2938 27.9095 81.3782C27.8813 81.4625 27.8813 81.575 27.9095 81.6594C27.9095 81.7157 27.9376 81.7438 27.9376 81.8C27.9657 81.8563 27.9657 81.8844 27.9938 81.9125C28.022 81.9407 28.0501 81.9969 28.0782 82.025C28.3595 82.3063 28.7813 82.3063 29.0626 82.025C29.0907 81.9969 29.1188 81.9688 29.147 81.9125C29.1751 81.8844 29.2032 81.8282 29.2032 81.8C29.2313 81.7719 29.2313 81.7157 29.2313 81.6594C29.2876 81.575 29.2876 81.4907 29.2595 81.3782Z" fill="#6DCC6D"/>
    <path d="M75.4126 21.6969C74.2594 21.4719 73.3876 20.5719 73.1626 19.4469C73.1626 19.4187 73.1344 19.3906 73.1063 19.3906C73.0782 19.3906 73.0782 19.4187 73.0501 19.4469C72.8251 20.6 71.9251 21.4719 70.8001 21.6969C70.7719 21.6969 70.7438 21.725 70.7438 21.7531C70.7438 21.7812 70.7719 21.7812 70.8001 21.8094C71.9532 22.0344 72.8251 22.9344 73.0501 24.0594C73.0501 24.0875 73.0782 24.1156 73.1063 24.1156C73.1344 24.1156 73.1344 24.0875 73.1626 24.0594C73.3876 22.9063 74.2876 22.0344 75.4126 21.8094C75.4407 21.8094 75.4688 21.7812 75.4688 21.7531C75.4688 21.6969 75.4407 21.6969 75.4126 21.6969Z" fill="#FFCD29"/>
    <path d="M84.7782 61.8594H17.25C16.0125 61.8594 15.0282 60.875 15.0282 59.6375V46.3906C15.0282 45.1531 16.0125 44.1688 17.25 44.1688H84.7782C86.0157 44.1688 87 45.1531 87 46.3906V59.6375C87 60.8469 86.0157 61.8594 84.7782 61.8594ZM17.25 45.5469C16.8 45.5469 16.4344 45.9125 16.4344 46.3625V59.6094C16.4344 60.0594 16.8 60.425 17.25 60.425H84.7782C85.2282 60.425 85.5938 60.0594 85.5938 59.6094V46.3625C85.5938 45.9125 85.2282 45.5469 84.7782 45.5469H17.25Z" fill="#231F20"/>
    <path d="M78.0283 45.5468H24.0001C23.6908 45.5468 23.4095 45.35 23.3251 45.0406L21.6939 39.7531C20.9908 37.4468 22.2845 35 24.5908 34.2968C24.7033 34.2687 24.7876 34.2406 24.9001 34.2125L30.8908 32.8625L32.2408 26.8718C32.7751 24.5375 35.1095 23.0468 37.472 23.5812C37.5845 23.6093 37.6689 23.6375 37.7814 23.6656L43.6314 25.4656L47.822 20.9656C49.4533 19.1937 52.2095 19.1093 53.9814 20.7406C54.0658 20.825 54.122 20.8812 54.2064 20.9656L58.397 25.4656L64.2751 23.6656C66.5814 22.9625 69.0283 24.2562 69.7314 26.5625C69.7595 26.675 69.7876 26.7593 69.8158 26.8718L71.1658 32.8625L77.1564 34.2125C79.4908 34.7468 80.9814 37.0812 80.447 39.4437C80.4189 39.5562 80.3908 39.6406 80.3626 39.7531L78.7314 45.0406C78.5908 45.35 78.3376 45.5468 78.0283 45.5468ZM24.5345 44.1406H77.4939L78.9845 39.3312C79.4626 37.7843 78.5908 36.125 77.0158 35.6468C76.9595 35.6187 76.8751 35.6187 76.8189 35.5906L70.5189 34.1562C70.1814 34.0718 69.9283 33.8187 69.8439 33.4812L68.4095 27.1812C68.0439 25.5781 66.4689 24.5937 64.8658 24.9593C64.7814 24.9875 64.7251 24.9875 64.6689 25.0156L58.5095 26.9281C58.172 27.0406 57.8064 26.9281 57.5814 26.675L53.1939 21.95C52.0689 20.7687 50.2126 20.6843 49.0314 21.8093C48.9751 21.8656 48.9189 21.8937 48.8908 21.95L44.5033 26.675C44.2783 26.9281 43.9126 27.0125 43.5751 26.9281L37.4158 25.0156C35.8689 24.5375 34.2095 25.4093 33.7314 26.9843C33.7033 27.0406 33.7033 27.125 33.6751 27.1812L32.2408 33.4812C32.1564 33.8187 31.9033 34.0718 31.5658 34.1562L25.2658 35.5906C23.6626 35.9562 22.6783 37.5312 23.0439 39.1343C23.072 39.2187 23.072 39.275 23.1001 39.3312L24.5345 44.1406Z" fill="#231F20"/>
    <path d="M51.0282 86.3843C49.8189 86.3843 48.6657 85.8781 47.8501 85.0062L43.6595 80.5062L37.7813 82.3062C35.4751 83.0093 33.0282 81.7156 32.3251 79.4093C32.297 79.2968 32.2688 79.2124 32.2407 79.0999L30.8907 73.1093L24.9001 71.7593C22.5657 71.2249 21.0751 68.8906 21.6095 66.5281C21.6376 66.4156 21.6657 66.3312 21.6938 66.2187L23.3251 60.9312C23.4095 60.6499 23.6907 60.4249 24.0001 60.4249H78.0001C78.3095 60.4249 78.5907 60.6218 78.6751 60.9312L80.3064 66.2187C81.0095 68.5249 79.7157 70.9718 77.4095 71.6749C77.297 71.7031 77.2126 71.7312 77.1001 71.7593L71.1095 73.1093L69.7595 79.0999C69.2251 81.4343 66.8907 82.9249 64.5282 82.3906C64.4157 82.3624 64.3314 82.3343 64.2189 82.3062L58.3407 80.5062L54.1501 85.0062C53.3907 85.8781 52.2376 86.3843 51.0282 86.3843ZM43.8001 79.0156C44.0532 79.0156 44.3063 79.1281 44.4751 79.2968L48.8626 84.0218C49.4251 84.6124 50.2126 84.9781 51.0282 84.9499C51.8439 84.9499 52.6314 84.6124 53.1939 84.0218L57.5813 79.2968C57.8064 79.0437 58.172 78.9593 58.5095 79.0437L64.6689 80.9562C66.2157 81.4343 67.8751 80.5624 68.3532 78.9874C68.3814 78.9312 68.3814 78.8468 68.4095 78.7906L69.8439 72.4906C69.9282 72.1531 70.1814 71.8999 70.5189 71.8156L76.8189 70.3812C78.422 70.0156 79.4064 68.4406 79.0407 66.8374C79.0126 66.7531 79.0126 66.6968 78.9845 66.6406L77.4939 61.8593H24.5345L23.0438 66.6406C22.5657 68.1874 23.4376 69.8468 25.0126 70.3249C25.0688 70.3531 25.1532 70.3531 25.2095 70.3812L31.5095 71.8156C31.847 71.8999 32.1001 72.1531 32.1845 72.4906L33.6188 78.7906C33.9845 80.3937 35.5595 81.3781 37.1626 81.0124C37.2188 80.9843 37.3032 80.9843 37.3595 80.9562L43.5188 79.0437C43.6313 79.0437 43.7157 79.0156 43.8001 79.0156Z" fill="#231F20"/>
    <path d="M74.4001 45.5469H27.6282C27.3188 45.5469 27.0376 45.3219 26.9532 45.0125V44.9563C26.9532 44.9281 26.9532 44.9 26.9251 44.8719L25.0126 38.7125C24.8719 38.2344 25.1251 37.7281 25.6032 37.5875C25.6313 37.5875 25.6594 37.5875 25.6594 37.5594L31.9594 36.125C33.0563 35.8719 33.9282 35 34.1813 33.9031L35.6157 27.6031C35.7282 27.125 36.2063 26.8156 36.6844 26.9281C36.7126 26.9281 36.7407 26.9281 36.7407 26.9563L42.9001 28.8688C43.9688 29.2063 45.1501 28.8969 45.9376 28.0531L50.3251 23.3281C50.4938 23.1313 50.7469 23.0469 51.0001 23.0469C51.2532 23.0469 51.4782 23.1594 51.6751 23.3281L56.0626 28.0813C56.8219 28.8969 58.0032 29.2344 59.1001 28.8969L65.2594 26.9844C65.7376 26.8438 66.2438 27.0969 66.3844 27.575C66.3844 27.6031 66.3844 27.6312 66.4126 27.6312L67.8469 33.9313C68.1001 35.0281 68.9719 35.9 70.0688 36.1531L76.3688 37.5875C76.8469 37.7 77.1563 38.1781 77.0438 38.6562C77.0438 38.6844 77.0438 38.7125 77.0157 38.7125L75.1032 44.8719C75.1032 44.9 75.1032 44.9281 75.0751 44.9563V45.0125C75.0188 45.35 74.7376 45.5469 74.4001 45.5469ZM28.1344 44.1406H73.8657L75.4969 38.8531L69.7594 37.5312C68.1282 37.1656 66.8626 35.8719 66.4688 34.2406L65.1469 28.475L59.4938 30.2188C57.8907 30.6969 56.1469 30.2469 55.0219 29.0094L51.0001 24.6781L46.9782 29.0094C45.8251 30.2188 44.1094 30.6969 42.5063 30.2188L36.8532 28.475L35.5313 34.2406C35.1657 35.8719 33.8719 37.1375 32.2407 37.5312L26.4751 38.8531L28.1344 44.1406Z" fill="#231F20"/>
    <path d="M51.0281 82.9251C50.775 82.9251 50.55 82.8126 50.3531 82.6438L45.9656 77.9188C45.2063 77.1032 44.025 76.7657 42.9281 77.1032L36.7688 79.0157C36.2906 79.1563 35.7844 78.9032 35.6438 78.4251C35.6438 78.3969 35.6438 78.3688 35.6156 78.3688L34.1813 72.0688C33.9281 70.9719 33.0563 70.1001 31.9594 69.8469L25.6594 68.4126C25.1813 68.3001 24.8719 67.8219 24.9844 67.3438C24.9844 67.3157 24.9844 67.2876 25.0125 67.2876L26.925 61.1282C26.925 61.1001 26.925 61.0719 26.9531 61.0719V61.0157C27.0375 60.7063 27.3188 60.4813 27.6281 60.4813H74.4281C74.7375 60.4813 75.0188 60.7063 75.1031 61.0157V61.0719C75.1031 61.1001 75.1031 61.1282 75.1313 61.1282L77.0438 67.2876C77.1844 67.7657 76.9313 68.2719 76.4531 68.4126C76.425 68.4126 76.3969 68.4126 76.3969 68.4407L70.0969 69.8751C69 70.1282 68.1281 71.0001 67.875 72.0969L66.4406 78.3969C66.3281 78.8751 65.85 79.1844 65.3719 79.0719C65.3438 79.0719 65.3156 79.0719 65.3156 79.0438L59.1563 77.1313C58.0875 76.7938 56.9063 77.1032 56.1188 77.9469L51.7313 82.6719C51.5063 82.8407 51.2813 82.9251 51.0281 82.9251ZM43.8 75.5844C45.0094 75.5844 46.1625 76.0907 47.0063 76.9626L51.0281 81.2938L55.05 76.9626C56.2031 75.7532 57.9188 75.2751 59.5219 75.7532L65.175 77.4969L66.4969 71.7313C66.8625 70.1001 68.1563 68.8344 69.7875 68.4407L75.5531 67.1188L73.9219 61.8313H28.1344L26.5031 67.1188L32.2688 68.4407C33.9 68.8063 35.1656 70.1001 35.5594 71.7313L36.8813 77.4969L42.5344 75.7532C42.9281 75.6407 43.35 75.5844 43.8 75.5844Z" fill="#231F20"/>
    <path d="M24 45.5469H17.25C16.8563 45.5469 16.5469 45.2375 16.5469 44.8438C16.5469 44.6188 16.6594 44.3938 16.8562 44.2532L22.4813 40.5688C22.8187 40.3438 23.2406 40.4563 23.4656 40.7657C23.4938 40.8219 23.5219 40.8782 23.55 40.9344L24.675 44.6188C24.7875 44.9844 24.5906 45.3782 24.1969 45.4907C24.1406 45.5469 24.0844 45.5469 24 45.5469ZM19.6125 44.1407H23.0719L22.4813 42.2563L19.6125 44.1407Z" fill="#231F20"/>
    <path d="M84.7782 45.5469H78.0282C77.6344 45.5469 77.325 45.2376 77.325 44.8438C77.325 44.7876 77.325 44.7032 77.3532 44.6469L78.4782 40.9626C78.5907 40.5969 78.9844 40.3719 79.35 40.4844C79.4063 40.5126 79.4625 40.5407 79.5188 40.5688L85.1438 44.2532C85.4813 44.4782 85.5657 44.9001 85.3407 45.2376C85.2282 45.4344 85.0032 45.5469 84.7782 45.5469ZM78.9844 44.1407H82.4438L79.575 42.2563L78.9844 44.1407Z" fill="#231F20"/>
    <path d="M52.0688 73.9531H48.722C48.3282 73.9531 48.0188 73.6437 48.0188 73.25C48.0188 72.8562 48.3282 72.5468 48.722 72.5468H52.0688C52.7157 72.5468 53.2501 72.0125 53.2501 71.3656C53.2501 70.7187 52.7157 70.1843 52.0688 70.1843H49.9876C48.5532 70.1843 47.4001 69.0312 47.4001 67.5968C47.4001 66.1625 48.5532 65.0093 49.9876 65.0093H52.9407C53.3345 65.0093 53.6438 65.3187 53.6438 65.7125C53.6438 66.1062 53.3345 66.4156 52.9407 66.4156H49.9876C49.3407 66.4156 48.8063 66.95 48.8063 67.5968C48.8063 68.2437 49.3407 68.7781 49.9876 68.7781H52.0688C53.5032 68.7781 54.6563 69.9312 54.6563 71.3656C54.6563 72.8 53.5032 73.9531 52.0688 73.9531Z" fill="#183965"/>
    <path d="M51.0282 75.2469C50.6344 75.2469 50.325 74.9376 50.325 74.5438V64.4188C50.325 64.0251 50.6344 63.7157 51.0282 63.7157C51.4219 63.7157 51.7313 64.0251 51.7313 64.4188V74.5438C51.7313 74.9094 51.3938 75.2469 51.0282 75.2469Z" fill="#183965"/>
    <path d="M61.4907 71.4218H59.1001C58.7063 71.4218 58.3969 71.1124 58.3969 70.7187C58.3969 70.3249 58.7063 70.0156 59.1001 70.0156H61.4907C61.8563 70.0156 62.1376 69.7343 62.1376 69.3968C62.1376 69.0312 61.8563 68.7499 61.5188 68.7499H61.4907H60.0001C58.8751 68.7499 57.9469 67.8218 57.9469 66.6968C57.9469 65.5718 58.8751 64.6437 60.0001 64.6437H62.1094C62.5032 64.6437 62.8126 64.9531 62.8126 65.3468C62.8126 65.7406 62.5032 66.0499 62.1094 66.0499H60.0001C59.6344 66.0499 59.3532 66.3312 59.3532 66.6968C59.3532 67.0624 59.6344 67.3437 60.0001 67.3437H61.4907C62.6157 67.3437 63.5438 68.2437 63.5719 69.3687C63.6001 70.4937 62.6719 71.4218 61.5469 71.4499C61.5188 71.4218 61.5188 71.4218 61.4907 71.4218Z" fill="#183965"/>
    <path d="M60.7313 72.3501C60.3375 72.3501 60.0282 72.0407 60.0282 71.6469V64.4188C60.0282 64.0251 60.3375 63.7157 60.7313 63.7157C61.125 63.7157 61.4344 64.0251 61.4344 64.4188V71.6469C61.4344 72.0407 61.125 72.3501 60.7313 72.3501Z" fill="#183965"/>
    <path d="M42.0281 71.4218H39.6375C39.2438 71.4218 38.9344 71.1124 38.9344 70.7187C38.9344 70.3249 39.2438 70.0156 39.6375 70.0156H42.0281C42.3938 70.0156 42.675 69.7062 42.6469 69.3687C42.6469 69.0312 42.3656 68.7499 42.0281 68.7499H40.5375C39.4125 68.7499 38.4844 67.8218 38.4844 66.6968C38.4844 65.5718 39.4125 64.6437 40.5375 64.6437H42.6469C43.0406 64.6437 43.35 64.9531 43.35 65.3468C43.35 65.7406 43.0406 66.0499 42.6469 66.0499H40.5375C40.1719 66.0499 39.8906 66.3312 39.8906 66.6968C39.8906 67.0624 40.1719 67.3437 40.5375 67.3437H42.0281C43.1531 67.3437 44.0813 68.2999 44.0531 69.4249C44.0531 70.5218 43.1531 71.4218 42.0281 71.4218Z" fill="#183965"/>
    <path d="M41.2969 72.3501C40.9031 72.3501 40.5938 72.0407 40.5938 71.6469V64.4188C40.5938 64.0251 40.9031 63.7157 41.2969 63.7157C41.6906 63.7157 42 64.0251 42 64.4188V71.6469C42 72.0407 41.6625 72.3501 41.2969 72.3501Z" fill="#183965"/>
    <path d="M40.3125 35.5344L39.7781 35.8156C39.4688 35.9844 39.075 35.8719 38.9063 35.5625C38.8781 35.5063 38.85 35.45 38.85 35.3938C38.7938 35.1125 38.9344 34.8313 39.1875 34.7188L40.3969 34.1C40.4813 34.0437 40.5938 34.0156 40.6781 34.0156H41.1844C41.5219 34.0156 41.8313 34.2969 41.8313 34.6625V40.7094C41.8313 41.1313 41.4938 41.4688 41.0719 41.4688C40.65 41.4688 40.3125 41.1313 40.3125 40.7094V35.5344Z" fill="#183965"/>
    <path d="M48.9751 37.6719C48.9751 39.9781 48.1314 41.5531 46.4158 41.5531C44.672 41.5531 43.9126 39.8094 43.9126 37.7C43.9126 35.5344 44.7283 33.8469 46.472 33.8469C48.272 33.8469 48.9751 35.6469 48.9751 37.6719ZM45.5158 37.7281C45.5158 39.4437 45.8814 40.2594 46.5001 40.2594C47.1189 40.2594 47.4283 39.4156 47.4283 37.7C47.4283 36.0406 47.1189 35.1687 46.472 35.1687C45.8814 35.1687 45.4876 35.9844 45.5158 37.7281Z" fill="#183965"/>
    <path d="M54.7126 37.6719C54.7126 39.9781 53.8688 41.5531 52.1532 41.5531C50.4095 41.5531 49.6501 39.8094 49.6501 37.7C49.6501 35.5344 50.4657 33.8469 52.2095 33.8469C54.0095 33.8469 54.7126 35.6469 54.7126 37.6719ZM51.2251 37.7281C51.2251 39.4437 51.5907 40.2594 52.2095 40.2594C52.8282 40.2594 53.1376 39.4156 53.1376 37.7C53.1376 36.0406 52.8282 35.1687 52.1813 35.1687C51.6188 35.1687 51.2251 35.9844 51.2251 37.7281Z" fill="#183965"/>
    <path d="M57.1593 38.4593C54.6843 38.4593 54.7406 33.8749 57.2156 33.8749C59.7468 33.8468 59.55 38.4593 57.1593 38.4593ZM57.1875 37.5031C57.6375 37.5031 57.8625 36.9968 57.8625 36.1531C57.8625 35.3937 57.6656 34.8031 57.1875 34.8031C56.2593 34.8031 56.2593 37.5031 57.1875 37.5031ZM61.9968 41.5531C59.5218 41.5531 59.55 36.9687 62.0531 36.9687C64.5562 36.9687 64.3875 41.5531 61.9968 41.5531ZM61.35 39.2468C61.35 40.0343 61.575 40.5968 62.025 40.5968C62.475 40.5968 62.7 40.0906 62.7 39.2468C62.7 38.4874 62.5312 37.8968 62.025 37.8968C61.5468 37.8968 61.35 38.5156 61.35 39.2468Z" fill="#183965"/>
    <path d="M26.5313 49.1469C25.9969 49.1469 25.5188 49.5125 25.3781 50.0188L24.9 51.7063C24.675 52.5782 24.4219 53.5907 24.2531 54.4907H24.225C24.0563 53.5907 23.8594 52.6344 23.6344 51.7344L23.1844 50.075C23.0438 49.5407 22.5656 49.175 22.0031 49.175C21.3563 49.175 20.8219 49.6813 20.7938 50.3282L20.4563 56.15C20.4281 56.5438 20.7375 56.8813 21.1313 56.9094H21.1594C21.5531 56.9094 21.8625 56.6 21.8906 56.2063L21.975 53.9563C22.0313 53 22.0594 51.7907 22.0875 50.75H22.1156C22.2844 51.7625 22.5094 52.8594 22.7344 53.7594L23.325 56.15C23.4094 56.5157 23.7469 56.7407 24.1125 56.7407C24.4781 56.7407 24.7875 56.5157 24.8719 56.15L25.5469 53.7032C25.8281 52.8032 26.1094 51.7063 26.3344 50.7219H26.3625C26.3625 51.8469 26.3906 52.9719 26.4188 53.9L26.5031 56.1219C26.5313 56.5438 26.8406 56.8532 27.2625 56.8532C27.6844 56.8532 28.0219 56.5157 28.0219 56.0938V56.0657L27.7406 50.2719C27.7125 49.6532 27.1781 49.1469 26.5313 49.1469Z" fill="#183965"/>
    <path d="M32.3532 49.0343C30.3001 49.0343 28.9782 50.7781 28.9782 53.0843C28.9782 55.2781 30.1876 57.0218 32.2407 57.0218C34.2657 57.0218 35.672 55.4749 35.672 52.9437C35.6438 50.8062 34.4907 49.0343 32.3532 49.0343ZM32.3251 55.6156C31.2845 55.6156 30.6376 54.5468 30.6376 53.0281C30.6376 51.5374 31.2563 50.4124 32.3251 50.4124C33.422 50.4124 34.0126 51.5937 34.0126 52.9999C33.9845 54.4906 33.3657 55.6156 32.3251 55.6156Z" fill="#183965"/>
    <path d="M41.7188 49.1469C41.3251 49.1469 40.9876 49.4844 40.9876 49.8782V51.425C40.9876 52.4938 41.0157 53.5907 41.1282 54.6594H41.1001C40.7626 53.7594 40.397 52.8594 39.9751 52.0157L38.822 49.7375C38.6532 49.4 38.2876 49.175 37.922 49.175H37.7251C37.1626 49.175 36.7126 49.625 36.7126 50.1875V56.1782C36.7126 56.5719 37.0501 56.9094 37.4438 56.9094C37.8376 56.9094 38.1751 56.5719 38.1751 56.1782V54.575C38.1751 53.3094 38.147 52.2125 38.1188 51.2H38.147C38.4845 52.1 38.9345 53.1125 39.3563 53.9282L40.5657 56.3469C40.7345 56.6844 41.1001 56.9094 41.4657 56.9094C42.0282 56.9094 42.4782 56.4594 42.4782 55.8969V49.9063C42.4501 49.4844 42.1126 49.1469 41.7188 49.1469Z" fill="#183965"/>
    <path d="M47.5406 55.447H45.9094C45.6281 55.447 45.4031 55.222 45.4031 54.9407V54.1251C45.4031 53.8438 45.6281 53.6188 45.9094 53.6188H47.2312C47.625 53.6188 47.9344 53.3095 47.9344 52.9157C47.9344 52.522 47.625 52.2126 47.2312 52.2126H45.9094C45.6281 52.2126 45.4031 51.9876 45.4031 51.7063V51.1438C45.4031 50.8626 45.6281 50.6376 45.9094 50.6376H47.4C47.7937 50.6376 48.1031 50.3282 48.1031 49.9344C48.1031 49.5407 47.7937 49.2313 47.4 49.2313H44.7844C44.25 49.2313 43.8281 49.6532 43.8281 50.1876V55.9813C43.8281 56.5157 44.25 56.9376 44.7844 56.9376H47.5406C47.9344 56.9376 48.2437 56.6282 48.2437 56.2345C48.2437 55.7563 47.9344 55.447 47.5406 55.447Z" fill="#183965"/>
    <path d="M53.5594 49.1469C53.25 49.1469 52.9688 49.3438 52.8563 49.625L52.35 51.0032L52.125 51.65C52.0688 51.8188 51.8719 51.9032 51.7032 51.8469C51.6188 51.8188 51.5344 51.7344 51.5063 51.65C51.4219 51.4532 51.3657 51.2282 51.2532 51.0032L50.7188 49.625C50.6063 49.3438 50.325 49.1469 50.0157 49.1469H49.9594C49.5375 49.1469 49.2 49.4844 49.2 49.9063C49.2 50.0188 49.2282 50.1313 49.2844 50.2438L50.9157 53.6188C50.9438 53.675 50.9719 53.7594 50.9719 53.8438V56.1219C50.9719 56.5438 51.3094 56.8813 51.7313 56.8813H51.7875C52.2094 56.8813 52.5469 56.5438 52.5469 56.1219V53.7875C52.5469 53.7032 52.575 53.6188 52.6032 53.5625L54.2907 50.2719C54.4875 49.9063 54.3469 49.4282 53.9532 49.2594C53.7844 49.175 53.6719 49.1469 53.5594 49.1469Z" fill="#183965"/>
    <path d="M61.4063 52.7188C62.1094 52.4375 62.5594 51.7906 62.5594 51.0313C62.5875 50.4125 62.25 49.8219 61.7157 49.5125C61.2094 49.175 60.6188 49.0625 59.6625 49.0625C59.2969 49.0625 58.9313 49.0906 58.5938 49.0906C58.0594 49.1187 57.6375 49.5687 57.6375 50.1031V55.8688C57.6375 56.4031 58.0594 56.8531 58.6219 56.8813C58.8469 56.8813 59.0719 56.9094 59.3532 56.9094C60.7313 56.9094 61.575 56.6562 62.0813 56.2062C62.5594 55.7844 62.8125 55.1938 62.8125 54.575C62.8125 53.7313 62.25 52.9438 61.4063 52.7188ZM59.1844 50.8906C59.1844 50.6094 59.4094 50.3844 59.6907 50.3844C59.7469 50.3844 59.8032 50.3844 59.8594 50.3844C60.5625 50.3844 60.9844 50.6938 60.9844 51.2844C60.9844 51.8469 60.5344 52.2406 59.7188 52.2406C59.4375 52.2406 59.2125 52.0156 59.2125 51.7344L59.1844 50.8906ZM59.8032 55.6719H59.7188C59.4375 55.6719 59.2125 55.4469 59.2125 55.1656V53.9844C59.2125 53.7031 59.4375 53.4781 59.7188 53.4781H59.7469C60.5344 53.4781 61.1532 53.7875 61.1532 54.575C61.125 55.3625 60.5063 55.6719 59.8032 55.6719Z" fill="#183965"/>
    <path d="M67.7905 50.1313C67.6218 49.5407 67.0874 49.1469 66.4968 49.1469C65.878 49.1469 65.3437 49.5688 65.1749 50.1313L63.5999 55.8688C63.4874 56.2907 63.7405 56.7125 64.1343 56.825C64.1905 56.8532 64.2749 56.8532 64.3312 56.8532C64.6968 56.8532 65.0062 56.6 65.0905 56.2625L65.3437 55.25C65.3999 55.025 65.5968 54.8563 65.8499 54.8563H67.0312C67.2562 54.8563 67.4812 55.025 67.5374 55.25L67.8187 56.2907C67.903 56.6282 68.2124 56.8532 68.578 56.8532H68.6343C69.0562 56.8532 69.4218 56.5157 69.4218 56.0657C69.4218 55.9813 69.4218 55.925 69.3937 55.8688L67.7905 50.1313ZM66.9749 53.5907H65.9062C65.7937 53.5907 65.7093 53.5063 65.7093 53.3938C65.7093 53.3657 65.7093 53.3657 65.7093 53.3375L66.0749 51.9313C66.1312 51.6782 66.1874 51.3969 66.2718 51.0875C66.2999 51.0032 66.3562 50.9469 66.4405 50.975C66.4968 50.975 66.553 51.0313 66.553 51.0875L66.7499 51.9313L67.1155 53.3375C67.1437 53.4219 67.0874 53.5344 66.9749 53.5625C67.003 53.5907 66.9749 53.5907 66.9749 53.5907Z" fill="#183965"/>
    <path d="M74.8782 49.1468C74.5407 49.0624 74.175 49.0343 73.8094 49.0343C71.7 49.0343 70.0125 50.4968 70.0125 53.1406C70.0125 55.3343 71.25 56.9937 73.6688 56.9937C74.0625 56.9937 74.4282 56.9656 74.8219 56.8812C75.1875 56.7968 75.4125 56.4312 75.3563 56.0656C75.3 55.6718 74.9344 55.4187 74.5407 55.4749C74.3438 55.5031 74.1188 55.5312 73.8938 55.5312C72.4875 55.5312 71.6719 54.5468 71.6719 52.9999C71.6719 51.2843 72.6563 50.4406 73.8938 50.4406C74.1188 50.4406 74.3438 50.4687 74.5688 50.4968C74.9344 50.5812 75.3 50.3281 75.3844 49.9624V49.9343C75.4688 49.5968 75.2438 49.2312 74.8782 49.1468Z" fill="#183965"/>
    <path d="M81.5438 55.7281L79.9125 52.7188C79.8281 52.55 79.8281 52.325 79.9406 52.1844L81.1781 50.4125C81.4594 50.1032 81.4031 49.625 81.0938 49.3438C81.0094 49.2594 80.8969 49.2313 80.7844 49.2032C80.4469 49.0907 80.0813 49.2313 79.8844 49.5407L78.5344 51.7344C78.4781 51.8188 78.3938 51.875 78.3094 51.875C78.1688 51.875 78.0281 51.7625 78.0281 51.5938V49.9625C78.0281 49.5407 77.6906 49.175 77.2406 49.175C76.8188 49.175 76.4531 49.5125 76.4531 49.9625V56.15C76.4531 56.5719 76.7906 56.9375 77.2406 56.9375C77.6625 56.9375 78.0281 56.6 78.0281 56.15V54.575C78.0281 54.4625 78.0563 54.35 78.1406 54.2657C78.3094 54.0407 78.6469 53.9844 78.8719 54.1532C78.9281 54.2094 78.9844 54.2656 79.0125 54.3219L80.1094 56.4875C80.25 56.7406 80.5031 56.9094 80.8125 56.9094H80.8688C81.2906 56.9094 81.6563 56.5719 81.6563 56.1219C81.6563 55.9813 81.6 55.8406 81.5438 55.7281Z" fill="#183965"/>
    <path d="M57.5251 41.0187L61.0126 34.0718C61.097 33.875 61.3501 33.8187 61.5189 33.9031C61.6876 33.9875 61.772 34.2125 61.6876 34.4093L58.2001 41.3562C58.0876 41.525 57.8626 41.6093 57.6939 41.4968C57.497 41.4125 57.4407 41.2156 57.5251 41.0187Z" fill="#183965"/>
  </g>
  <defs>
    <clipPath id="clip0">
      <rect width="72" height="72" fill="white" transform="translate(15 17)"/>
    </clipPath>
  </defs>
</svg>
