<svg width="105" height="105" viewBox="0 0 105 105" fill="none"
  xmlns="http://www.w3.org/2000/svg">
  <circle cx="55" cy="50" r="50" fill="#9647CE"/>
  <circle cx="50" cy="55" r="50" fill="white"/>
  <path d="M53 82.25C36.8443 82.25 23.75 69.1557 23.75 53C23.75 36.8454 36.8443 23.75 53 23.75C69.1557 23.75 82.25 36.8443 82.25 53C82.25 69.1557 69.1557 82.25 53 82.25Z" fill="#9FBEEF" stroke="#183965" stroke-width="1.5"/>
  <path d="M66.5325 41.05L66.5124 41.03L66.4662 41.0688C63.0555 37.2083 58.1514 34.9981 53 35C43.0751 35 35 43.075 35 53C34.9962 56.9485 36.2974 60.7876 38.7013 63.92L38.675 63.9412L38.8901 64.1612C39.6756 65.1526 40.5624 66.0591 41.5363 66.8662L48.435 73.9162L57.2212 82.7025C70.4365 80.8204 80.8205 70.4364 82.7025 57.2212L66.5325 41.05Z" fill="#8DACDC"/>
  <path d="M53 35C43.075 35 35 43.075 35 53C35 62.925 43.075 71 53 71C62.9249 71 71 62.925 71 53C71 43.075 62.9249 35 53 35ZM53 36.5C62.0988 36.5 69.5 43.9012 69.5 53C69.4987 54.0064 69.4054 55.0106 69.2212 56H57.7799C57.5126 56.0007 57.2661 56.1437 57.1325 56.375C56.1687 58.0175 54.625 59 53 59C51.3749 59 49.8312 58.0175 48.8662 56.375C48.7326 56.1437 48.4859 56.0007 48.2187 56H36.7788C36.5947 55.0106 36.5013 54.0064 36.5 53C36.5 43.9012 43.9012 36.5 53 36.5ZM53 69.5C45.4625 69.5 39.0925 64.4175 37.1249 57.5H47.7999C49.0499 59.3862 50.9649 60.5 52.9961 60.5C55.0273 60.5 56.9436 59.3862 58.1923 57.5H68.8748C66.9074 64.4175 60.5375 69.5 53 69.5Z" fill="#183965"/>
  <path d="M53 56C54.6479 56.0094 55.9913 54.6813 56.0007 53.0334C56.0048 52.3041 55.7418 51.5985 55.2612 51.05L59.5312 46.78C59.8136 46.477 59.7968 46.0024 59.4938 45.7201C59.2058 45.4517 58.7593 45.4517 58.4712 45.7201L53.9999 50.185C53.6797 50.0663 53.3415 50.0036 53 50C51.3431 50 50 51.3431 50 53C50 54.6569 51.3431 56 53 56ZM53 51.5C53.8284 51.5 54.5 52.1716 54.5 53C54.5 53.8284 53.8284 54.5 53 54.5C52.1716 54.5 51.5 53.8284 51.5 53C51.5 52.1716 52.1716 51.5 53 51.5Z" fill="#183965"/>
  <path d="M52.9999 41.75C53.4142 41.75 53.7499 41.4143 53.7499 41V38C53.7499 37.5857 53.4142 37.25 52.9999 37.25C52.5857 37.25 52.2499 37.5857 52.2499 38V41C52.2499 41.4143 52.5857 41.75 52.9999 41.75Z" fill="#183965"/>
  <path d="M64.25 52.9999C64.25 53.4142 64.5858 53.7499 65 53.7499H68C68.4143 53.7499 68.75 53.4142 68.75 52.9999C68.75 52.5857 68.4143 52.2499 68 52.2499H65C64.5858 52.2499 64.25 52.5857 64.25 52.9999Z" fill="#183965"/>
  <path d="M38 53.7499H41C41.4143 53.7499 41.75 53.4142 41.75 52.9999C41.75 52.5857 41.4143 52.2499 41 52.2499H38C37.5858 52.2499 37.25 52.5857 37.25 52.9999C37.25 53.4142 37.5858 53.7499 38 53.7499Z" fill="#183965"/>
  <path d="M46.2812 42.8625C46.4949 43.2173 46.9558 43.3318 47.3106 43.1181C47.6563 42.9099 47.7754 42.4655 47.58 42.1125L46.3026 39.8987C46.0889 39.5438 45.628 39.4294 45.2732 39.6431C44.9275 39.8512 44.8084 40.2957 45.0038 40.6487L46.2812 42.8625Z" fill="#183965"/>
  <path d="M63.5137 47.68C63.6453 47.6801 63.7746 47.6457 63.8887 47.5801L66.1025 46.3026C66.4573 46.089 66.5718 45.6281 66.3582 45.2732C66.15 44.9275 65.7055 44.8085 65.3525 45.0038L63.1375 46.2813C62.7786 46.4879 62.655 46.9464 62.8616 47.3054C62.9956 47.5381 63.2439 47.6816 63.5125 47.6812L63.5137 47.68Z" fill="#183965"/>
  <path d="M39.8988 46.3025L42.1126 47.58C42.475 47.7806 42.9314 47.6493 43.132 47.2869C43.3274 46.9338 43.2084 46.4894 42.8626 46.2813L40.6488 45.0001C40.2865 44.7995 39.83 44.9307 39.6294 45.2932C39.4341 45.6463 39.553 46.0906 39.8988 46.2988V46.3025Z" fill="#183965"/>
  <path d="M58.6949 43.1375C59.0535 43.3448 59.5123 43.2219 59.7195 42.8633C59.7196 42.8631 59.7197 42.8628 59.7199 42.8626L60.9999 40.6488C61.2005 40.2865 61.0693 39.83 60.7069 39.6294C60.3538 39.4339 59.9093 39.553 59.7012 39.8988L58.42 42.1126C58.2127 42.4712 58.3356 42.93 58.6942 43.1372C58.6945 43.1373 58.6947 43.1374 58.6949 43.1375Z" fill="#183965"/>
</svg>
