<svg width="105" height="105" viewBox="0 0 105 105" fill="none"
  xmlns="http://www.w3.org/2000/svg">
  <circle cx="55" cy="55" r="50" fill="#9647CE"/>
  <circle cx="50" cy="50" r="50" fill="white"/>
  <g clip-path="url(#clip0)">
    <path d="M66.0741 23.8789V82.1211H23.8866V33.1191L33.1268 23.8789H66.0741Z" fill="#AAC9FA"/>
    <path d="M36.6424 23.8789L27.4022 33.1191V82.1211H23.8866V33.1191L33.1268 23.8789H36.6424Z" fill="#8DACDC"/>
    <path d="M35.4706 23.8789V35.4629H23.8866V33.1191L33.1268 23.8789H35.4706Z" fill="#C5E2FF"/>
    <path d="M23.8866 33.1196H33.1273V23.8789L23.8866 33.1196Z" fill="#FFC85E"/>
    <path d="M78.012 23.8789C79.1452 23.8789 80.1694 24.3383 80.9124 25.0801C81.6542 25.8219 82.1135 26.8484 82.1135 27.9805V71.5742L78.012 82.1211L73.9104 71.5742V27.9805C73.9104 25.7152 75.7467 23.8789 78.012 23.8789Z" fill="#64B9FC"/>
    <path d="M82.1133 71.5742H73.9102L78.0117 82.1211L82.1133 71.5742Z" fill="#D9ECFD"/>
    <path d="M78.012 23.8789C79.1452 23.8789 80.1694 24.3383 80.9124 25.0801C81.6542 25.8219 82.1135 26.8484 82.1135 27.9805V31.0109H73.9104V27.9805C73.9104 25.7152 75.7467 23.8789 78.012 23.8789Z" fill="#FC5A36"/>
    <path d="M73.9102 31.011H82.1134V34.7578H73.9102V31.011Z" fill="#FFC85E"/>
    <path d="M66.0747 23H33.1274C32.8978 23 32.6681 23.095 32.5057 23.2575L23.265 32.498C23.1027 32.6604 23.0083 32.8897 23.0083 33.1191V82.1211C23.0083 82.6065 23.4017 83 23.8872 83H30.7473C31.2328 83 31.6262 82.6065 31.6262 82.1211C31.6262 81.6357 31.2328 81.2422 30.7473 81.2422H24.7661V33.9985H33.1274C33.6129 33.9985 34.0063 33.605 34.0063 33.1196V24.7578H65.1958V33.3828C65.1958 33.8682 65.5892 34.2617 66.0747 34.2617C66.5602 34.2617 66.9536 33.8682 66.9536 33.3828V23.8789C66.9536 23.3935 66.5601 23 66.0747 23V23ZM26.0086 32.2407L32.2485 26.0009V32.2407H26.0086Z" fill="#183965"/>
    <path d="M66.0747 36.3348C65.5892 36.3348 65.1958 36.7283 65.1958 37.2137V81.2422H34.5782C34.0927 81.2422 33.6993 81.6357 33.6993 82.1211C33.6993 82.6065 34.0927 83 34.5782 83H66.0747C66.5602 83 66.9536 82.6065 66.9536 82.1211V37.2137C66.9536 36.7283 66.5601 36.3348 66.0747 36.3348Z" fill="#183965"/>
    <path d="M43.5531 40.9297C44.0386 40.9297 44.432 40.5362 44.432 40.0508V36.5125H48.8853V40.0508C48.8853 40.5362 49.2787 40.9297 49.7642 40.9297C50.2498 40.9297 50.6432 40.5362 50.6432 40.0508V31.8361C50.6432 30.0655 49.2027 28.625 47.4321 28.625H45.8853C44.1148 28.625 42.6743 30.0655 42.6743 31.8361V40.0508C42.6742 40.5362 43.0677 40.9297 43.5531 40.9297ZM45.8853 30.3828H47.4321C48.2334 30.3828 48.8853 31.0347 48.8853 31.8361V34.7546H44.432V31.8361C44.432 31.0347 45.084 30.3828 45.8853 30.3828Z" fill="#183965"/>
    <path d="M59.3003 34.7547H57.0737V32.5281C57.0737 32.0427 56.6803 31.6492 56.1948 31.6492C55.7093 31.6492 55.3159 32.0427 55.3159 32.5281V34.7547H53.0892C52.6037 34.7547 52.2103 35.1482 52.2103 35.6336C52.2103 36.119 52.6037 36.5125 53.0892 36.5125H55.3159V38.7392C55.3159 39.2246 55.7093 39.6181 56.1948 39.6181C56.6803 39.6181 57.0737 39.2246 57.0737 38.7392V36.5125H59.3003C59.7858 36.5125 60.1792 36.119 60.1792 35.6336C60.1792 35.1482 59.7858 34.7547 59.3003 34.7547Z" fill="#183965"/>
    <path d="M58.3628 50.9028H32.1898C31.7043 50.9028 31.3109 51.2963 31.3109 51.7817C31.3109 52.2671 31.7043 52.6606 32.1898 52.6606H58.3628C58.8483 52.6606 59.2417 52.2671 59.2417 51.7817C59.2417 51.2963 58.8483 50.9028 58.3628 50.9028Z" fill="#183965"/>
    <path d="M58.3628 56.9918H32.1898C31.7043 56.9918 31.3109 57.3853 31.3109 57.8707C31.3109 58.3561 31.7043 58.7496 32.1898 58.7496H58.3628C58.8483 58.7496 59.2417 58.3561 59.2417 57.8707C59.2417 57.3853 58.8483 56.9918 58.3628 56.9918Z" fill="#183965"/>
    <path d="M58.3628 63.0808H32.1898C31.7043 63.0808 31.3109 63.4743 31.3109 63.9597C31.3109 64.4451 31.7043 64.8386 32.1898 64.8386H58.3628C58.8483 64.8386 59.2417 64.4451 59.2417 63.9597C59.2417 63.4743 58.8483 63.0808 58.3628 63.0808Z" fill="#183965"/>
    <path d="M58.3628 69.1697H32.1898C31.7043 69.1697 31.3109 69.5633 31.3109 70.0486C31.3109 70.534 31.7043 70.9276 32.1898 70.9276H58.3628C58.8483 70.9276 59.2417 70.534 59.2417 70.0486C59.2417 69.5633 58.8483 69.1697 58.3628 69.1697Z" fill="#183965"/>
    <path d="M82.9919 71.5696V57.4543C82.9919 56.9689 82.5985 56.5754 82.1129 56.5754C81.6274 56.5754 81.234 56.9689 81.234 57.4543V70.6953H78.8905V35.6367H81.234V53.6234C81.234 54.1088 81.6274 54.5023 82.1129 54.5023C82.5985 54.5023 82.9919 54.1088 82.9919 53.6234V27.9805C82.9919 25.2631 80.7288 23 78.0114 23C75.2651 23 73.0309 25.2342 73.0309 27.9805V71.5742C73.0309 71.6818 73.0517 71.7924 73.0907 71.8927L77.1922 82.4396C77.4899 83.293 78.486 83.0404 78.8305 82.4396L82.9226 71.9171C82.939 71.879 82.9919 71.6468 82.9919 71.5696ZM77.1327 70.6953H74.7887V35.6367H77.1327V70.6953ZM74.789 33.8789V31.89H81.234V33.8789H74.789ZM78.0114 24.7578C79.9757 24.9419 81.0499 26.0162 81.234 27.9805V30.1321H74.7887V27.9805C74.7887 26.2034 76.2344 24.7578 78.0114 24.7578ZM78.0114 79.6963L75.1947 72.4531H80.8281L78.0114 79.6963Z" fill="#183965"/>
  </g>
  <defs>
    <clipPath id="clip0">
      <rect width="60" height="60" fill="white" transform="translate(23 23)"/>
    </clipPath>
  </defs>
</svg>
