<svg width="105" height="105" viewBox="0 0 104 104" fill="none" xmlns="http://www.w3.org/2000/svg">
<circle cx="50" cy="54" r="50" fill="#9647CE"/>
<circle cx="54" cy="50" r="50" fill="white"/>
<g clip-path="url(#clip0)">
<path d="M77.2 44.7845C77.8053 44.7845 78.2959 45.2752 78.2959 45.8805V76.5869C78.2959 79.0904 76.2664 81.1199 73.7629 81.1199H30.2371C27.7336 81.1199 25.7041 79.0904 25.7041 76.5869V45.8805C25.7041 45.2752 26.1948 44.7845 26.8001 44.7845H77.2Z" fill="#B3E5EE"/>
<path d="M29.027 44.7845V75.7668C29.027 77.8175 30.6947 79.4856 32.7447 79.4856H71.3727C73.4226 79.4856 75.0905 77.8174 75.0905 75.7668V44.7845H29.027Z" fill="#86D7E5"/>
<path d="M71.8116 42.57H32.3058C31.7906 42.57 31.374 42.9878 31.374 43.503V71.5351L44.105 76.1852L52.0587 77.1L71.1217 73.6589L72.7433 71.5351V43.503C72.7434 42.9878 72.3268 42.57 71.8116 42.57Z" fill="#F9F7F7"/>
<path d="M51.1785 42.57H52.9388V77.1387H51.1785V42.57Z" fill="#F8F3F2"/>
<path d="M41.1954 42.57L46.3577 50.6066V51.2301C46.3577 52.2624 46.872 53.1764 47.6575 53.7309V54.7112C47.6575 56.7627 49.3265 58.4317 51.3779 58.4317H52.7397C54.7911 58.4317 56.4601 56.7627 56.4601 54.7112V53.7309C57.2456 53.1764 57.76 52.2624 57.76 51.2301V50.6066L62.9222 42.57H41.1954Z" fill="#F8F3F2"/>
<path d="M36.2598 72.5241V42.57H32.3058C31.7906 42.57 31.374 42.9878 31.374 43.503V71.5351L36.4183 73.3776C36.3174 73.112 36.2598 72.8251 36.2598 72.5241Z" fill="#F8F3F2"/>
<path d="M52.0587 77.1V77.1387H32.7447C31.9878 77.1387 31.374 76.525 31.374 75.7669V71.5351H46.4938C49.5673 71.5351 52.0587 74.0265 52.0587 77.1Z" fill="#F2EAE7"/>
<path d="M72.7434 71.5351V75.7669C72.7434 76.525 72.1296 77.1387 71.3727 77.1387H52.0587V77.1C52.0587 74.0265 54.5501 71.5351 57.6236 71.5351H72.7434Z" fill="#F2EAE7"/>
<path d="M54.6996 51.1216H49.4178V54.7112C49.4178 55.7937 50.2954 56.6713 51.3778 56.6713H52.7396C53.8222 56.6713 54.6996 55.7937 54.6996 54.7112V51.1216Z" fill="#A59CA6"/>
<path d="M54.6996 51.1216H50.9287H50.4824H49.4178V54.7112C49.4178 55.7937 50.2954 56.6713 51.3778 56.6713H52.7396C53.4982 56.6713 54.1549 56.2395 54.4807 55.609C54.4051 55.6178 54.3286 55.6237 54.2505 55.6237H52.8888C52.0276 55.6237 51.2971 55.068 51.0344 54.2957C50.9356 54.0052 51.151 53.7033 51.4579 53.7033H54.6998V51.1216H54.6996Z" fill="#8F8390"/>
<path opacity="0.45" d="M63.7638 34.5852C63.7638 28.1206 58.5232 22.88 52.0586 22.88C45.594 22.88 40.3535 28.1205 40.3535 34.5852C40.3535 37.0931 41.1425 39.4165 42.4855 41.3215L48.1179 50.0899V51.2301C48.1179 51.9479 48.6998 52.5299 49.4177 52.5299H54.6995C55.4174 52.5299 55.9993 51.9479 55.9993 51.2301V50.0899L61.6317 41.3215C62.9747 39.4166 63.7638 37.0931 63.7638 34.5852Z" fill="#4286F4"/>
<path opacity="0.2" d="M47.4217 42.8151C46.0176 40.756 45.1926 38.2444 45.1926 35.5333C45.1926 29.5021 49.2731 24.457 54.736 23.1882C53.8758 22.9868 52.9802 22.8801 52.0587 22.8801C45.5942 22.8801 40.3535 28.1207 40.3535 34.5853C40.3535 37.0932 41.1426 39.4166 42.4856 41.3216L48.118 50.09V51.2302C48.118 51.948 48.6999 52.53 49.4178 52.53H52.7629L47.4217 42.8151Z" fill="#183965"/>
<path d="M52.4969 74.9316C52.2148 75.598 52.0586 76.3307 52.0586 77.1V77.1387H71.3726C72.1295 77.1387 72.7433 76.525 72.7433 75.7668V74.9318H52.4969V74.9316Z" fill="#EDE2DD"/>
<path d="M38.6674 74.9317C37.3377 74.9317 36.2598 73.8538 36.2598 72.524V71.5351H31.374V75.7669C31.374 76.525 31.9878 77.1387 32.7447 77.1387H52.0587V77.1C52.0587 76.3307 51.9026 75.5981 51.6204 74.9317H38.6674Z" fill="#EDE2DD"/>
<path d="M77.2 43.9045H73.6241V43.5029C73.6241 42.5033 72.8109 41.6901 71.8113 41.6901H64.7587C64.2726 41.6901 63.8785 42.0841 63.8785 42.5703C63.8785 43.0565 64.2726 43.4504 64.7587 43.4504H71.8113C71.8402 43.4504 71.8638 43.4739 71.8638 43.5029V54.2345C71.8638 54.7207 72.2579 55.1146 72.744 55.1146C73.2301 55.1146 73.6241 54.7207 73.6241 54.2345V45.6648H77.2C77.319 45.6648 77.4158 45.7616 77.4158 45.8806V76.587C77.4158 78.6011 75.7772 80.2397 73.7631 80.2397H30.237C28.2229 80.2397 26.5843 78.6011 26.5843 76.587V45.8806C26.5843 45.7616 26.6811 45.6648 26.8001 45.6648H30.4933V75.7674C30.4933 77.0085 31.503 78.0183 32.7443 78.0183H71.3731C72.6143 78.0183 73.624 77.0086 73.624 75.7674V57.9885C73.624 57.5023 73.2299 57.1083 72.7439 57.1083C72.2578 57.1083 71.8637 57.5023 71.8637 57.9885V70.6545H57.6236C55.7793 70.6545 54.1147 71.4345 52.9389 72.6803V61.2953C52.9389 60.8091 52.5448 60.4151 52.0587 60.4151C51.5726 60.4151 51.1786 60.8091 51.1786 61.2953V72.6804C50.0027 71.4346 48.338 70.6547 46.4938 70.6547H42.4944C42.0084 70.6547 41.6143 71.0486 41.6143 71.5348C41.6143 72.021 42.0084 72.415 42.4944 72.415H46.4938C48.7896 72.415 50.7036 74.0754 51.1015 76.258H32.7443C32.4736 76.258 32.2536 76.038 32.2536 75.7674V72.415H38.7403C39.2264 72.415 39.6205 72.021 39.6205 71.5348C39.6205 71.0486 39.2264 70.6547 38.7403 70.6547H32.2536V43.5029C32.2536 43.4739 32.2772 43.4504 32.3062 43.4504H39.3588C39.8448 43.4504 40.2389 43.0565 40.2389 42.5703C40.2389 42.0841 39.8448 41.6901 39.3588 41.6901H32.3062C31.3066 41.6901 30.4933 42.5034 30.4933 43.5029V43.9045H26.8001C25.7105 43.9045 24.824 44.7909 24.824 45.8806V76.587C24.824 79.5717 27.2522 82 30.237 82H73.7628C76.7476 82 79.1759 79.5717 79.1759 76.587V45.8806C79.176 44.7909 78.2896 43.9045 77.2 43.9045ZM57.6236 72.4148H71.8637V75.7674C71.8637 76.038 71.6437 76.258 71.3731 76.258H53.0161C53.4138 74.0753 55.3278 72.4148 57.6236 72.4148Z" fill="#01363E"/>
<path d="M40.3239 34.3492C40.807 34.394 41.2371 34.0395 41.2828 33.5555C41.5345 30.8865 42.7669 28.4152 44.7535 26.5972C46.7524 24.7679 49.3467 23.7603 52.0587 23.7603C58.0277 23.7603 62.8837 28.6164 62.8837 34.5852C62.8837 36.8312 62.202 38.9851 60.9124 40.8144C60.9052 40.8247 60.8981 40.8353 60.8912 40.8459L55.259 49.6143C55.1678 49.7563 55.1193 49.9213 55.1193 50.09V51.2302C55.1193 51.4616 54.9311 51.6499 54.6996 51.6499H54.6421L55.2029 42.1355H56.2055C57.6403 42.1355 58.8075 40.9683 58.8075 39.5336V39.4268C58.8075 37.9922 57.6403 36.825 56.2055 36.825C54.83 36.825 53.6891 37.9007 53.6081 39.2738L53.5432 40.3752H50.4567L50.3918 39.2738C50.311 37.9007 49.17 36.825 47.7945 36.825C46.3597 36.825 45.1925 37.9922 45.1925 39.4268V39.5336C45.1925 40.9683 46.3597 42.1355 47.7945 42.1355H48.7971L49.3575 51.6438C49.1548 51.6142 48.9982 51.441 48.9982 51.2302V50.09C48.9982 49.9213 48.9497 49.7563 48.8586 49.6143L43.2263 40.8459C43.2195 40.8353 43.2124 40.8247 43.2051 40.8144C42.3953 39.6655 41.8249 38.3888 41.5103 37.0197C41.4013 36.5459 40.9284 36.2503 40.4553 36.3591C39.9816 36.4681 39.6858 36.9404 39.7947 37.4141C40.1595 39.0006 40.8191 40.4804 41.7554 41.8127L47.2381 50.3481V51.23C47.2381 52.1187 47.7733 52.8837 48.5379 53.2228V54.7112C48.5379 56.2773 49.812 57.5515 51.3782 57.5515H52.74C54.306 57.5515 55.5803 56.2773 55.5803 54.7112V53.2228C56.3447 52.8837 56.8801 52.1188 56.8801 51.23V50.3481L62.3627 41.8127C63.8554 39.6885 64.6444 37.1896 64.6444 34.5851C64.6439 27.6456 58.9982 22 52.0587 22C48.9057 22 45.8892 23.1715 43.5651 25.2987C41.2559 27.4122 39.823 30.2857 39.5303 33.3903C39.4846 33.8744 39.8399 34.3037 40.3239 34.3492ZM55.3654 39.3773C55.3916 38.9331 55.7606 38.5852 56.2055 38.5852C56.6697 38.5852 57.0472 38.9627 57.0472 39.4267V39.5335C57.0472 39.9975 56.6697 40.375 56.2055 40.375H55.3066L55.3654 39.3773ZM47.7945 40.375C47.3303 40.375 46.9528 39.9975 46.9528 39.5335V39.4267C46.9528 38.9627 47.3303 38.5852 47.7945 38.5852C48.2395 38.5852 48.6084 38.9331 48.6346 39.3773L48.6934 40.375H47.7945ZM53.4395 42.1353L52.8789 51.6498H51.1212L50.5606 42.1353H53.4395ZM53.8195 54.7113C53.8195 55.3067 53.3351 55.7913 52.7395 55.7913H51.3777C50.7823 55.7913 50.2977 55.3067 50.2977 54.7113V53.4101H53.8194V54.7113H53.8195Z" fill="#01363E"/>
<path d="M67.4759 28.6834C67.6821 28.6834 67.8891 28.6113 68.0562 28.4646L69.9765 26.7785C70.3419 26.4579 70.3779 25.9016 70.0573 25.5364C69.7367 25.1712 69.1805 25.1351 68.8152 25.4557L66.8949 27.1418C66.5295 27.4624 66.4935 28.0187 66.8141 28.3839C66.9881 28.5821 67.2314 28.6834 67.4759 28.6834Z" fill="#01363E"/>
<path d="M66.8948 33.9916L68.8152 35.6779C68.9823 35.8247 69.1893 35.8966 69.3956 35.8966C69.6401 35.8966 69.8833 35.7953 70.0574 35.5971C70.3781 35.2319 70.342 34.6758 69.9767 34.3551L68.0564 32.6688C67.6911 32.348 67.135 32.3842 66.8143 32.7496C66.4935 33.1148 66.5295 33.6708 66.8948 33.9916Z" fill="#01363E"/>
<path d="M34.1407 26.7785L36.0611 28.4646C36.2282 28.6114 36.4352 28.6834 36.6414 28.6834C36.8859 28.6834 37.1292 28.5821 37.3032 28.3839C37.6239 28.0187 37.5878 27.4624 37.2224 27.1418L35.3021 25.4557C34.9369 25.1348 34.3806 25.1711 34.06 25.5364C33.7393 25.9016 33.7754 26.4578 34.1407 26.7785Z" fill="#01363E"/>
<path d="M34.7218 35.8966C34.928 35.8966 35.135 35.8246 35.3022 35.6779L37.2226 33.9916C37.5878 33.6709 37.6239 33.1148 37.3032 32.7495C36.9826 32.3843 36.4265 32.3482 36.0611 32.6688L34.1408 34.3551C33.7756 34.6758 33.7394 35.2319 34.0601 35.5971C34.2341 35.7953 34.4772 35.8966 34.7218 35.8966Z" fill="#01363E"/>
<path d="M44.2715 52.5299C44.2715 52.0437 43.8774 51.6498 43.3913 51.6498H34.7214C34.2353 51.6498 33.8412 52.0437 33.8412 52.5299C33.8412 53.0161 34.2353 53.4101 34.7214 53.4101H43.3913C43.8774 53.4101 44.2715 53.0161 44.2715 52.5299Z" fill="#01363E"/>
<path d="M46.0726 56.1269H36.3113C35.8252 56.1269 35.4312 56.5208 35.4312 57.007C35.4312 57.4932 35.8252 57.8872 36.3113 57.8872H46.0726C46.5587 57.8872 46.9528 57.4932 46.9528 57.007C46.9528 56.5208 46.5587 56.1269 46.0726 56.1269Z" fill="#01363E"/>
<path d="M46.0726 60.4151H36.3113C35.8252 60.4151 35.4312 60.8091 35.4312 61.2952C35.4312 61.7814 35.8252 62.1754 36.3113 62.1754H46.0726C46.5587 62.1754 46.9528 61.7814 46.9528 61.2952C46.9528 60.8091 46.5587 60.4151 46.0726 60.4151Z" fill="#01363E"/>
<path d="M46.0726 64.7033H36.3113C35.8252 64.7033 35.4312 65.0973 35.4312 65.5835C35.4312 66.0696 35.8252 66.4636 36.3113 66.4636H46.0726C46.5587 66.4636 46.9528 66.0696 46.9528 65.5835C46.9528 65.0973 46.5587 64.7033 46.0726 64.7033Z" fill="#01363E"/>
<path d="M70.2762 52.5299C70.2762 52.0437 69.8821 51.6498 69.396 51.6498H60.7261C60.24 51.6498 59.8459 52.0437 59.8459 52.5299C59.8459 53.0161 60.24 53.4101 60.7261 53.4101H69.396C69.8821 53.4101 70.2762 53.0161 70.2762 52.5299Z" fill="#01363E"/>
<path d="M67.806 56.1269H58.0447C57.5586 56.1269 57.1646 56.5208 57.1646 57.007C57.1646 57.4932 57.5586 57.8872 58.0447 57.8872H67.806C68.2921 57.8872 68.6862 57.4932 68.6862 57.007C68.6862 56.5208 68.2921 56.1269 67.806 56.1269Z" fill="#01363E"/>
<path d="M67.806 60.4151H58.0447C57.5586 60.4151 57.1646 60.8091 57.1646 61.2952C57.1646 61.7814 57.5586 62.1754 58.0447 62.1754H67.806C68.2921 62.1754 68.6862 61.7814 68.6862 61.2952C68.6862 60.8091 68.2921 60.4151 67.806 60.4151Z" fill="#01363E"/>
<path d="M67.806 64.7033H58.0447C57.5586 64.7033 57.1646 65.0973 57.1646 65.5835C57.1646 66.0696 57.5586 66.4636 58.0447 66.4636H67.806C68.2921 66.4636 68.6862 66.0696 68.6862 65.5835C68.6862 65.0973 68.2921 64.7033 67.806 64.7033Z" fill="#01363E"/>
</g>
<defs>
<clipPath id="clip0">
<rect width="60" height="60" fill="white" transform="translate(22 22)"/>
</clipPath>
</defs>
</svg>
