<svg width="105" height="105" viewBox="0 0 105 105" fill="none"
  xmlns="http://www.w3.org/2000/svg">
  <circle cx="55" cy="50" r="50" fill="#9647CE"/>
  <circle cx="50" cy="55" r="50" fill="white"/>
  <g clip-path="url(#clip0)">
    <path d="M27.4234 74.494C27.4234 72.2262 29.2619 70.3877 31.5298 70.3877H82.0962V66.868H31.5298C27.3181 66.868 23.9037 70.2822 23.9037 74.494C23.9037 78.7057 27.318 82.1201 31.5298 82.1201H82.0962V78.6004H31.5298C29.2619 78.6004 27.4234 76.7619 27.4234 74.494Z" fill="#CBDCFB"/>
    <path d="M80.2191 70.3877H31.5298C29.2619 70.3877 27.4234 72.2262 27.4234 74.494C27.4234 76.7619 29.2619 78.6003 31.5298 78.6003H80.2191V70.3877Z" fill="white"/>
    <path d="M27.8192 72.7342C27.5657 73.2677 27.4234 73.8641 27.4234 74.494C27.4234 76.7619 29.2619 78.6004 31.5298 78.6004H80.2191V75.0807H31.5298C29.8918 75.0807 28.4782 74.1213 27.8192 72.7342Z" fill="#E4E8ED"/>
    <path d="M33.055 61.0018C33.055 59.7058 34.1055 58.6553 35.4015 58.6553H76.4647V55.1356H35.4015C32.1617 55.1356 29.5353 57.762 29.5353 61.0018C29.5353 64.2416 32.1617 66.868 35.4015 66.868H76.4647V63.3483H35.4015C34.1055 63.3483 33.055 62.2976 33.055 61.0018Z" fill="#F7F5F4"/>
    <path d="M74.5875 58.6553H35.4014C34.1055 58.6553 33.0549 59.7059 33.0549 61.0018C33.0549 62.2978 34.1055 63.3483 35.4014 63.3483H74.5875V58.6553Z" fill="white"/>
    <path d="M65.9055 31.0843V48.6828C65.9055 48.6828 62.3858 51.0293 52.9999 51.0293C43.614 51.0293 40.0943 48.6828 40.0943 48.6828V31.0843H65.9055Z" fill="#AAC9FA"/>
    <path d="M40.0943 45.1631V48.6829C40.0943 48.6829 43.614 51.0293 52.9999 51.0293C62.3858 51.0293 65.9055 48.6829 65.9055 48.6829V45.1631C65.9055 45.1631 62.3858 47.5096 52.9999 47.5096C43.614 47.5096 40.0943 45.1631 40.0943 45.1631Z" fill="#8DACDC"/>
    <path d="M75.2914 47.5096H70.5985V43.9899C70.5985 42.6939 71.649 41.6434 72.945 41.6434C74.2409 41.6434 75.2914 42.6939 75.2914 43.9899V47.5096Z" fill="#8DACDC"/>
    <path d="M74.1182 30.967L52.9999 38.0064L31.8817 30.967L52.9999 23.9276L74.1182 30.967Z" fill="#AAC9FA"/>
    <path d="M68.4865 29.0898L52.9999 34.252L37.5132 29.0898L31.8817 30.967L52.9999 38.0064L74.1182 30.967L68.4865 29.0898Z" fill="#8DACDC"/>
    <path d="M33.2896 74.2007H35.0494V75.9606H33.2896V74.2007Z" fill="white"/>
    <path d="M57.6929 45.3391H59.4527V47.099H57.6929V45.3391Z" fill="white"/>
    <path d="M82.9762 71.2677V65.9881H77.3447V62.4684H75.4675V59.5353H77.3447V54.2557H63.3077V56.0156H75.5848V57.7754H39.1725V59.5353H73.7075V62.4684H35.4013C34.5926 62.4684 33.9348 61.8106 33.9348 61.0018C33.9348 60.1931 34.5926 59.5353 35.4013 59.5353H37.4126V57.7754H35.4013C33.6224 57.7754 32.1749 59.2227 32.1749 61.0018C32.1749 62.7809 33.6224 64.2282 35.4013 64.2282H75.5847V65.9881H45.2565V67.7479H81.2162V69.5078H31.5297C28.7802 69.5078 26.5434 71.7446 26.5434 74.4941C26.5434 77.2435 28.7802 79.4803 31.5297 79.4803H72.9783V77.7204H31.5298C29.7507 77.7204 28.3034 76.2731 28.3034 74.4941C28.3034 72.715 29.7507 71.2677 31.5298 71.2677H79.3391V74.2007H40.3291V75.9606H79.3391V77.7204H74.7383V79.4803H81.2163V81.2402H31.5298C27.8099 81.2402 24.7837 78.2139 24.7837 74.4941C24.7837 70.7742 27.8099 67.7479 31.5298 67.7479H43.4968V65.9881H35.4015C32.652 65.9881 30.4152 63.7513 30.4152 61.0018C30.4152 58.2524 32.652 56.0156 35.4015 56.0156H61.5478V54.2557H35.4015C31.6816 54.2557 28.6554 57.282 28.6554 61.0018C28.6554 62.9895 29.5199 64.7787 30.8922 66.0145C26.4989 66.3419 23.0238 70.0185 23.0238 74.4941C23.0238 79.1843 26.8395 83 31.5298 83H82.9762V77.7204H81.099V71.2677H82.9762Z" fill="#183965"/>
    <path d="M36.8093 74.2007H38.5692V75.9606H36.8093V74.2007Z" fill="#183965"/>
    <path d="M39.2145 49.1537L39.6063 49.4149C39.7591 49.5168 43.4574 51.9092 53 51.9092C62.5426 51.9092 66.2409 49.5168 66.3937 49.4149L66.7855 49.1537V34.3387L72.0651 32.5789V40.8865C70.7126 41.2706 69.7186 42.516 69.7186 43.9899V48.3895H76.1714V43.9899C76.1714 42.516 75.1775 41.2706 73.825 40.8865V31.9923L76.9008 30.967L67.6597 27.8865L67.1031 29.556L71.3357 30.9669L53 37.0788L34.6643 30.967L53 24.8551L65.4336 28.9997L65.9902 27.3302L53 23L29.0992 30.967L39.2145 34.3387V49.1537ZM74.4116 43.9899V46.6297H71.4785V43.9899C71.4785 43.1812 72.1363 42.5234 72.945 42.5234C73.7537 42.5234 74.4116 43.1812 74.4116 43.9899ZM40.9743 34.9254L53 38.934L65.0257 34.9254V41.8194H62.8552V43.5793H65.0257V45.3391H61.2127V47.099H65.0257V48.1598C63.8916 48.7121 60.243 50.1494 53 50.1494C45.7515 50.1494 42.1028 48.7098 40.9743 48.1603V34.9254Z" fill="#183965"/>
  </g>
  <defs>
    <clipPath id="clip0">
      <rect width="60" height="60" fill="white" transform="translate(23 23)"/>
    </clipPath>
  </defs>
</svg>
