<svg width="199" height="199" viewBox="0 0 199 199" fill="none" xmlns="http://www.w3.org/2000/svg">
<circle cx="100.222" cy="102.011" r="68.0352" fill="#FBFBFC"/>
<path d="M40.7407 135.468C34.6587 124.933 31.5122 112.961 31.6289 100.797C31.7455 88.6338 35.1212 76.724 41.4042 66.3082C47.6872 55.8924 56.6478 47.3516 67.3529 41.5753C78.058 35.7989 90.1159 32.9982 102.271 33.4649C114.426 33.9315 126.234 37.6485 136.464 44.2287C146.695 50.8088 154.975 60.0115 160.44 70.8783C165.906 81.7452 168.359 93.8787 167.543 106.015C166.726 118.152 162.671 129.848 155.799 139.885L136.017 126.341C140.468 119.841 143.094 112.267 143.623 104.407C144.151 96.5467 142.563 88.6887 139.023 81.6511C135.483 74.6135 130.121 68.6536 123.496 64.3922C116.87 60.1307 109.223 57.7235 101.351 57.4213C93.4793 57.1191 85.6703 58.9329 78.7375 62.6738C71.8047 66.4147 66.0016 71.9459 61.9326 78.6914C57.8635 85.4368 55.6774 93.1499 55.6018 101.027C55.5262 108.905 57.564 116.658 61.5029 123.48L40.7407 135.468Z" fill="#E4E5EA"/>
<path d="M37.3802 135.019C28.5309 119.542 25.7777 101.319 29.6597 83.9183C33.5417 66.5179 43.7793 51.1932 58.3677 40.9451L61.4211 45.2916C47.9155 54.779 38.4379 68.9661 34.844 85.0749C31.2502 101.184 33.799 118.054 41.9914 132.382L37.3802 135.019Z" fill="#EA3972"/>
<path d="M58.9818 40.5181C69.123 33.5515 80.8892 29.3174 93.1442 28.2246L93.6159 33.5154C82.2707 34.527 71.3779 38.4469 61.9895 44.8963L58.9818 40.5181Z" fill="#6C5DEE"/>
<path d="M93.8489 28.1663C106.114 27.1946 118.423 29.4017 129.586 34.5745L127.353 39.394C117.018 34.6052 105.623 32.5619 94.2684 33.4615L93.8489 28.1663Z" fill="#58A2FA"/>
<path d="M130.376 34.9462C141.475 40.2548 151.019 48.3356 158.084 58.4082L153.735 61.4585C147.194 52.1336 138.36 44.6526 128.084 39.7381L130.376 34.9462Z" fill="url(#paint0_linear)"/>
<g filter="url(#filter0_dd)">
<ellipse cx="153.934" cy="57.2505" rx="7.1616" ry="7.16159" fill="#183965"/>
</g>
<ellipse cx="153.934" cy="57.2501" rx="5.3712" ry="5.3712" fill="#EDFCF4"/>
<path d="M131.239 59.4764C131.84 59.2686 132.44 59.7891 132.32 60.4132L130.116 71.8316C129.996 72.4558 129.245 72.7155 128.765 72.2991L119.978 64.6818C119.497 64.2654 119.648 63.4853 120.249 63.2775L131.239 59.4764Z" fill="#424153"/>
<g filter="url(#filter1_d)">
<ellipse cx="99.7834" cy="101.714" rx="44.76" ry="44.76" fill="white"/>
</g>
<path d="M89.4178 100.205H90.769C90.3679 98.1151 88.6155 96.6794 86.3354 96.6794C83.5644 96.6794 81.6063 98.8118 81.6063 102.232C81.6063 105.652 83.5486 107.785 86.4199 107.785C88.9956 107.785 90.8323 106.069 90.8323 103.393V102.232H86.7154V103.393H89.5656C89.5287 105.335 88.2514 106.56 86.4199 106.56C84.4142 106.56 82.873 105.04 82.873 102.232C82.873 99.424 84.4142 97.9039 86.3354 97.9039C87.8977 97.9039 88.9586 98.7854 89.4178 100.205ZM96.1988 107.806C98.3945 107.806 99.8724 106.138 99.8724 103.625C99.8724 101.092 98.3945 99.424 96.1988 99.424C94.0031 99.424 92.5253 101.092 92.5253 103.625C92.5253 106.138 94.0031 107.806 96.1988 107.806ZM96.1988 106.687C94.531 106.687 93.7709 105.251 93.7709 103.625C93.7709 102 94.531 100.543 96.1988 100.543C97.8667 100.543 98.6267 102 98.6267 103.625C98.6267 105.251 97.8667 106.687 96.1988 106.687ZM105.067 107.806C107.263 107.806 108.741 106.138 108.741 103.625C108.741 101.092 107.263 99.424 105.067 99.424C102.872 99.424 101.394 101.092 101.394 103.625C101.394 106.138 102.872 107.806 105.067 107.806ZM105.067 106.687C103.399 106.687 102.639 105.251 102.639 103.625C102.639 102 103.399 100.543 105.067 100.543C106.735 100.543 107.495 102 107.495 103.625C107.495 105.251 106.735 106.687 105.067 106.687ZM113.704 107.806C115.266 107.806 115.794 106.834 116.068 106.391H116.216V107.637H117.419V96.8272H116.174V100.817H116.068C115.794 100.395 115.308 99.424 113.725 99.424C111.677 99.424 110.262 101.05 110.262 103.604C110.262 106.18 111.677 107.806 113.704 107.806ZM113.872 106.687C112.31 106.687 111.508 105.314 111.508 103.583C111.508 101.873 112.289 100.543 113.872 100.543C115.393 100.543 116.195 101.767 116.195 103.583C116.195 105.42 115.371 106.687 113.872 106.687Z" fill="#183965"/>
<defs>
<filter id="filter0_dd" x="140.647" y="43.9629" width="26.5751" height="26.5751" filterUnits="userSpaceOnUse" color-interpolation-filters="sRGB">
<feFlood flood-opacity="0" result="BackgroundImageFix"/>
<feColorMatrix in="SourceAlpha" type="matrix" values="0 0 0 0 0 0 0 0 0 0 0 0 0 0 0 0 0 0 127 0" result="hardAlpha"/>
<feOffset/>
<feGaussianBlur stdDeviation="3.06297"/>
<feComposite in2="hardAlpha" operator="out"/>
<feColorMatrix type="matrix" values="0 0 0 0 0 0 0 0 0 0 0 0 0 0 0 0 0 0 0.25 0"/>
<feBlend mode="normal" in2="BackgroundImageFix" result="effect1_dropShadow"/>
<feColorMatrix in="SourceAlpha" type="matrix" values="0 0 0 0 0 0 0 0 0 0 0 0 0 0 0 0 0 0 127 0" result="hardAlpha"/>
<feOffset/>
<feGaussianBlur stdDeviation="3.06297"/>
<feComposite in2="hardAlpha" operator="out"/>
<feColorMatrix type="matrix" values="0 0 0 0 0 0 0 0 0 0 0 0 0 0 0 0 0 0 0.25 0"/>
<feBlend mode="normal" in2="effect1_dropShadow" result="effect2_dropShadow"/>
<feBlend mode="normal" in="SourceGraphic" in2="effect2_dropShadow" result="shape"/>
</filter>
<filter id="filter1_d" x="42.0234" y="43.9541" width="115.52" height="115.52" filterUnits="userSpaceOnUse" color-interpolation-filters="sRGB">
<feFlood flood-opacity="0" result="BackgroundImageFix"/>
<feColorMatrix in="SourceAlpha" type="matrix" values="0 0 0 0 0 0 0 0 0 0 0 0 0 0 0 0 0 0 127 0" result="hardAlpha"/>
<feOffset/>
<feGaussianBlur stdDeviation="6.5"/>
<feColorMatrix type="matrix" values="0 0 0 0 0.282353 0 0 0 0 0.25098 0 0 0 0 0.584314 0 0 0 0.22 0"/>
<feBlend mode="normal" in2="BackgroundImageFix" result="effect1_dropShadow"/>
<feBlend mode="normal" in="SourceGraphic" in2="effect1_dropShadow" result="shape"/>
</filter>
<linearGradient id="paint0_linear" x1="131.841" y1="34.564" x2="152.699" y2="63.0157" gradientUnits="userSpaceOnUse">
<stop stop-color="#43BCCC"/>
<stop offset="1" stop-color="#68E5A6"/>
</linearGradient>
</defs>
</svg>
