<svg width="29" height="29" viewBox="0 0 29 29" fill="none"
  xmlns="http://www.w3.org/2000/svg">
  <path d="M14.5 0C6.50421 0 0 6.50484 0 14.5C0 22.4952 6.50421 29 14.5 29C22.4958 29 29 22.4952 29 14.5C29 6.50484 22.4958 0 14.5 0ZM14.5 27.7917C7.17093 27.7917 1.20831 21.8291 1.20831 14.5C1.20831 7.17093 7.17093 1.20831 14.5 1.20831C21.8291 1.20831 27.7917 7.17093 27.7917 14.5C27.7917 21.8291 21.8291 27.7917 14.5 27.7917Z" fill="#484095"/>
  <path d="M20.2644 13.992L11.8061 8.55448C11.6208 8.43355 11.3813 8.42704 11.1901 8.53205C10.9954 8.63825 10.875 8.84125 10.875 9.06249V19.9375C10.875 20.1587 10.9954 20.3617 11.1901 20.4679C11.2798 20.5169 11.3801 20.5417 11.4792 20.5417C11.5925 20.5417 11.7069 20.5098 11.8061 20.4455L20.2644 15.008C20.4367 14.8971 20.5417 14.7053 20.5417 14.5C20.5417 14.2947 20.4367 14.1029 20.2644 13.992ZM12.0833 18.8306V10.1694L18.82 14.5L12.0833 18.8306Z" fill="#484095"/>
</svg>
