<svg width="111" height="111" viewBox="0 0 111 111" fill="none" xmlns="http://www.w3.org/2000/svg">
<g opacity="0.3">
<path d="M89.8036 30.8904C94.5674 35.9501 97.125 41.625 97.125 50.8241C97.125 67.0116 85.7614 81.5202 69.2363 88.6936L65.1061 82.3204C80.5305 73.9769 83.546 63.1497 84.7485 56.3232C82.2649 57.609 79.0135 58.0576 75.8269 57.7616C67.4834 56.9892 60.9066 50.1396 60.9066 41.625C60.9066 37.3318 62.6121 33.2144 65.6478 30.1787C68.6836 27.1429 72.8009 25.4375 77.0941 25.4375C82.0568 25.4375 86.802 27.7037 89.8036 30.8904ZM43.5536 30.8904C48.3174 35.9501 50.875 41.625 50.875 50.8241C50.875 67.0116 39.5114 81.5202 22.9862 88.6936L18.8561 82.3204C34.2805 73.9769 37.296 63.1497 38.4985 56.3232C36.0149 57.609 32.7635 58.0576 29.5769 57.7616C21.2334 56.9892 14.6566 50.1396 14.6566 41.625C14.6566 37.3318 16.3621 33.2144 19.3978 30.1787C22.4336 27.1429 26.5509 25.4375 30.8441 25.4375C35.8068 25.4375 40.552 27.7037 43.5536 30.8904Z" fill="#BCC1C7"/>
</g>
</svg>
